SplineFontDB: 3.0
FontName: icomoon
FullName: icomoon
FamilyName: icomoon
Weight: Book
Version: 1.0
ItalicAngle: 0
UnderlinePosition: 0
UnderlineWidth: 0
Ascent: 960
Descent: 64
InvalidEm: 0
sfntRevision: 0x00000000
LayerCount: 2
Layer: 0 1 "Back" 1
Layer: 1 1 "Fore" 0
XUID: [1021 746 -852493879 28229]
StyleMap: 0x0040
FSType: 0
OS2Version: 3
OS2_WeightWidthSlopeOnly: 0
OS2_UseTypoMetrics: 0
CreationTime: 1430561273
ModificationTime: 1552418742
PfmFamily: 81
TTFWeight: 400
TTFWidth: 5
LineGap: 0
VLineGap: 0
Panose: 0 0 0 0 0 0 0 0 0 0
OS2TypoAscent: 960
OS2TypoAOffset: 0
OS2TypoDescent: -64
OS2TypoDOffset: 0
OS2TypoLinegap: 64
OS2WinAscent: 960
OS2WinAOffset: 0
OS2WinDescent: 64
OS2WinDOffset: 0
HheadAscent: 960
HheadAOffset: 0
HheadDescent: -64
HheadDOffset: 0
OS2SubXSize: 665
OS2SubYSize: 716
OS2SubXOff: 0
OS2SubYOff: 143
OS2SupXSize: 665
OS2SupYSize: 716
OS2SupXOff: 0
OS2SupYOff: 491
OS2StrikeYSize: 51
OS2StrikeYPos: 265
OS2CodePages: 00000001.00000000
OS2UnicodeRanges: 00000001.10000000.00000000.00000000
DEI: 91125
ShortTable: maxp 16
  1
  0
  202
  2108
  68
  0
  0
  2
  0
  0
  0
  0
  0
  0
  0
  0
EndShort
LangName: 1033 "" "" "Regular" "icomoon" "" "Version 1.0" "" "" "" "" "Font generated by IcoMoon."
GaspTable: 1 65535 15 1
Encoding: UnicodeBmp
UnicodeInterp: none
NameList: AGL For New Fonts
DisplaySize: -48
AntiAlias: 1
FitToEm: 0
WinInfo: 58838 31 11
BeginChars: 65536 202

StartChar: glyph1
Encoding: 0 -1 1
AltUni2: 000000.ffffffff.0
Width: 0
Flags: W
LayerCount: 2
Fore
SplineSet
0 0 m 1,0,-1
 0 0 l 1,1,-1
 0 0 l 1,2,-1
 0 0 l 1,0,-1
EndSplineSet
Validated: 1
EndChar

StartChar: uni0001
Encoding: 1 1 2
Width: 0
Flags: W
LayerCount: 2
Fore
SplineSet
0 0 m 1,0,-1
 0 0 l 1,1,-1
 0 0 l 1,2,-1
 0 0 l 1,0,-1
EndSplineSet
Validated: 1
EndChar

StartChar: space
Encoding: 32 32 3
Width: 512
Flags: W
LayerCount: 2
Fore
SplineSet
0 0 m 1,0,-1
 0 0 l 1,1,-1
 0 0 l 1,2,-1
 0 0 l 1,0,-1
EndSplineSet
Validated: 1
EndChar

StartChar: uniE600
Encoding: 58880 58880 4
Width: 1024
Flags: W
LayerCount: 2
Fore
SplineSet
439 611 m 1,0,-1
 511 453 l 1,1,-1
 618 405 l 1,2,-1
 232 201 l 1,3,-1
 390 342 l 1,4,-1
 390 745 l 1,5,-1
 227 795 l 1,6,-1
 227 196 l 1,7,-1
 389 82 l 1,8,-1
 797 325 l 1,9,-1
 797 501 l 1,10,-1
 439 611 l 1,0,-1
EndSplineSet
Validated: 9
EndChar

StartChar: uniE601
Encoding: 58881 58881 5
Width: 1024
Flags: W
LayerCount: 2
Fore
SplineSet
492 817 m 1,0,1
 471 810 471 810 458 794.5 c 128,-1,2
 445 779 445 779 441 758 c 0,3,4
 440 751 440 751 442 728.5 c 128,-1,5
 444 706 444 706 451 640 c 0,6,7
 456 595 456 595 459.5 563 c 128,-1,8
 463 531 463 531 463 530 c 0,9,10
 462 529 462 529 435 548 c 128,-1,11
 408 567 408 567 369 596 c 0,12,13
 331 624 331 624 300.5 645.5 c 128,-1,14
 270 667 270 667 266 669 c 0,15,16
 256 674 256 674 240 675 c 128,-1,17
 224 676 224 676 212 672 c 0,18,19
 194 667 194 667 180 653 c 128,-1,20
 166 639 166 639 161 621 c 0,21,22
 156 605 156 605 158 590 c 128,-1,23
 160 575 160 575 170 560 c 0,24,25
 179 546 179 546 199 535 c 128,-1,26
 219 524 219 524 304 487 c 0,27,28
 347 468 347 468 378 453.5 c 128,-1,29
 409 439 409 439 409 438 c 2,30,31
 409 438 409 438 379.5 424.5 c 128,-1,32
 350 411 350 411 308 393 c 0,33,34
 267 375 267 375 234.5 360.5 c 128,-1,35
 202 346 202 346 198 344 c 0,36,37
 188 338 188 338 178 327 c 128,-1,38
 168 316 168 316 163 306 c 0,39,40
 160 299 160 299 159 293.5 c 128,-1,41
 158 288 158 288 158 278 c 0,42,43
 158 266 158 266 159 261 c 128,-1,44
 160 256 160 256 164 247 c 0,45,46
 170 235 170 235 178.5 225.5 c 128,-1,47
 187 216 187 216 198 210 c 0,48,49
 216 201 216 201 233 201 c 128,-1,50
 250 201 250 201 269 211 c 0,51,52
 274 213 274 213 304.5 234.5 c 128,-1,53
 335 256 335 256 372 283 c 0,54,55
 421 319 421 319 441.5 333.5 c 128,-1,56
 462 348 462 348 463 346 c 0,57,58
 463 345 463 345 459.5 312.5 c 128,-1,59
 456 280 456 280 451 236 c 0,60,61
 442 149 442 149 441.5 130 c 128,-1,62
 441 111 441 111 447 96 c 0,63,64
 452 87 452 87 461 78 c 128,-1,65
 470 69 470 69 481 64 c 0,66,67
 488 60 488 60 493.5 59.5 c 128,-1,68
 499 59 499 59 512 59 c 256,69,70
 525 59 525 59 530.5 59.5 c 128,-1,71
 536 60 536 60 543 64 c 0,72,73
 559 72 559 72 569.5 85.5 c 128,-1,74
 580 99 580 99 583 118 c 0,75,76
 585 126 585 126 583 146 c 128,-1,77
 581 166 581 166 573 239 c 0,78,79
 568 284 568 284 564.5 316 c 128,-1,80
 561 348 561 348 562 349 c 2,81,82
 562 349 562 349 586 331.5 c 128,-1,83
 610 314 610 314 644 289 c 0,84,85
 727 229 727 229 745.5 216.5 c 128,-1,86
 764 204 764 204 779 202 c 0,87,88
 809 196 809 196 836.5 218 c 128,-1,89
 864 240 864 240 867 272 c 0,90,91
 868 285 868 285 865 295.5 c 128,-1,92
 862 306 862 306 855 318 c 0,93,94
 845 333 845 333 825.5 343.5 c 128,-1,95
 806 354 806 354 720 391 c 0,96,97
 677 410 677 410 646 423.5 c 128,-1,98
 615 437 615 437 614 438 c 2,99,100
 614 438 614 438 643 451.5 c 128,-1,101
 672 465 672 465 713 484 c 0,102,103
 804 524 804 524 819 531.5 c 128,-1,104
 834 539 834 539 844 548 c 0,105,106
 855 558 855 558 860.5 569 c 128,-1,107
 866 580 866 580 867 594 c 0,108,109
 868 621 868 621 853 643.5 c 128,-1,110
 838 666 838 666 813 673 c 0,111,112
 801 676 801 676 785 675 c 128,-1,113
 769 674 769 674 759 669 c 0,114,115
 754 667 754 667 723.5 645.5 c 128,-1,116
 693 624 693 624 655 596 c 256,117,118
 617 568 617 568 589.5 548 c 128,-1,119
 562 528 562 528 562 528 c 2,120,121
 561 528 561 528 564.5 560.5 c 128,-1,122
 568 593 568 593 573 639 c 0,123,124
 583 728 583 728 583.5 747 c 128,-1,125
 584 766 584 766 577 781 c 0,126,127
 572 791 572 791 563 799.5 c 128,-1,128
 554 808 554 808 544 813 c 0,129,130
 533 818 533 818 517 819 c 128,-1,131
 501 820 501 820 492 817 c 1,132,-1
 492 817 l 1,0,1
EndSplineSet
Validated: 41
EndChar

StartChar: uniE602
Encoding: 58882 58882 6
Width: 1024
Flags: W
LayerCount: 2
Fore
SplineSet
859 471 m 1,0,-1
 544 786 l 2,1,2
 531 800 531 800 511.5 800 c 128,-1,3
 492 800 492 800 478 786 c 2,4,-1
 413 721 l 1,5,-1
 496 638 l 1,6,7
 510 643 510 643 525.5 639.5 c 128,-1,8
 541 636 541 636 553 624 c 0,9,10
 564 613 564 613 567.5 597.5 c 128,-1,11
 571 582 571 582 566 567 c 1,12,-1
 646 487 l 1,13,14
 660 492 660 492 675.5 489 c 128,-1,15
 691 486 691 486 703 474 c 0,16,17
 719 458 719 458 719 435 c 128,-1,18
 719 412 719 412 703 396 c 256,19,20
 687 380 687 380 664 380 c 128,-1,21
 641 380 641 380 625 396 c 0,22,23
 613 408 613 408 610 424.5 c 128,-1,24
 607 441 607 441 613 456 c 1,25,-1
 538 531 l 1,26,-1
 538 334 l 1,27,28
 542 332 542 332 545.5 329.5 c 128,-1,29
 549 327 549 327 553 324 c 0,30,31
 569 308 569 308 569 285 c 128,-1,32
 569 262 569 262 553 246 c 0,33,34
 537 229 537 229 514 229 c 128,-1,35
 491 229 491 229 475 246 c 0,36,37
 458 262 458 262 458 285 c 128,-1,38
 458 308 458 308 475 324 c 0,39,40
 479 328 479 328 483.5 331 c 128,-1,41
 488 334 488 334 493 336 c 1,42,-1
 493 534 l 1,43,44
 488 536 488 536 483.5 539 c 128,-1,45
 479 542 479 542 475 546 c 0,46,47
 462 558 462 558 459 575 c 128,-1,48
 456 592 456 592 463 607 c 1,49,-1
 381 689 l 1,50,-1
 165 472 l 2,51,52
 151 459 151 459 151 439.5 c 128,-1,53
 151 420 151 420 165 407 c 2,54,-1
 480 92 l 2,55,56
 493 78 493 78 512.5 78 c 128,-1,57
 532 78 532 78 546 92 c 2,58,-1
 859 405 l 2,59,60
 873 419 873 419 873 438 c 128,-1,61
 873 457 873 457 859 471 c 1,62,-1
 859 471 l 1,0,-1
EndSplineSet
Validated: 37
EndChar

StartChar: uniE603
Encoding: 58883 58883 7
Width: 1024
Flags: W
LayerCount: 2
Fore
SplineSet
512 840 m 1,0,-1
 512 840 l 1,1,2
 438 840 438 840 373.5 831 c 128,-1,3
 309 822 309 822 260.5 806 c 128,-1,4
 212 790 212 790 184 768.5 c 128,-1,5
 156 747 156 747 156 722 c 0,6,7
 156 716 156 716 163 672.5 c 128,-1,8
 170 629 170 629 179.5 571.5 c 128,-1,9
 189 514 189 514 199 455.5 c 128,-1,10
 209 397 209 397 216 360 c 0,11,12
 218 343 218 343 240.5 324 c 128,-1,13
 263 305 263 305 301 289 c 128,-1,14
 339 273 339 273 392.5 262.5 c 128,-1,15
 446 252 446 252 512 252 c 1,16,-1
 512 252 l 1,17,-1
 512 252 l 1,18,19
 578 252 578 252 631.5 262.5 c 128,-1,20
 685 273 685 273 723 289 c 128,-1,21
 761 305 761 305 783.5 324 c 128,-1,22
 806 343 806 343 808 360 c 0,23,24
 815 397 815 397 825 455.5 c 128,-1,25
 835 514 835 514 844.5 571.5 c 128,-1,26
 854 629 854 629 861 672.5 c 128,-1,27
 868 716 868 716 868 722 c 0,28,29
 868 747 868 747 840 768.5 c 128,-1,30
 812 790 812 790 763.5 806 c 128,-1,31
 715 822 715 822 650.5 831 c 128,-1,32
 586 840 586 840 512 840 c 1,33,-1
 512 840 l 1,0,-1
512 331 m 1,34,35
 465 331 465 331 432 364 c 128,-1,36
 399 397 399 397 399 444 c 256,37,38
 399 491 399 491 432 524 c 128,-1,39
 465 557 465 557 512 557 c 256,40,41
 559 557 559 557 592 524 c 128,-1,42
 625 491 625 491 625 444 c 256,43,44
 625 397 625 397 592 364 c 128,-1,45
 559 331 559 331 512 331 c 1,46,-1
 512 331 l 1,34,35
512 686 m 1,47,48
 417 686 417 686 350.5 700.5 c 128,-1,49
 284 715 284 715 284 735 c 256,50,51
 284 755 284 755 351 769 c 128,-1,52
 418 783 418 783 512 783 c 0,53,54
 607 783 607 783 673.5 768.5 c 128,-1,55
 740 754 740 754 740 734 c 256,56,57
 740 714 740 714 673 700 c 128,-1,58
 606 686 606 686 512 686 c 1,59,-1
 512 686 l 1,47,48
768 281 m 1,60,61
 764 281 764 281 761 279 c 128,-1,62
 758 277 758 277 758 277 c 257,63,64
 758 277 758 277 694.5 242 c 128,-1,65
 631 207 631 207 512 207 c 256,66,67
 393 207 393 207 329.5 242 c 128,-1,68
 266 277 266 277 266 277 c 257,69,70
 266 277 266 277 263 279 c 128,-1,71
 260 281 260 281 256 281 c 0,72,73
 251 281 251 281 247 277.5 c 128,-1,74
 243 274 243 274 243 267 c 0,75,76
 243 266 243 266 243.5 265 c 128,-1,77
 244 264 244 264 244 264 c 1,78,79
 254 209 254 209 261 173 c 128,-1,80
 268 137 268 137 269 131 c 0,81,82
 278 91 278 91 347.5 64 c 128,-1,83
 417 37 417 37 512 37 c 1,84,-1
 512 37 l 1,85,-1
 512 37 l 1,86,87
 607 37 607 37 676.5 64 c 128,-1,88
 746 91 746 91 755 131 c 0,89,90
 756 137 756 137 763 173 c 128,-1,91
 770 209 770 209 780 264 c 1,92,93
 780 264 780 264 780.5 265 c 128,-1,94
 781 266 781 266 781 267 c 0,95,96
 781 274 781 274 777 277.5 c 128,-1,97
 773 281 773 281 768 281 c 1,98,-1
 768 281 l 1,60,61
577 443 m 1,99,100
 577 418 577 418 559 400 c 128,-1,101
 541 382 541 382 515 382 c 0,102,103
 490 382 490 382 472 400 c 128,-1,104
 454 418 454 418 454 443 c 0,105,106
 454 469 454 469 472 487 c 128,-1,107
 490 505 490 505 515 505 c 0,108,109
 541 505 541 505 559 487 c 128,-1,110
 577 469 577 469 577 443 c 1,111,-1
 577 443 l 1,99,100
EndSplineSet
Validated: 5
EndChar

StartChar: uniE604
Encoding: 58884 58884 8
Width: 1024
Flags: W
LayerCount: 2
Fore
SplineSet
163 781 m 1,0,1
 149 767 149 767 153 748.5 c 128,-1,2
 157 730 157 730 181 695 c 0,3,4
 193 677 193 677 205.5 652.5 c 128,-1,5
 218 628 218 628 223 611 c 256,6,7
 228 594 228 594 237.5 574 c 128,-1,8
 247 554 247 554 255 543 c 0,9,10
 268 524 268 524 269 512.5 c 128,-1,11
 270 501 270 501 261 466 c 0,12,13
 256 444 256 444 254 419.5 c 128,-1,14
 252 395 252 395 255 379 c 0,15,16
 259 350 259 350 277 317 c 128,-1,17
 295 284 295 284 310 279 c 0,18,19
 322 275 322 275 336 292 c 128,-1,20
 350 309 350 309 350 329 c 0,21,22
 350 346 350 346 352 347 c 128,-1,23
 354 348 354 348 361 336 c 0,24,25
 374 315 374 315 404 282.5 c 128,-1,26
 434 250 434 250 437 253 c 0,27,28
 438 254 438 254 430.5 269.5 c 128,-1,29
 423 285 423 285 410 305 c 0,30,31
 398 325 398 325 385.5 348 c 128,-1,32
 373 371 373 371 367 383 c 0,33,34
 360 403 360 403 355.5 406 c 128,-1,35
 351 409 351 409 342 399 c 0,36,37
 337 394 337 394 331 380.5 c 128,-1,38
 325 367 325 367 323 352 c 0,39,40
 318 320 318 320 307.5 316.5 c 128,-1,41
 297 313 297 313 287 341 c 0,42,43
 278 368 278 368 278 410 c 128,-1,44
 278 452 278 452 287 484 c 0,45,46
 294 506 294 506 292.5 517 c 128,-1,47
 291 528 291 528 280 545 c 0,48,49
 272 555 272 555 262.5 576 c 128,-1,50
 253 597 253 597 247 617 c 0,51,52
 240 636 240 636 228 660.5 c 128,-1,53
 216 685 216 685 204 700 c 0,54,55
 178 737 178 737 178 751.5 c 128,-1,56
 178 766 178 766 206 760 c 0,57,58
 217 758 217 758 232.5 751 c 128,-1,59
 248 744 248 744 259 737 c 0,60,61
 269 729 269 729 284.5 724 c 128,-1,62
 300 719 300 719 311 719 c 0,63,64
 343 719 343 719 393.5 691 c 128,-1,65
 444 663 444 663 485 621 c 0,66,67
 517 589 517 589 538.5 555 c 128,-1,68
 560 521 560 521 595 452 c 0,69,70
 635 369 635 369 648.5 351 c 128,-1,71
 662 333 662 333 687 324 c 0,72,73
 717 314 717 314 763.5 286 c 128,-1,74
 810 258 810 258 810 249 c 0,75,76
 810 247 810 247 796.5 243.5 c 128,-1,77
 783 240 783 240 764 239 c 0,78,79
 713 233 713 233 707 221 c 128,-1,80
 701 209 701 209 734 179 c 0,81,82
 749 166 749 166 774.5 147.5 c 128,-1,83
 800 129 800 129 821 118 c 2,84,-1
 872 89 l 1,85,-1
 848 119 l 2,86,87
 838 131 838 131 820 147.5 c 128,-1,88
 802 164 802 164 785 174 c 0,89,90
 769 184 769 184 757.5 193.5 c 128,-1,91
 746 203 746 203 746 205 c 0,92,93
 746 208 746 208 756.5 212 c 128,-1,94
 767 216 767 216 781 218 c 0,95,96
 819 225 819 225 832.5 229.5 c 128,-1,97
 846 234 846 234 846 240 c 0,98,99
 846 251 846 251 795 289 c 128,-1,100
 744 327 744 327 711 342 c 0,101,102
 684 354 684 354 671 372 c 128,-1,103
 658 390 658 390 622 464 c 0,104,105
 590 532 590 532 569.5 562.5 c 128,-1,106
 549 593 549 593 508 634 c 0,107,108
 456 686 456 686 416 710.5 c 128,-1,109
 376 735 376 735 330 742 c 0,110,111
 314 745 314 745 295.5 752 c 128,-1,112
 277 759 277 759 267 766 c 0,113,114
 245 783 245 783 209 788 c 128,-1,115
 173 793 173 793 163 781 c 1,116,-1
 163 781 l 1,0,1
EndSplineSet
Validated: 41
EndChar

StartChar: uniE605
Encoding: 58885 58885 9
Width: 1024
Flags: W
LayerCount: 2
Fore
SplineSet
512 506 m 1,0,1
 441 506 441 506 379.5 518 c 128,-1,2
 318 530 318 530 272.5 550.5 c 128,-1,3
 227 571 227 571 200.5 598.5 c 128,-1,4
 174 626 174 626 174 658 c 256,5,6
 174 690 174 690 200.5 718 c 128,-1,7
 227 746 227 746 272.5 766.5 c 128,-1,8
 318 787 318 787 379.5 798.5 c 128,-1,9
 441 810 441 810 512 810 c 256,10,11
 583 810 583 810 644.5 798.5 c 128,-1,12
 706 787 706 787 751.5 766.5 c 128,-1,13
 797 746 797 746 823.5 718 c 128,-1,14
 850 690 850 690 850 658 c 256,15,16
 850 626 850 626 823.5 598.5 c 128,-1,17
 797 571 797 571 751.5 550.5 c 128,-1,18
 706 530 706 530 644.5 518 c 128,-1,19
 583 506 583 506 512 506 c 1,20,-1
 512 506 l 1,0,1
512 776 m 1,21,22
 458 776 458 776 404 767.5 c 128,-1,23
 350 759 350 759 306.5 743.5 c 128,-1,24
 263 728 263 728 235.5 706 c 128,-1,25
 208 684 208 684 208 658 c 256,26,27
 208 632 208 632 235.5 610.5 c 128,-1,28
 263 589 263 589 306.5 573 c 128,-1,29
 350 557 350 557 404 548.5 c 128,-1,30
 458 540 458 540 512 540 c 256,31,32
 566 540 566 540 620 548.5 c 128,-1,33
 674 557 674 557 717.5 573 c 128,-1,34
 761 589 761 589 788.5 610.5 c 128,-1,35
 816 632 816 632 816 658 c 256,36,37
 816 684 816 684 788.5 706 c 128,-1,38
 761 728 761 728 717.5 743.5 c 128,-1,39
 674 759 674 759 620 767.5 c 128,-1,40
 566 776 566 776 512 776 c 1,41,-1
 512 776 l 1,21,22
512 371 m 1,42,43
 441 371 441 371 379.5 383 c 128,-1,44
 318 395 318 395 272.5 415.5 c 128,-1,45
 227 436 227 436 200.5 463.5 c 128,-1,46
 174 491 174 491 174 523 c 2,47,-1
 174 658 l 2,48,49
 174 665 174 665 179 670 c 128,-1,50
 184 675 184 675 191 675 c 256,51,52
 198 675 198 675 203 670 c 128,-1,53
 208 665 208 665 208 658 c 2,54,-1
 208 523 l 2,55,56
 208 497 208 497 235.5 475.5 c 128,-1,57
 263 454 263 454 306.5 438 c 128,-1,58
 350 422 350 422 404 413.5 c 128,-1,59
 458 405 458 405 512 405 c 256,60,61
 566 405 566 405 620 413.5 c 128,-1,62
 674 422 674 422 717.5 438 c 128,-1,63
 761 454 761 454 788.5 475.5 c 128,-1,64
 816 497 816 497 816 523 c 2,65,-1
 816 658 l 2,66,67
 816 665 816 665 821 670 c 128,-1,68
 826 675 826 675 833 675 c 256,69,70
 840 675 840 675 845 670 c 128,-1,71
 850 665 850 665 850 658 c 2,72,-1
 850 523 l 2,73,74
 850 491 850 491 823.5 463.5 c 128,-1,75
 797 436 797 436 751.5 415.5 c 128,-1,76
 706 395 706 395 644.5 383 c 128,-1,77
 583 371 583 371 512 371 c 1,78,-1
 512 371 l 1,42,43
512 219 m 1,79,80
 441 219 441 219 379.5 231 c 128,-1,81
 318 243 318 243 272.5 263.5 c 128,-1,82
 227 284 227 284 200.5 311.5 c 128,-1,83
 174 339 174 339 174 371 c 2,84,-1
 174 523 l 2,85,86
 174 530 174 530 179 535 c 128,-1,87
 184 540 184 540 191 540 c 256,88,89
 198 540 198 540 203 535 c 128,-1,90
 208 530 208 530 208 523 c 2,91,-1
 208 371 l 2,92,93
 208 345 208 345 235.5 323.5 c 128,-1,94
 263 302 263 302 306.5 286.5 c 128,-1,95
 350 271 350 271 404 262 c 128,-1,96
 458 253 458 253 512 253 c 256,97,98
 566 253 566 253 620 262 c 128,-1,99
 674 271 674 271 717.5 286.5 c 128,-1,100
 761 302 761 302 788.5 323.5 c 128,-1,101
 816 345 816 345 816 371 c 2,102,-1
 816 523 l 2,103,104
 816 530 816 530 821 535 c 128,-1,105
 826 540 826 540 833 540 c 256,106,107
 840 540 840 540 845 535 c 128,-1,108
 850 530 850 530 850 523 c 2,109,-1
 850 371 l 2,110,111
 850 339 850 339 823.5 311.5 c 128,-1,112
 797 284 797 284 751.5 263.5 c 128,-1,113
 706 243 706 243 644.5 231 c 128,-1,114
 583 219 583 219 512 219 c 1,115,-1
 512 219 l 1,79,80
512 68 m 1,116,117
 441 68 441 68 379.5 79.5 c 128,-1,118
 318 91 318 91 272.5 111.5 c 128,-1,119
 227 132 227 132 200.5 159.5 c 128,-1,120
 174 187 174 187 174 219 c 2,121,-1
 174 371 l 2,122,123
 174 378 174 378 179 383 c 128,-1,124
 184 388 184 388 191 388 c 256,125,126
 198 388 198 388 203 383 c 128,-1,127
 208 378 208 378 208 371 c 2,128,-1
 208 219 l 2,129,130
 208 193 208 193 235.5 171.5 c 128,-1,131
 263 150 263 150 306.5 134.5 c 128,-1,132
 350 119 350 119 404 110 c 128,-1,133
 458 101 458 101 512 101 c 256,134,135
 566 101 566 101 620 110 c 128,-1,136
 674 119 674 119 717.5 134.5 c 128,-1,137
 761 150 761 150 788.5 171.5 c 128,-1,138
 816 193 816 193 816 219 c 2,139,-1
 816 371 l 2,140,141
 816 378 816 378 821 383 c 128,-1,142
 826 388 826 388 833 388 c 256,143,144
 840 388 840 388 845 383 c 128,-1,145
 850 378 850 378 850 371 c 2,146,-1
 850 219 l 2,147,148
 850 187 850 187 823.5 159.5 c 128,-1,149
 797 132 797 132 751.5 111.5 c 128,-1,150
 706 91 706 91 644.5 79.5 c 128,-1,151
 583 68 583 68 512 68 c 1,152,-1
 512 68 l 1,116,117
EndSplineSet
Validated: 5
EndChar

StartChar: uniE606
Encoding: 58886 58886 10
Width: 1024
Flags: W
LayerCount: 2
Fore
SplineSet
512 79 m 1,0,1
 448 79 448 79 392 87 c 128,-1,2
 336 95 336 95 294 109 c 128,-1,3
 252 123 252 123 227.5 141.5 c 128,-1,4
 203 160 203 160 203 182 c 0,5,6
 203 205 203 205 203 230.5 c 128,-1,7
 203 256 203 256 203 285 c 0,8,9
 203 291 203 291 206.5 297.5 c 128,-1,10
 210 304 210 304 214 310 c 1,11,12
 227 294 227 294 255 279.5 c 128,-1,13
 283 265 283 265 322 255 c 128,-1,14
 361 245 361 245 409.5 239 c 128,-1,15
 458 233 458 233 512 233 c 256,16,17
 566 233 566 233 614.5 239 c 128,-1,18
 663 245 663 245 702 255 c 128,-1,19
 741 265 741 265 769 279.5 c 128,-1,20
 797 294 797 294 810 310 c 1,21,22
 814 304 814 304 817.5 297.5 c 128,-1,23
 821 291 821 291 821 285 c 0,24,25
 821 262 821 262 821 237.5 c 128,-1,26
 821 213 821 213 821 182 c 0,27,28
 821 160 821 160 796.5 141.5 c 128,-1,29
 772 123 772 123 730 109 c 128,-1,30
 688 95 688 95 632 87 c 128,-1,31
 576 79 576 79 512 79 c 1,32,-1
 512 79 l 1,0,1
512 285 m 1,33,34
 448 285 448 285 392 293 c 128,-1,35
 336 301 336 301 294 315 c 128,-1,36
 252 329 252 329 227.5 347.5 c 128,-1,37
 203 366 203 366 203 387 c 0,38,39
 203 411 203 411 203 436.5 c 128,-1,40
 203 462 203 462 203 490 c 0,41,42
 203 494 203 494 204.5 498 c 128,-1,43
 206 502 206 502 208 506 c 1,44,-1
 208 506 l 1,45,46
 209 509 209 509 211 511.5 c 128,-1,47
 213 514 213 514 214 516 c 1,48,49
 227 499 227 499 255 485 c 128,-1,50
 283 471 283 471 322 461 c 128,-1,51
 361 451 361 451 409.5 445 c 128,-1,52
 458 439 458 439 512 439 c 256,53,54
 566 439 566 439 614.5 445 c 128,-1,55
 663 451 663 451 702 461 c 128,-1,56
 741 471 741 471 769 485 c 128,-1,57
 797 499 797 499 810 516 c 1,58,59
 811 514 811 514 813 511.5 c 128,-1,60
 815 509 815 509 816 506 c 1,61,-1
 816 506 l 1,62,63
 818 502 818 502 819.5 498 c 128,-1,64
 821 494 821 494 821 490 c 0,65,66
 821 468 821 468 821 443.5 c 128,-1,67
 821 419 821 419 821 387 c 0,68,69
 821 366 821 366 796.5 347.5 c 128,-1,70
 772 329 772 329 730 315 c 128,-1,71
 688 301 688 301 632 293 c 128,-1,72
 576 285 576 285 512 285 c 1,73,-1
 512 285 l 1,33,34
512 490 m 1,74,75
 448 490 448 490 392 498 c 128,-1,76
 336 506 336 506 294 520 c 128,-1,77
 252 534 252 534 227.5 553 c 128,-1,78
 203 572 203 572 203 593 c 0,79,80
 203 605 203 605 203 618 c 128,-1,81
 203 631 203 631 203 645 c 0,82,83
 203 657 203 657 203 669.5 c 128,-1,84
 203 682 203 682 203 696 c 0,85,86
 203 717 203 717 227.5 736 c 128,-1,87
 252 755 252 755 294 769 c 128,-1,88
 336 783 336 783 392 791 c 128,-1,89
 448 799 448 799 512 799 c 256,90,91
 576 799 576 799 632 791 c 128,-1,92
 688 783 688 783 730 769 c 128,-1,93
 772 755 772 755 796.5 736 c 128,-1,94
 821 717 821 717 821 696 c 0,95,96
 821 684 821 684 821 671 c 128,-1,97
 821 658 821 658 821 645 c 0,98,99
 821 633 821 633 821 620 c 128,-1,100
 821 607 821 607 821 593 c 0,101,102
 821 572 821 572 796.5 553 c 128,-1,103
 772 534 772 534 730 520 c 128,-1,104
 688 506 688 506 632 498 c 128,-1,105
 576 490 576 490 512 490 c 1,106,-1
 512 490 l 1,74,75
512 747 m 1,107,108
 427 747 427 747 366.5 732 c 128,-1,109
 306 717 306 717 306 696 c 256,110,111
 306 675 306 675 366.5 660 c 128,-1,112
 427 645 427 645 512 645 c 256,113,114
 597 645 597 645 657.5 660 c 128,-1,115
 718 675 718 675 718 696 c 256,116,117
 718 717 718 717 657.5 732 c 128,-1,118
 597 747 597 747 512 747 c 1,119,-1
 512 747 l 1,107,108
EndSplineSet
Validated: 5
EndChar

StartChar: uniE607
Encoding: 58887 58887 11
Width: 1024
Flags: W
LayerCount: 2
Fore
SplineSet
153 401 m 1,0,-1
 364 263 l 1,1,-1
 512 386 l 1,2,-1
 299 518 l 1,3,-1
 153 401 l 1,0,-1
364 772 m 1,4,-1
 153 635 l 1,5,-1
 299 518 l 1,6,-1
 512 649 l 1,7,-1
 364 772 l 1,4,-1
871 635 m 1,8,-1
 660 772 l 1,9,-1
 512 649 l 1,10,-1
 725 518 l 1,11,-1
 871 635 l 1,8,-1
512 386 m 1,12,-1
 660 263 l 1,13,-1
 871 401 l 1,14,-1
 725 518 l 1,15,-1
 512 386 l 1,12,-1
512 360 m 1,16,-1
 364 237 l 1,17,-1
 301 279 l 1,18,-1
 301 232 l 1,19,-1
 512 105 l 1,20,-1
 724 232 l 1,21,-1
 724 279 l 1,22,-1
 661 237 l 1,23,-1
 512 360 l 1,16,-1
EndSplineSet
Validated: 5
EndChar

StartChar: uniE608
Encoding: 58888 58888 12
Width: 1024
Flags: W
LayerCount: 2
Fore
SplineSet
637 389 m 1,0,1
 647 389 647 389 656 384 c 128,-1,2
 665 379 665 379 672 369 c 0,3,4
 680 358 680 358 683.5 345.5 c 128,-1,5
 687 333 687 333 687 319 c 0,6,7
 687 304 687 304 683.5 291.5 c 128,-1,8
 680 279 680 279 672 269 c 0,9,10
 665 258 665 258 656 253 c 128,-1,11
 647 248 647 248 637 248 c 0,12,13
 626 248 626 248 617 253 c 128,-1,14
 608 258 608 258 600 269 c 0,15,16
 593 279 593 279 589 291.5 c 128,-1,17
 585 304 585 304 585 319 c 0,18,19
 585 333 585 333 589 345.5 c 128,-1,20
 593 358 593 358 600 369 c 0,21,22
 608 379 608 379 617 384 c 128,-1,23
 626 389 626 389 637 389 c 1,24,-1
 637 389 l 1,0,1
814 572 m 1,25,26
 842 541 842 541 856.5 503 c 128,-1,27
 871 465 871 465 871 420 c 0,28,29
 871 391 871 391 868 365 c 128,-1,30
 865 339 865 339 858 316 c 0,31,32
 852 293 852 293 843.5 274.5 c 128,-1,33
 835 256 835 256 825 241 c 0,34,35
 814 227 814 227 802 214 c 128,-1,36
 790 201 790 201 775 191 c 0,37,38
 760 179 760 179 746 171.5 c 128,-1,39
 732 164 732 164 720 158 c 0,40,41
 707 153 707 153 693 149.5 c 128,-1,42
 679 146 679 146 663 143 c 256,43,44
 647 140 647 140 635 138.5 c 128,-1,45
 623 137 623 137 614 136 c 0,46,47
 606 136 606 136 597.5 136 c 128,-1,48
 589 136 589 136 579 136 c 0,49,50
 577 136 577 136 570 135.5 c 128,-1,51
 563 135 563 135 551 135 c 0,52,53
 539 134 539 134 529.5 134 c 128,-1,54
 520 134 520 134 512 134 c 256,55,56
 504 134 504 134 494.5 134 c 128,-1,57
 485 134 485 134 473 135 c 0,58,59
 461 135 461 135 454 135.5 c 128,-1,60
 447 136 447 136 445 136 c 0,61,62
 435 136 435 136 426.5 136 c 128,-1,63
 418 136 418 136 410 136 c 0,64,65
 401 137 401 137 389 138.5 c 128,-1,66
 377 140 377 140 361 143 c 0,67,68
 345 145 345 145 331 149 c 128,-1,69
 317 153 317 153 304 158 c 0,70,71
 292 163 292 163 278 171 c 128,-1,72
 264 179 264 179 249 191 c 0,73,74
 234 201 234 201 222 214 c 128,-1,75
 210 227 210 227 199 241 c 0,76,77
 189 256 189 256 180.5 274.5 c 128,-1,78
 172 293 172 293 166 316 c 0,79,80
 159 339 159 339 156 365 c 128,-1,81
 153 391 153 391 153 420 c 0,82,83
 153 465 153 465 167 503 c 128,-1,84
 181 541 181 541 210 572 c 1,85,86
 207 573 207 573 207 589 c 128,-1,87
 207 605 207 605 210 634 c 0,88,89
 212 664 212 664 218.5 691.5 c 128,-1,90
 225 719 225 719 235 744 c 1,91,92
 271 740 271 740 315.5 719.5 c 128,-1,93
 360 699 360 699 413 662 c 1,94,95
 431 667 431 667 456 669.5 c 128,-1,96
 481 672 481 672 512 672 c 0,97,98
 545 672 545 672 569.5 669.5 c 128,-1,99
 594 667 594 667 610 662 c 1,100,101
 635 679 635 679 658 692 c 128,-1,102
 681 705 681 705 703 716 c 0,103,104
 726 726 726 726 742 731.5 c 128,-1,105
 758 737 758 737 768 739 c 2,106,-1
 788 744 l 1,107,108
 799 719 799 719 805.5 691.5 c 128,-1,109
 812 664 812 664 814 634 c 0,110,111
 817 605 817 605 817 589 c 128,-1,112
 817 573 817 573 814 572 c 1,113,-1
 814 572 l 1,25,26
514 170 m 2,114,115
 579 170 579 170 627.5 178 c 128,-1,116
 676 186 676 186 710 201 c 0,117,118
 743 217 743 217 759.5 249 c 128,-1,119
 776 281 776 281 776 330 c 0,120,121
 776 358 776 358 765.5 381.5 c 128,-1,122
 755 405 755 405 734 423 c 0,123,124
 723 434 723 434 710.5 440 c 128,-1,125
 698 446 698 446 683 448 c 0,126,127
 669 451 669 451 647 451 c 128,-1,128
 625 451 625 451 595 448 c 0,129,130
 565 446 565 446 545 445 c 128,-1,131
 525 444 525 444 514 444 c 0,132,133
 499 444 499 444 482.5 444.5 c 128,-1,134
 466 445 466 445 446 447 c 0,135,136
 426 448 426 448 410 449 c 128,-1,137
 394 450 394 450 383 451 c 0,138,139
 372 451 372 451 359.5 449.5 c 128,-1,140
 347 448 347 448 334 445 c 256,141,142
 321 442 321 442 310 436.5 c 128,-1,143
 299 431 299 431 290 423 c 0,144,145
 270 405 270 405 259.5 382 c 128,-1,146
 249 359 249 359 249 330 c 0,147,148
 249 281 249 281 265.5 249 c 128,-1,149
 282 217 282 217 315 201 c 0,150,151
 348 186 348 186 396.5 178 c 128,-1,152
 445 170 445 170 510 170 c 2,153,-1
 514 170 l 2,114,115
389 389 m 1,154,155
 399 389 399 389 407.5 384 c 128,-1,156
 416 379 416 379 424 369 c 0,157,158
 431 358 431 358 435 345.5 c 128,-1,159
 439 333 439 333 439 319 c 0,160,161
 439 304 439 304 435 291.5 c 128,-1,162
 431 279 431 279 424 269 c 0,163,164
 416 258 416 258 407.5 253 c 128,-1,165
 399 248 399 248 389 248 c 0,166,167
 378 248 378 248 368.5 253 c 128,-1,168
 359 258 359 258 352 269 c 0,169,170
 344 279 344 279 340.5 291.5 c 128,-1,171
 337 304 337 304 337 319 c 0,172,173
 337 333 337 333 340.5 345.5 c 128,-1,174
 344 358 344 358 352 369 c 0,175,176
 359 379 359 379 368.5 384 c 128,-1,177
 378 389 378 389 389 389 c 1,178,-1
 389 389 l 1,154,155
EndSplineSet
Validated: 5
EndChar

StartChar: uniE609
Encoding: 58889 58889 13
Width: 1024
Flags: W
LayerCount: 2
Fore
SplineSet
512 789 m 1,0,1
 438 789 438 789 372.5 761 c 128,-1,2
 307 733 307 733 258 684 c 128,-1,3
 209 635 209 635 181 569.5 c 128,-1,4
 153 504 153 504 153 430 c 0,5,6
 153 371 153 371 171.5 317 c 128,-1,7
 190 263 190 263 222.5 218 c 128,-1,8
 255 173 255 173 300 140 c 128,-1,9
 345 107 345 107 399 89 c 0,10,11
 412 87 412 87 417.5 93.5 c 128,-1,12
 423 100 423 100 423 107 c 0,13,14
 423 113 423 113 423 132 c 128,-1,15
 423 151 423 151 423 173 c 1,16,17
 348 157 348 157 325 186.5 c 128,-1,18
 302 216 302 216 302 216 c 1,19,20
 289 247 289 247 275.5 257.5 c 128,-1,21
 262 268 262 268 262 268 c 2,22,23
 237 285 237 285 250.5 287.5 c 128,-1,24
 264 290 264 290 264 290 c 1,25,26
 291 288 291 288 305 270.5 c 128,-1,27
 319 253 319 253 319 253 c 1,28,29
 343 212 343 212 375.5 214 c 128,-1,30
 408 216 408 216 424 223 c 1,31,32
 426 241 426 241 432.5 253 c 128,-1,33
 439 265 439 265 446 271 c 1,34,35
 387 278 387 278 335 312 c 128,-1,36
 283 346 283 346 283 449 c 0,37,38
 283 478 283 478 293 502 c 128,-1,39
 303 526 303 526 320 545 c 1,40,41
 317 552 317 552 313 577.5 c 128,-1,42
 309 603 309 603 323 640 c 1,43,44
 323 640 323 640 347 639 c 128,-1,45
 371 638 371 638 422 603 c 1,46,47
 444 609 444 609 466.5 612 c 128,-1,48
 489 615 489 615 512 615 c 256,49,50
 535 615 535 615 557.5 612 c 128,-1,51
 580 609 580 609 602 603 c 1,52,53
 653 638 653 638 677 639 c 128,-1,54
 701 640 701 640 701 640 c 1,55,56
 715 603 715 603 711 577.5 c 128,-1,57
 707 552 707 552 704 545 c 1,58,59
 721 526 721 526 731 502 c 128,-1,60
 741 478 741 478 741 449 c 0,61,62
 741 345 741 345 689 311.5 c 128,-1,63
 637 278 637 278 577 272 c 1,64,65
 587 263 587 263 594 246.5 c 128,-1,66
 601 230 601 230 601 205 c 0,67,68
 601 169 601 169 601 142 c 128,-1,69
 601 115 601 115 601 107 c 256,70,71
 601 99 601 99 606.5 93 c 128,-1,72
 612 87 612 87 626 89 c 0,73,74
 679 107 679 107 724 140.5 c 128,-1,75
 769 174 769 174 801.5 218.5 c 128,-1,76
 834 263 834 263 852.5 317 c 128,-1,77
 871 371 871 371 871 430 c 0,78,79
 871 504 871 504 843 569.5 c 128,-1,80
 815 635 815 635 766 684 c 128,-1,81
 717 733 717 733 651.5 761 c 128,-1,82
 586 789 586 789 512 789 c 1,83,-1
 512 789 l 1,0,1
EndSplineSet
Validated: 37
EndChar

StartChar: uniE60A
Encoding: 58890 58890 14
Width: 1024
Flags: W
LayerCount: 2
Fore
SplineSet
512 82 m 1,0,1
 438 82 438 82 373 110 c 128,-1,2
 308 138 308 138 259.5 186.5 c 128,-1,3
 211 235 211 235 183 300 c 128,-1,4
 155 365 155 365 155 439 c 256,5,6
 155 513 155 513 183 578 c 128,-1,7
 211 643 211 643 259.5 691.5 c 128,-1,8
 308 740 308 740 373 768 c 128,-1,9
 438 796 438 796 512 796 c 256,10,11
 586 796 586 796 651 768 c 128,-1,12
 716 740 716 740 764.5 691.5 c 128,-1,13
 813 643 813 643 841 578 c 128,-1,14
 869 513 869 513 869 439 c 256,15,16
 869 365 869 365 841 300 c 128,-1,17
 813 235 813 235 764.5 186.5 c 128,-1,18
 716 138 716 138 651 110 c 128,-1,19
 586 82 586 82 512 82 c 1,20,-1
 512 82 l 1,0,1
512 717 m 1,21,22
 455 717 455 717 404 695 c 128,-1,23
 353 673 353 673 315.5 635 c 128,-1,24
 278 597 278 597 256 546.5 c 128,-1,25
 234 496 234 496 234 439 c 0,26,27
 234 381 234 381 256 330.5 c 128,-1,28
 278 280 278 280 315.5 242.5 c 128,-1,29
 353 205 353 205 404 183 c 128,-1,30
 455 161 455 161 512 161 c 256,31,32
 569 161 569 161 620 183 c 128,-1,33
 671 205 671 205 708.5 242.5 c 128,-1,34
 746 280 746 280 768 330.5 c 128,-1,35
 790 381 790 381 790 439 c 0,36,37
 790 496 790 496 768 546.5 c 128,-1,38
 746 597 746 597 708.5 635 c 128,-1,39
 671 673 671 673 620 695 c 128,-1,40
 569 717 569 717 512 717 c 1,41,-1
 512 717 l 1,21,22
574 414 m 1,42,43
 579 414 579 414 583.5 411.5 c 128,-1,44
 588 409 588 409 592 404 c 0,45,46
 595 399 595 399 597 392.5 c 128,-1,47
 599 386 599 386 599 379 c 256,48,49
 599 372 599 372 597 365.5 c 128,-1,50
 595 359 595 359 592 354 c 0,51,52
 588 349 588 349 583.5 346.5 c 128,-1,53
 579 344 579 344 574 344 c 256,54,55
 569 344 569 344 564 346.5 c 128,-1,56
 559 349 559 349 556 354 c 0,57,58
 552 359 552 359 550 365.5 c 128,-1,59
 548 372 548 372 548 379 c 0,60,61
 548 387 548 387 550 393 c 128,-1,62
 552 399 552 399 556 404 c 0,63,64
 559 409 559 409 564 411.5 c 128,-1,65
 569 414 569 414 574 414 c 1,66,-1
 574 414 l 1,42,43
662 505 m 1,67,68
 676 489 676 489 683 470.5 c 128,-1,69
 690 452 690 452 690 430 c 0,70,71
 690 415 690 415 688.5 402 c 128,-1,72
 687 389 687 389 684 378 c 256,73,74
 681 367 681 367 676.5 357.5 c 128,-1,75
 672 348 672 348 667 341 c 0,76,77
 662 333 662 333 656 327 c 128,-1,78
 650 321 650 321 642 316 c 0,79,80
 635 310 635 310 628 306 c 128,-1,81
 621 302 621 302 615 300 c 0,82,83
 609 297 609 297 602 295 c 128,-1,84
 595 293 595 293 587 292 c 0,85,86
 579 290 579 290 573 289.5 c 128,-1,87
 567 289 567 289 563 289 c 256,88,89
 559 289 559 289 554.5 288.5 c 128,-1,90
 550 288 550 288 545 288 c 0,91,92
 544 288 544 288 540.5 288 c 128,-1,93
 537 288 537 288 531 288 c 0,94,95
 526 288 526 288 521 287.5 c 128,-1,96
 516 287 516 287 512 287 c 256,97,98
 508 287 508 287 503 287.5 c 128,-1,99
 498 288 498 288 493 288 c 0,100,101
 487 288 487 288 483.5 288 c 128,-1,102
 480 288 480 288 479 288 c 0,103,104
 474 288 474 288 469.5 288 c 128,-1,105
 465 288 465 288 461 289 c 0,106,107
 457 289 457 289 451 289.5 c 128,-1,108
 445 290 445 290 437 292 c 0,109,110
 429 293 429 293 422 295 c 128,-1,111
 415 297 415 297 409 300 c 0,112,113
 403 302 403 302 396 306 c 128,-1,114
 389 310 389 310 382 316 c 0,115,116
 374 321 374 321 368 327.5 c 128,-1,117
 362 334 362 334 357 341 c 256,118,119
 352 348 352 348 347.5 357.5 c 128,-1,120
 343 367 343 367 340 378 c 256,121,122
 337 389 337 389 335 402 c 128,-1,123
 333 415 333 415 333 430 c 0,124,125
 333 452 333 452 340.5 470.5 c 128,-1,126
 348 489 348 489 362 505 c 0,127,128
 361 506 361 506 361 513.5 c 128,-1,129
 361 521 361 521 362 536 c 256,130,131
 363 551 363 551 366.5 564.5 c 128,-1,132
 370 578 370 578 375 590 c 1,133,134
 393 588 393 588 415 578 c 128,-1,135
 437 568 437 568 463 550 c 1,136,137
 472 552 472 552 484 553.5 c 128,-1,138
 496 555 496 555 512 555 c 256,139,140
 528 555 528 555 540.5 553.5 c 128,-1,141
 553 552 553 552 561 550 c 1,142,143
 573 558 573 558 584.5 564.5 c 128,-1,144
 596 571 596 571 607 576 c 256,145,146
 618 581 618 581 626 584 c 128,-1,147
 634 587 634 587 639 588 c 2,148,-1
 649 590 l 1,149,150
 654 578 654 578 657.5 564.5 c 128,-1,151
 661 551 661 551 662 536 c 256,152,153
 663 521 663 521 663 513.5 c 128,-1,154
 663 506 663 506 662 505 c 1,155,-1
 662 505 l 1,67,68
513 305 m 2,156,157
 545 305 545 305 569.5 309 c 128,-1,158
 594 313 594 313 610 321 c 0,159,160
 627 329 627 329 635 344.5 c 128,-1,161
 643 360 643 360 643 385 c 0,162,163
 643 398 643 398 638 410 c 128,-1,164
 633 422 633 422 622 431 c 0,165,166
 617 436 617 436 610.5 439 c 128,-1,167
 604 442 604 442 597 444 c 0,168,169
 590 445 590 445 579 445 c 128,-1,170
 568 445 568 445 553 444 c 0,171,172
 538 442 538 442 528 441.5 c 128,-1,173
 518 441 518 441 513 441 c 0,174,175
 505 441 505 441 497 441.5 c 128,-1,176
 489 442 489 442 479 443 c 256,177,178
 469 444 469 444 461.5 444 c 128,-1,179
 454 444 454 444 448 445 c 0,180,181
 442 445 442 445 436 444.5 c 128,-1,182
 430 444 430 444 424 442 c 0,183,184
 417 440 417 440 411.5 437.5 c 128,-1,185
 406 435 406 435 402 431 c 0,186,187
 392 422 392 422 387 410.5 c 128,-1,188
 382 399 382 399 382 385 c 0,189,190
 382 361 382 361 390 345 c 128,-1,191
 398 329 398 329 414 321 c 256,192,193
 430 313 430 313 454.5 309 c 128,-1,194
 479 305 479 305 511 305 c 2,195,-1
 513 305 l 2,156,157
451 414 m 1,196,197
 456 414 456 414 460 411.5 c 128,-1,198
 464 409 464 409 468 404 c 256,199,200
 472 399 472 399 474 392.5 c 128,-1,201
 476 386 476 386 476 379 c 256,202,203
 476 372 476 372 474 365.5 c 128,-1,204
 472 359 472 359 468 354 c 256,205,206
 464 349 464 349 460 346.5 c 128,-1,207
 456 344 456 344 451 344 c 0,208,209
 445 344 445 344 440.5 346.5 c 128,-1,210
 436 349 436 349 432 354 c 0,211,212
 429 359 429 359 427 365.5 c 128,-1,213
 425 372 425 372 425 379 c 0,214,215
 425 387 425 387 427 393 c 128,-1,216
 429 399 429 399 432 404 c 0,217,218
 436 409 436 409 440.5 411.5 c 128,-1,219
 445 414 445 414 451 414 c 1,220,-1
 451 414 l 1,196,197
EndSplineSet
Validated: 5
EndChar

StartChar: uniE60B
Encoding: 58891 58891 15
Width: 1024
Flags: W
LayerCount: 2
Fore
SplineSet
150 439 m 1,0,1
 150 386 150 386 165 336.5 c 128,-1,2
 180 287 180 287 206.5 245 c 128,-1,3
 233 203 233 203 270.5 169.5 c 128,-1,4
 308 136 308 136 354 114 c 1,5,-1
 181 587 l 1,6,7
 166 553 166 553 158 516 c 128,-1,8
 150 479 150 479 150 439 c 1,9,-1
 150 439 l 1,0,1
756 458 m 1,10,11
 756 491 756 491 746 515 c 128,-1,12
 736 539 736 539 726 557 c 0,13,14
 712 580 712 580 701 600 c 128,-1,15
 690 620 690 620 690 642 c 0,16,17
 690 667 690 667 707 686.5 c 128,-1,18
 724 706 724 706 751 706 c 0,19,20
 752 706 752 706 753.5 706 c 128,-1,21
 755 706 755 706 756 706 c 1,22,23
 708 750 708 750 645 775.5 c 128,-1,24
 582 801 582 801 512 801 c 0,25,26
 464 801 464 801 420 789.5 c 128,-1,27
 376 778 376 778 337.5 756.5 c 128,-1,28
 299 735 299 735 266.5 705 c 128,-1,29
 234 675 234 675 209 638 c 1,30,31
 216 638 216 638 221.5 638 c 128,-1,32
 227 638 227 638 233 638 c 0,33,34
 261 638 261 638 295 640 c 128,-1,35
 329 642 329 642 329 642 c 2,36,37
 344 643 344 643 345 628.5 c 128,-1,38
 346 614 346 614 331 612 c 2,39,40
 331 612 331 612 318.5 611 c 128,-1,41
 306 610 306 610 290 609 c 1,42,-1
 422 217 l 1,43,-1
 501 455 l 1,44,-1
 444 609 l 1,45,46
 430 610 430 610 418 611 c 128,-1,47
 406 612 406 612 406 612 c 2,48,49
 392 613 392 613 393 628 c 128,-1,50
 394 643 394 643 409 642 c 2,51,52
 409 642 409 642 443 640 c 128,-1,53
 477 638 477 638 504 638 c 0,54,55
 532 638 532 638 566 640 c 128,-1,56
 600 642 600 642 600 642 c 2,57,58
 615 643 615 643 616 628.5 c 128,-1,59
 617 614 617 614 603 612 c 2,60,61
 603 612 603 612 590.5 611 c 128,-1,62
 578 610 578 610 561 609 c 1,63,-1
 692 220 l 1,64,-1
 728 341 l 2,65,66
 742 376 742 376 749 405 c 128,-1,67
 756 434 756 434 756 458 c 1,68,-1
 756 458 l 1,10,11
518 408 m 1,69,-1
 409 92 l 1,70,71
 434 85 434 85 459.5 81.5 c 128,-1,72
 485 78 485 78 512 78 c 0,73,74
 543 78 543 78 573 83 c 128,-1,75
 603 88 603 88 632 98 c 1,76,77
 631 99 631 99 630.5 100.5 c 128,-1,78
 630 102 630 102 629 103 c 2,79,-1
 518 408 l 1,80,-1
 518 408 l 1,69,-1
829 613 m 1,81,82
 830 604 830 604 830.5 595 c 128,-1,83
 831 586 831 586 831 576 c 0,84,85
 831 548 831 548 825 516.5 c 128,-1,86
 819 485 819 485 804 446 c 2,87,-1
 693 127 l 1,88,89
 734 150 734 150 767 183 c 128,-1,90
 800 216 800 216 823.5 256.5 c 128,-1,91
 847 297 847 297 860 343 c 128,-1,92
 873 389 873 389 873 439 c 0,93,94
 873 487 873 487 861.5 530.5 c 128,-1,95
 850 574 850 574 829 613 c 1,96,-1
 829 613 l 1,81,82
EndSplineSet
Validated: 5
EndChar

StartChar: uniE60C
Encoding: 58892 58892 16
Width: 1024
Flags: W
LayerCount: 2
Fore
SplineSet
554 659 m 1,0,1
 496 600 496 600 452.5 558.5 c 128,-1,2
 409 517 409 517 407 517 c 256,3,4
 405 517 405 517 377 537.5 c 128,-1,5
 349 558 349 558 312 587 c 2,6,-1
 223 657 l 1,7,-1
 151 620 l 1,8,-1
 151 258 l 1,9,-1
 223 222 l 1,10,-1
 306 286 l 2,11,12
 340 313 340 313 367.5 334 c 128,-1,13
 395 355 395 355 399 357 c 0,14,15
 407 362 407 362 430 341.5 c 128,-1,16
 453 321 453 321 554 221 c 2,17,-1
 697 77 l 1,18,-1
 785 113 l 1,19,-1
 873 148 l 1,20,-1
 873 730 l 1,21,-1
 806 757 l 2,22,23
 778 768 778 768 752 778.5 c 128,-1,24
 726 789 726 789 717 792 c 2,25,-1
 696 801 l 1,26,-1
 554 659 l 1,27,-1
 554 659 l 1,0,1
695 439 m 1,28,29
 695 379 695 379 694 336.5 c 128,-1,30
 693 294 693 294 691 294 c 256,31,32
 689 294 689 294 660 316.5 c 128,-1,33
 631 339 631 339 597.5 366 c 128,-1,34
 564 393 564 393 536.5 416 c 128,-1,35
 509 439 509 439 510 441 c 0,36,37
 510 443 510 443 537.5 465.5 c 128,-1,38
 565 488 565 488 598.5 514.5 c 128,-1,39
 632 541 632 541 660.5 562.5 c 128,-1,40
 689 584 689 584 691 584 c 256,41,42
 693 584 693 584 694 541.5 c 128,-1,43
 695 499 695 499 695 439 c 1,44,-1
 695 439 l 1,28,29
283 491 m 1,45,-1
 335 439 l 1,46,-1
 283 387 l 2,47,48
 261 366 261 366 245 351 c 128,-1,49
 229 336 229 336 227 336 c 256,50,51
 225 336 225 336 224 366 c 128,-1,52
 223 396 223 396 223 439 c 256,53,54
 223 482 223 482 224 512.5 c 128,-1,55
 225 543 225 543 227 543 c 256,56,57
 229 543 229 543 245 527.5 c 128,-1,58
 261 512 261 512 283 491 c 1,59,-1
 283 491 l 1,45,-1
EndSplineSet
Validated: 37
EndChar

StartChar: uniE60D
Encoding: 58893 58893 17
Width: 1024
Flags: W
LayerCount: 2
Fore
SplineSet
394 151 m 1,0,1
 392 127 392 127 403.5 110 c 128,-1,2
 415 93 415 93 438 86 c 0,3,4
 457 81 457 81 476.5 89 c 128,-1,5
 496 97 496 97 505 114 c 0,6,7
 508 119 508 119 534.5 188 c 128,-1,8
 561 257 561 257 596 349 c 0,9,10
 655 505 655 505 670 541 c 128,-1,11
 685 577 685 577 693 585 c 0,12,13
 698 591 698 591 701.5 595.5 c 128,-1,14
 705 600 705 600 705 601 c 256,15,16
 705 602 705 602 701.5 606.5 c 128,-1,17
 698 611 698 611 693 616 c 0,18,19
 672 635 672 635 632 647.5 c 128,-1,20
 592 660 592 660 571 654 c 0,21,22
 568 654 568 654 567 650 c 128,-1,23
 566 646 566 646 566 636 c 0,24,25
 566 622 566 622 562 609 c 128,-1,26
 558 596 558 596 545 561 c 0,27,28
 541 551 541 551 535.5 536 c 128,-1,29
 530 521 530 521 526 510 c 0,30,31
 522 498 522 498 517 484.5 c 128,-1,32
 512 471 512 471 508 463 c 0,33,34
 504 454 504 454 497.5 437.5 c 128,-1,35
 491 421 491 421 486 406 c 0,36,37
 480 391 480 391 470.5 366.5 c 128,-1,38
 461 342 461 342 454 322 c 0,39,40
 446 302 446 302 439 285.5 c 128,-1,41
 432 269 432 269 429 266 c 2,42,-1
 394 151 l 1,0,1
640 636 m 1,43,44
 663 627 663 627 673 617 c 128,-1,45
 683 607 683 607 674 603 c 0,46,47
 665 600 665 600 634.5 611 c 128,-1,48
 604 622 604 622 593 632 c 0,49,50
 589 636 589 636 588.5 638.5 c 128,-1,51
 588 641 588 641 590 644 c 0,52,53
 594 648 594 648 608 646 c 128,-1,54
 622 644 622 644 640 636 c 1,55,-1
 640 636 l 1,43,44
590 598 m 1,56,57
 598 589 598 589 613.5 583.5 c 128,-1,58
 629 578 629 578 647 577 c 0,59,60
 656 577 656 577 662.5 576.5 c 128,-1,61
 669 576 669 576 669 575 c 2,62,63
 669 575 669 575 667.5 572.5 c 128,-1,64
 666 570 666 570 664 568 c 0,65,66
 663 565 663 565 656 549 c 128,-1,67
 649 533 649 533 642 513 c 0,68,69
 630 483 630 483 624.5 472.5 c 128,-1,70
 619 462 619 462 611 454 c 0,71,72
 599 443 599 443 581 433 c 128,-1,73
 563 423 563 423 549 420 c 0,74,75
 543 418 543 418 534.5 415.5 c 128,-1,76
 526 413 526 413 521 410 c 0,77,78
 515 408 515 408 510.5 406.5 c 128,-1,79
 506 405 506 405 505 405 c 0,80,81
 503 405 503 405 510.5 427 c 128,-1,82
 518 449 518 449 540 505 c 0,83,84
 547 523 547 523 555 544.5 c 128,-1,85
 563 566 563 566 568 577 c 0,86,87
 572 589 572 589 576 597 c 128,-1,88
 580 605 580 605 581 605 c 256,89,90
 582 605 582 605 584.5 603 c 128,-1,91
 587 601 587 601 590 598 c 1,92,-1
 590 598 l 1,56,57
616 445 m 1,93,94
 616 444 616 444 597.5 396 c 128,-1,95
 579 348 579 348 554 282 c 0,96,97
 513 175 513 175 501 146.5 c 128,-1,98
 489 118 489 118 482 112 c 0,99,100
 478 108 478 108 473.5 105 c 128,-1,101
 469 102 469 102 467 102 c 0,102,103
 464 102 464 102 465 103 c 128,-1,104
 466 104 466 104 470 105 c 0,105,106
 473 107 473 107 475.5 109 c 128,-1,107
 478 111 478 111 478 114 c 0,108,109
 478 116 478 116 478.5 118 c 128,-1,110
 479 120 479 120 481 121 c 0,111,112
 482 122 482 122 483.5 125.5 c 128,-1,113
 485 129 485 129 486 133 c 0,114,115
 486 137 486 137 487.5 141 c 128,-1,116
 489 145 489 145 490 147 c 0,117,118
 493 153 493 153 500.5 172.5 c 128,-1,119
 508 192 508 192 508 194 c 0,120,121
 508 195 508 195 509.5 198.5 c 128,-1,122
 511 202 511 202 512 206 c 0,123,124
 514 210 514 210 519 222.5 c 128,-1,125
 524 235 524 235 529 249 c 0,126,127
 535 263 535 263 540.5 277.5 c 128,-1,128
 546 292 546 292 548 299 c 0,129,130
 551 306 551 306 553.5 311.5 c 128,-1,131
 556 317 556 317 557 318 c 0,132,133
 558 320 558 320 559 322.5 c 128,-1,134
 560 325 560 325 560 327 c 256,135,136
 560 329 560 329 561 334 c 128,-1,137
 562 339 562 339 564 343 c 0,138,139
 571 358 571 358 575 367.5 c 128,-1,140
 579 377 579 377 582 388 c 0,141,142
 585 395 585 395 587 400.5 c 128,-1,143
 589 406 589 406 590 409 c 0,144,145
 593 413 593 413 593 418 c 128,-1,146
 593 423 593 423 592 423 c 256,147,148
 591 423 591 423 588 421.5 c 128,-1,149
 585 420 585 420 582 418 c 0,150,151
 576 415 576 415 576 415.5 c 128,-1,152
 576 416 576 416 582 420 c 0,153,154
 586 423 586 423 592 428 c 128,-1,155
 598 433 598 433 602 437 c 0,156,157
 609 444 609 444 614 446.5 c 128,-1,158
 619 449 619 449 616 445 c 1,159,-1
 616 445 l 1,93,94
532 402 m 1,160,161
 532 401 532 401 531 400 c 128,-1,162
 530 399 530 399 528 399 c 0,163,164
 523 399 523 399 518 387.5 c 128,-1,165
 513 376 513 376 513 366 c 0,166,167
 514 362 514 362 513 359 c 128,-1,168
 512 356 512 356 511 356 c 0,169,170
 507 356 507 356 501 341.5 c 128,-1,171
 495 327 495 327 494 315 c 0,172,173
 493 305 493 305 493.5 301.5 c 128,-1,174
 494 298 494 298 498 296 c 0,175,176
 504 293 504 293 505.5 286.5 c 128,-1,177
 507 280 507 280 503 275 c 0,178,179
 500 270 500 270 492.5 269 c 128,-1,180
 485 268 485 268 482 271 c 0,181,182
 479 277 479 277 477 274 c 128,-1,183
 475 271 475 271 476 263 c 256,184,185
 477 255 477 255 476.5 252.5 c 128,-1,186
 476 250 476 250 471 248 c 0,187,188
 467 246 467 246 464 241.5 c 128,-1,189
 461 237 461 237 458 230 c 0,190,191
 450 208 450 208 443 190 c 128,-1,192
 436 172 436 172 432 161 c 0,193,194
 430 155 430 155 427.5 146 c 128,-1,195
 425 137 425 137 424 131 c 0,196,197
 423 122 423 122 424 118 c 128,-1,198
 425 114 425 114 430 109 c 2,199,-1
 437 100 l 1,200,-1
 427 107 l 2,201,202
 420 112 420 112 412.5 125 c 128,-1,203
 405 138 405 138 405 147 c 0,204,205
 405 149 405 149 411 166.5 c 128,-1,206
 417 184 417 184 425 206 c 256,207,208
 433 228 433 228 438.5 245 c 128,-1,209
 444 262 444 262 444 263 c 0,210,211
 444 265 444 265 450.5 272.5 c 128,-1,212
 457 280 457 280 466 289 c 256,213,214
 475 298 475 298 480.5 304.5 c 128,-1,215
 486 311 486 311 484 311 c 256,216,217
 482 311 482 311 478 308 c 128,-1,218
 474 305 474 305 470 301 c 256,219,220
 466 297 466 297 463 295.5 c 128,-1,221
 460 294 460 294 460 295 c 0,222,223
 460 302 460 302 475 337.5 c 128,-1,224
 490 373 490 373 495 379 c 0,225,226
 500 384 500 384 514.5 394.5 c 128,-1,227
 529 405 529 405 532 405 c 2,228,229
 532 405 532 405 532 404 c 128,-1,230
 532 403 532 403 532 402 c 1,231,-1
 532 402 l 1,160,161
EndSplineSet
Validated: 37
EndChar

StartChar: uniE60E
Encoding: 58894 58894 18
Width: 1024
Flags: W
LayerCount: 2
Fore
SplineSet
218 311 m 1,0,1
 218 281 218 281 200 260 c 128,-1,2
 182 239 182 239 157 239 c 256,3,4
 132 239 132 239 114 260 c 128,-1,5
 96 281 96 281 96 311 c 2,6,-1
 96 545 l 2,7,8
 96 575 96 575 114 596 c 128,-1,9
 132 617 132 617 157 617 c 256,10,11
 182 617 182 617 200 596 c 128,-1,12
 218 575 218 575 218 545 c 2,13,-1
 218 311 l 1,14,-1
 218 311 l 1,0,1
928 311 m 1,15,16
 928 281 928 281 910 260 c 128,-1,17
 892 239 892 239 867 239 c 256,18,19
 842 239 842 239 824 260 c 128,-1,20
 806 281 806 281 806 311 c 2,21,-1
 806 545 l 2,22,23
 806 575 806 575 824 596 c 128,-1,24
 842 617 842 617 867 617 c 256,25,26
 892 617 892 617 910 596 c 128,-1,27
 928 575 928 575 928 545 c 2,28,-1
 928 311 l 1,29,-1
 928 311 l 1,15,16
645 843 m 1,30,-1
 684 913 l 2,31,32
 687 918 687 918 686.5 922 c 128,-1,33
 686 926 686 926 682 928 c 0,34,35
 679 930 679 930 675 928 c 128,-1,36
 671 926 671 926 669 922 c 2,37,-1
 629 850 l 1,38,39
 602 861 602 861 572 866.5 c 128,-1,40
 542 872 542 872 511 872 c 0,41,42
 479 872 479 872 449 866.5 c 128,-1,43
 419 861 419 861 392 850 c 1,44,-1
 352 922 l 2,45,46
 349 926 349 926 345 928 c 128,-1,47
 341 930 341 930 338 928 c 256,48,49
 335 926 335 926 334.5 922 c 128,-1,50
 334 918 334 918 336 913 c 2,51,-1
 375 843 l 1,52,53
 314 814 314 814 276 763 c 128,-1,54
 238 712 238 712 238 650 c 0,55,56
 238 643 238 643 238.5 637 c 128,-1,57
 239 631 239 631 240 625 c 1,58,-1
 781 625 l 1,59,60
 782 631 782 631 782.5 637 c 128,-1,61
 783 643 783 643 783 650 c 0,62,63
 783 712 783 712 745 763 c 128,-1,64
 707 814 707 814 645 843 c 1,65,-1
 645 843 l 1,30,-1
387 721 m 1,66,67
 377 721 377 721 370 728 c 128,-1,68
 363 735 363 735 363 745 c 0,69,70
 363 754 363 754 370 761 c 128,-1,71
 377 768 377 768 387 768 c 256,72,73
 397 768 397 768 404 761 c 128,-1,74
 411 754 411 754 411 745 c 0,75,76
 411 735 411 735 404 728 c 128,-1,77
 397 721 397 721 387 721 c 1,78,-1
 387 721 l 1,66,67
636 721 m 1,79,80
 626 721 626 721 619 728 c 128,-1,81
 612 735 612 735 612 745 c 0,82,83
 612 754 612 754 619 761 c 128,-1,84
 626 768 626 768 636 768 c 0,85,86
 645 768 645 768 652 761 c 128,-1,87
 659 754 659 754 659 745 c 0,88,89
 659 735 659 735 652 728 c 128,-1,90
 645 721 645 721 636 721 c 1,91,-1
 636 721 l 1,79,80
238 601 m 1,92,-1
 238 202 l 1,93,-1
 239 202 l 1,94,95
 241 177 241 177 261.5 159.5 c 128,-1,96
 282 142 282 142 310 142 c 2,97,-1
 711 142 l 2,98,99
 739 142 739 142 760 159.5 c 128,-1,100
 781 177 781 177 783 202 c 1,101,-1
 783 202 l 1,102,-1
 783 601 l 1,103,-1
 238 601 l 1,104,-1
 238 601 l 1,92,-1
472 144 m 1,105,-1
 472 20 l 2,106,107
 472 -9 472 -9 454 -30 c 128,-1,108
 436 -51 436 -51 411 -51 c 256,109,110
 386 -51 386 -51 368 -30 c 128,-1,111
 350 -9 350 -9 350 20 c 2,112,-1
 350 144 l 1,113,-1
 472 144 l 1,105,-1
675 144 m 1,114,-1
 675 20 l 2,115,116
 675 -9 675 -9 657 -30 c 128,-1,117
 639 -51 639 -51 614 -51 c 256,118,119
 589 -51 589 -51 571 -30 c 128,-1,120
 553 -9 553 -9 553 20 c 2,121,-1
 553 144 l 1,122,-1
 675 144 l 1,114,-1
EndSplineSet
Validated: 5
EndChar

StartChar: uniE60F
Encoding: 58895 58895 19
Width: 1024
Flags: W
LayerCount: 2
Fore
SplineSet
442 456 m 1,0,-1
 153 456 l 1,1,-1
 153 704 l 1,2,-1
 442 745 l 1,3,-1
 442 456 l 1,0,-1
871 456 m 1,4,-1
 481 456 l 1,5,-1
 481 750 l 1,6,-1
 871 807 l 1,7,-1
 871 456 l 1,4,-1
442 422 m 1,8,-1
 153 422 l 1,9,-1
 153 174 l 1,10,-1
 442 133 l 1,11,-1
 442 422 l 1,8,-1
871 422 m 1,12,-1
 481 422 l 1,13,-1
 481 128 l 1,14,-1
 871 71 l 1,15,-1
 871 422 l 1,12,-1
EndSplineSet
Validated: 9
EndChar

StartChar: uniE610
Encoding: 58896 58896 20
Width: 1024
Flags: W
LayerCount: 2
Fore
SplineSet
195 197 m 1,0,-1
 195 27 l 1,1,-1
 731 27 l 1,2,-1
 731 369 l 1,3,-1
 703 365 l 1,4,-1
 674 362 l 1,5,-1
 671 221 l 1,6,-1
 668 79 l 1,7,-1
 246 79 l 1,8,-1
 246 368 l 1,9,-1
 195 368 l 1,10,-1
 195 197 l 1,11,-1
 195 197 l 1,0,-1
287 171 m 1,12,-1
 287 141 l 1,13,-1
 618 141 l 1,14,-1
 618 202 l 1,15,-1
 287 202 l 1,16,-1
 287 171 l 1,17,-1
 287 171 l 1,12,-1
292 293 m 1,18,-1
 289 263 l 1,19,-1
 617 227 l 1,20,-1
 624 288 l 1,21,-1
 296 324 l 1,22,-1
 292 293 l 1,23,-1
 292 293 l 1,18,-1
317 439 m 1,24,-1
 309 409 l 1,25,-1
 628 323 l 1,26,-1
 644 383 l 1,27,-1
 325 469 l 1,28,-1
 317 439 l 1,29,-1
 317 439 l 1,24,-1
385 609 m 1,30,-1
 368 583 l 1,31,-1
 648 407 l 1,32,-1
 681 459 l 1,33,-1
 401 635 l 1,34,-1
 385 609 l 1,35,-1
 385 609 l 1,30,-1
543 767 m 1,36,-1
 517 749 l 1,37,-1
 705 477 l 1,38,-1
 756 512 l 1,39,-1
 568 784 l 1,40,-1
 543 767 l 1,41,-1
 543 767 l 1,36,-1
749 846 m 1,42,-1
 719 841 l 1,43,-1
 779 516 l 1,44,-1
 840 528 l 1,45,-1
 780 852 l 1,46,-1
 749 846 l 1,47,-1
 749 846 l 1,42,-1
EndSplineSet
Validated: 5
EndChar

StartChar: uniE611
Encoding: 58897 58897 21
Width: 1024
Flags: W
LayerCount: 2
Fore
SplineSet
737 413 m 1,0,1
 736 491 736 491 779.5 529.5 c 128,-1,2
 823 568 823 568 826 570 c 1,3,4
 789 623 789 623 742 637 c 128,-1,5
 695 651 695 651 675 651 c 0,6,7
 627 656 627 656 584.5 635 c 128,-1,8
 542 614 542 614 517 614 c 0,9,10
 493 614 493 614 457 632 c 128,-1,11
 421 650 421 650 382 650 c 0,12,13
 329 649 329 649 283.5 621 c 128,-1,14
 238 593 238 593 211 546 c 256,15,16
 184 499 184 499 179 442.5 c 128,-1,17
 174 386 174 386 184 330 c 128,-1,18
 194 274 194 274 215.5 222 c 128,-1,19
 237 170 237 170 263 131 c 0,20,21
 289 94 289 94 321 60 c 128,-1,22
 353 26 353 26 393 27 c 0,23,24
 433 29 433 29 457 45 c 128,-1,25
 481 61 481 61 528 61 c 0,26,27
 576 61 576 61 599.5 44.5 c 128,-1,28
 623 28 623 28 664 28 c 0,29,30
 706 29 706 29 735 60.5 c 128,-1,31
 764 92 764 92 790 129 c 0,32,33
 820 173 820 173 833 208.5 c 128,-1,34
 846 244 846 244 847 247 c 1,35,36
 846 247 846 247 792 283.5 c 128,-1,37
 738 320 738 320 737 413 c 1,38,-1
 737 413 l 1,0,1
633 719 m 1,39,40
 655 745 655 745 667.5 779.5 c 128,-1,41
 680 814 680 814 676 850 c 1,42,43
 645 849 645 849 611 831.5 c 128,-1,44
 577 814 577 814 555 788 c 0,45,46
 535 765 535 765 520.5 730.5 c 128,-1,47
 506 696 506 696 511 661 c 1,48,49
 546 658 546 658 578.5 675.5 c 128,-1,50
 611 693 611 693 633 719 c 1,51,-1
 633 719 l 1,39,40
EndSplineSet
Validated: 41
EndChar

StartChar: uniE612
Encoding: 58898 58898 22
Width: 1024
Flags: W
LayerCount: 2
Fore
SplineSet
497 691 m 1,0,1
 497 688 497 688 495.5 688 c 128,-1,2
 494 688 494 688 494 688 c 1,3,-1
 491 688 l 2,4,5
 488 688 488 688 487 690 c 128,-1,6
 486 692 486 692 484 694 c 2,7,8
 484 694 484 694 482.5 696 c 128,-1,9
 481 698 481 698 481 701 c 0,10,11
 481 703 481 703 481.5 703.5 c 128,-1,12
 482 704 482 704 484 704 c 2,13,-1
 491 701 l 2,14,15
 493 698 493 698 495 695.5 c 128,-1,16
 497 693 497 693 497 691 c 1,17,-1
 497 691 l 1,0,1
438 723 m 1,18,19
 438 736 438 736 433.5 743 c 128,-1,20
 429 750 429 750 422 750 c 1,21,22
 422 750 422 750 421.5 748 c 128,-1,23
 421 746 421 746 419 746 c 2,24,-1
 419 740 l 1,25,-1
 429 740 l 1,26,27
 429 735 429 735 430.5 731.5 c 128,-1,28
 432 728 432 728 432 723 c 1,29,-1
 438 723 l 1,30,-1
 438 723 l 1,18,19
553 740 m 1,31,32
 557 740 557 740 560 735.5 c 128,-1,33
 563 731 563 731 566 723 c 1,34,-1
 572 723 l 2,35,36
 570 726 570 726 569.5 728.5 c 128,-1,37
 569 731 569 731 569 733 c 0,38,39
 569 736 569 736 568.5 738.5 c 128,-1,40
 568 741 568 741 566 743 c 0,41,42
 563 746 563 746 560.5 748 c 128,-1,43
 558 750 558 750 556 750 c 2,44,45
 556 750 556 750 554 748 c 128,-1,46
 552 746 552 746 549 746 c 1,47,48
 549 744 549 744 551 743 c 128,-1,49
 553 742 553 742 553 740 c 1,50,-1
 553 740 l 1,31,32
455 688 m 1,51,52
 452 688 452 688 451.5 688 c 128,-1,53
 451 688 451 688 451 691 c 0,54,55
 451 693 451 693 451.5 695.5 c 128,-1,56
 452 698 452 698 455 701 c 0,57,58
 460 701 460 701 462 702.5 c 128,-1,59
 464 704 464 704 464 704 c 2,60,61
 467 704 467 704 467.5 702.5 c 128,-1,62
 468 701 468 701 468 701 c 2,63,64
 468 698 468 698 465.5 695 c 128,-1,65
 463 692 463 692 458 688 c 1,66,-1
 455 688 l 1,67,-1
 455 688 l 1,51,52
419 691 m 1,68,69
 409 696 409 696 405.5 703.5 c 128,-1,70
 402 711 402 711 402 723 c 0,71,72
 402 731 402 731 403 736 c 128,-1,73
 404 741 404 741 409 746 c 0,74,75
 411 751 411 751 415.5 753.5 c 128,-1,76
 420 756 420 756 425 756 c 256,77,78
 430 756 430 756 433.5 753.5 c 128,-1,79
 437 751 437 751 442 746 c 0,80,81
 444 739 444 739 446 731.5 c 128,-1,82
 448 724 448 724 448 717 c 2,83,-1
 448 710 l 1,84,-1
 451 710 l 1,85,-1
 451 714 l 2,86,87
 454 714 454 714 454.5 718.5 c 128,-1,88
 455 723 455 723 455 733 c 0,89,90
 455 741 455 741 454 748 c 128,-1,91
 453 755 453 755 448 763 c 0,92,93
 443 770 443 770 437.5 774.5 c 128,-1,94
 432 779 432 779 422 779 c 0,95,96
 415 779 415 779 408.5 774.5 c 128,-1,97
 402 770 402 770 399 763 c 0,98,99
 394 753 394 753 392.5 744.5 c 128,-1,100
 391 736 391 736 391 723 c 0,101,102
 391 714 391 714 395 704 c 128,-1,103
 399 694 399 694 409 684 c 1,104,105
 411 687 411 687 413.5 687.5 c 128,-1,106
 416 688 416 688 419 691 c 1,107,-1
 419 691 l 1,68,69
827 231 m 1,108,109
 829 231 829 231 829.5 232 c 128,-1,110
 830 233 830 233 830 235 c 0,111,112
 830 240 830 240 827 246.5 c 128,-1,113
 824 253 824 253 817 260 c 256,114,115
 810 267 810 267 798 272 c 128,-1,116
 786 277 786 277 771 279 c 0,117,118
 769 279 769 279 767 279 c 128,-1,119
 765 279 765 279 765 279 c 2,120,121
 762 279 762 279 761.5 279.5 c 128,-1,122
 761 280 761 280 758 280 c 0,123,124
 756 280 756 280 752 280.5 c 128,-1,125
 748 281 748 281 745 281 c 1,126,127
 752 304 752 304 755 324 c 128,-1,128
 758 344 758 344 758 362 c 0,129,130
 758 386 758 386 753 404 c 128,-1,131
 748 422 748 422 739 437 c 0,132,133
 729 452 729 452 718.5 459.5 c 128,-1,134
 708 467 708 467 696 470 c 0,135,136
 694 467 694 467 693.5 466.5 c 128,-1,137
 693 466 693 466 693 463 c 0,138,139
 705 458 705 458 716.5 448.5 c 128,-1,140
 728 439 728 439 735 424 c 0,141,142
 743 407 743 407 745.5 391.5 c 128,-1,143
 748 376 748 376 748 359 c 0,144,145
 748 345 748 345 745 325 c 128,-1,146
 742 305 742 305 732 279 c 1,147,148
 722 275 722 275 713 266 c 128,-1,149
 704 257 704 257 696 242 c 0,150,151
 696 240 696 240 696.5 239 c 128,-1,152
 697 238 697 238 699 238 c 2,153,154
 699 238 699 238 701.5 240 c 128,-1,155
 704 242 704 242 706 246 c 0,156,157
 711 251 711 251 714 255 c 128,-1,158
 717 259 717 259 722 263 c 0,159,160
 730 267 730 267 735.5 269 c 128,-1,161
 741 271 741 271 748 271 c 0,162,163
 761 271 761 271 772 269.5 c 128,-1,164
 783 268 783 268 791 265 c 0,165,166
 801 261 801 261 806 258 c 128,-1,167
 811 255 811 255 814 251 c 0,168,169
 816 247 816 247 818.5 243.5 c 128,-1,170
 821 240 821 240 823 237 c 0,171,172
 823 234 823 234 825 232.5 c 128,-1,173
 827 231 827 231 827 231 c 1,174,-1
 827 231 l 1,108,109
526 704 m 1,175,176
 524 706 524 706 523.5 710.5 c 128,-1,177
 523 715 523 715 523 720 c 0,178,179
 523 730 523 730 524 736 c 128,-1,180
 525 742 525 742 530 750 c 0,181,182
 535 754 535 754 539.5 756.5 c 128,-1,183
 544 759 544 759 549 759 c 0,184,185
 557 759 557 759 562 755 c 128,-1,186
 567 751 567 751 572 746 c 0,187,188
 575 739 575 739 577 733.5 c 128,-1,189
 579 728 579 728 579 720 c 0,190,191
 579 708 579 708 574 700.5 c 128,-1,192
 569 693 569 693 559 691 c 1,193,194
 559 691 559 691 561 689.5 c 128,-1,195
 563 688 563 688 566 688 c 0,196,197
 571 688 571 688 574 686 c 128,-1,198
 577 684 577 684 582 681 c 1,199,200
 584 696 584 696 586 707 c 128,-1,201
 588 718 588 718 588 730 c 0,202,203
 588 745 588 745 586 755 c 128,-1,204
 584 765 584 765 579 772 c 0,205,206
 571 780 571 780 563.5 782.5 c 128,-1,207
 556 785 556 785 546 785 c 0,208,209
 539 785 539 785 531.5 783 c 128,-1,210
 524 781 524 781 517 776 c 0,211,212
 512 768 512 768 509.5 762.5 c 128,-1,213
 507 757 507 757 507 750 c 0,214,215
 507 737 507 737 509.5 727 c 128,-1,216
 512 717 512 717 517 707 c 0,217,218
 519 707 519 707 521.5 705.5 c 128,-1,219
 524 704 524 704 526 704 c 1,220,-1
 526 704 l 1,175,176
566 652 m 1,221,222
 534 630 534 630 509 619.5 c 128,-1,223
 484 609 484 609 464 609 c 0,224,225
 447 609 447 609 430.5 616 c 128,-1,226
 414 623 414 623 399 635 c 1,227,228
 402 630 402 630 404.5 626 c 128,-1,229
 407 622 407 622 409 619 c 2,230,-1
 429 599 l 2,231,232
 438 590 438 590 450 585 c 128,-1,233
 462 580 462 580 474 580 c 0,234,235
 491 580 491 580 511 589.5 c 128,-1,236
 531 599 531 599 556 616 c 2,237,-1
 585 635 l 2,238,239
 590 640 590 640 594 645.5 c 128,-1,240
 598 651 598 651 598 658 c 0,241,242
 598 661 598 661 597.5 663 c 128,-1,243
 597 665 597 665 595 665 c 0,244,245
 593 670 593 670 580 677 c 128,-1,246
 567 684 567 684 543 691 c 0,247,248
 521 701 521 701 504 705.5 c 128,-1,249
 487 710 487 710 478 710 c 0,250,251
 470 710 470 710 458 705.5 c 128,-1,252
 446 701 446 701 429 691 c 0,253,254
 414 681 414 681 405 671 c 128,-1,255
 396 661 396 661 396 652 c 1,256,257
 396 652 396 652 398 649.5 c 128,-1,258
 400 647 400 647 402 642 c 0,259,260
 417 630 417 630 432 623 c 128,-1,261
 447 616 447 616 461 616 c 0,262,263
 481 616 481 616 506 626.5 c 128,-1,264
 531 637 531 637 562 661 c 1,265,-1
 562 655 l 2,266,267
 565 655 565 655 565.5 653.5 c 128,-1,268
 566 652 566 652 566 652 c 1,269,-1
 566 652 l 1,221,222
641 -8 m 1,270,271
 650 -26 650 -26 666.5 -35 c 128,-1,272
 683 -44 683 -44 703 -44 c 0,273,274
 708 -44 708 -44 712.5 -43.5 c 128,-1,275
 717 -43 717 -43 722 -41 c 0,276,277
 727 -41 727 -41 731.5 -39 c 128,-1,278
 736 -37 736 -37 739 -35 c 0,279,280
 741 -34 741 -34 743.5 -32 c 128,-1,281
 746 -30 746 -30 748 -28 c 0,282,283
 753 -26 753 -26 754.5 -25 c 128,-1,284
 756 -24 756 -24 758 -23 c 2,285,-1
 814 25 l 2,286,287
 823 33 823 33 833.5 40 c 128,-1,288
 844 47 844 47 856 53 c 0,289,290
 866 59 866 59 875 63 c 128,-1,291
 884 67 884 67 889 69 c 0,292,293
 896 71 896 71 901.5 74 c 128,-1,294
 907 77 907 77 912 81 c 0,295,296
 914 84 914 84 916 89 c 128,-1,297
 918 94 918 94 918 99 c 0,298,299
 918 107 918 107 914 112 c 128,-1,300
 910 117 910 117 905 121 c 256,301,302
 900 125 900 125 895 128 c 128,-1,303
 890 131 890 131 885 132 c 0,304,305
 881 134 881 134 875.5 138 c 128,-1,306
 870 142 870 142 863 149 c 0,307,308
 858 155 858 155 853.5 164 c 128,-1,309
 849 173 849 173 846 184 c 2,310,-1
 843 203 l 2,311,312
 841 210 841 210 840 215 c 128,-1,313
 839 220 839 220 836 222 c 0,314,315
 836 223 836 223 836 223.5 c 128,-1,316
 836 224 836 224 833 224 c 0,317,318
 831 224 831 224 827 221.5 c 128,-1,319
 823 219 823 219 820 215 c 0,320,321
 815 211 815 211 810 206.5 c 128,-1,322
 805 202 805 202 801 197 c 0,323,324
 798 192 798 192 792 187.5 c 128,-1,325
 786 183 786 183 781 179 c 0,326,327
 774 175 774 175 767 172.5 c 128,-1,328
 760 170 760 170 755 170 c 0,329,330
 735 170 735 170 724 175.5 c 128,-1,331
 713 181 713 181 706 192 c 0,332,333
 701 199 701 199 698 208 c 128,-1,334
 695 217 695 217 693 228 c 1,335,336
 688 232 688 232 684.5 234 c 128,-1,337
 681 236 681 236 677 236 c 0,338,339
 664 236 664 236 659 223.5 c 128,-1,340
 654 211 654 211 654 185 c 2,341,-1
 654 84 l 2,342,343
 654 81 654 81 652 76.5 c 128,-1,344
 650 72 650 72 650 64 c 0,345,346
 648 56 648 56 647.5 47.5 c 128,-1,347
 647 39 647 39 647 29 c 2,348,-1
 641 -7 l 1,349,-1
 641 -7 l 1,350,-1
 641 -8 l 1,270,271
167 10 m 1,351,352
 190 6 190 6 216.5 -1 c 128,-1,353
 243 -8 243 -8 272 -19 c 0,354,355
 302 -29 302 -29 320 -34.5 c 128,-1,356
 338 -40 338 -40 345 -40 c 0,357,358
 362 -40 362 -40 376 -32.5 c 128,-1,359
 390 -25 390 -25 402 -11 c 0,360,361
 405 -6 405 -6 405 -0.5 c 128,-1,362
 405 5 405 5 405 12 c 0,363,364
 405 35 405 35 391 64 c 128,-1,365
 377 93 377 93 350 129 c 2,366,-1
 327 158 l 2,367,368
 324 163 324 163 319.5 170 c 128,-1,369
 315 177 315 177 310 187 c 0,370,371
 305 196 305 196 300.5 203.5 c 128,-1,372
 296 211 296 211 292 216 c 0,373,374
 289 222 289 222 284 227.5 c 128,-1,375
 279 233 279 233 272 239 c 0,376,377
 266 244 266 244 258.5 248 c 128,-1,378
 251 252 251 252 243 254 c 0,379,380
 233 252 233 252 226 248.5 c 128,-1,381
 219 245 219 245 215 240 c 0,382,383
 212 236 212 236 210 230.5 c 128,-1,384
 208 225 208 225 208 220 c 0,385,386
 207 215 207 215 205.5 211.5 c 128,-1,387
 204 208 204 208 201 206 c 0,388,389
 199 205 199 205 195 203.5 c 128,-1,390
 191 202 191 202 185 201 c 0,391,392
 184 201 184 201 181.5 201 c 128,-1,393
 179 201 179 201 176 201 c 2,394,-1
 167 201 l 2,395,396
 154 201 154 201 145.5 199.5 c 128,-1,397
 137 198 137 198 132 196 c 0,398,399
 126 188 126 188 123 180 c 128,-1,400
 120 172 120 172 120 164 c 0,401,402
 120 160 120 160 121 153.5 c 128,-1,403
 122 147 122 147 124 137 c 0,404,405
 126 128 126 128 127 121 c 128,-1,406
 128 114 128 114 128 109 c 0,407,408
 128 99 128 99 125 89 c 128,-1,409
 122 79 122 79 116 69 c 0,410,411
 109 58 109 58 106 50 c 128,-1,412
 103 42 103 42 103 37 c 0,413,414
 106 27 106 27 122 20.5 c 128,-1,415
 138 14 138 14 167 10 c 1,416,-1
 167 10 l 1,351,352
276 307 m 1,417,418
 276 323 276 323 280.5 342 c 128,-1,419
 285 361 285 361 294 383 c 256,420,421
 303 405 303 405 311.5 420 c 128,-1,422
 320 435 320 435 329 445 c 0,423,424
 329 448 329 448 327.5 448.5 c 128,-1,425
 326 449 326 449 324 449 c 2,426,-1
 321 452 l 1,427,428
 314 444 314 444 305.5 427.5 c 128,-1,429
 297 411 297 411 286 387 c 0,430,431
 276 364 276 364 270.5 344.5 c 128,-1,432
 265 325 265 325 265 310 c 0,433,434
 265 299 265 299 268 289.5 c 128,-1,435
 271 280 271 280 275 272 c 0,436,437
 281 264 281 264 294 252 c 128,-1,438
 307 240 307 240 327 225 c 2,439,-1
 362 203 l 1,440,441
 390 179 390 179 404 162 c 128,-1,442
 418 145 418 145 418 136 c 0,443,444
 418 130 418 130 415.5 125 c 128,-1,445
 413 120 413 120 405 114 c 0,446,447
 400 108 400 108 394 105.5 c 128,-1,448
 388 103 388 103 383 103 c 0,449,450
 382 103 382 103 382 102.5 c 128,-1,451
 382 102 382 102 382 100 c 2,452,453
 382 100 382 100 384.5 95 c 128,-1,454
 387 90 387 90 392 81 c 0,455,456
 402 67 402 67 423.5 60 c 128,-1,457
 445 53 445 53 474 53 c 0,458,459
 528 53 528 53 570 75 c 128,-1,460
 612 97 612 97 644 141 c 1,461,462
 644 153 644 153 643.5 161 c 128,-1,463
 643 169 643 169 640 172 c 2,464,-1
 640 184 l 2,465,466
 640 200 640 200 642.5 212 c 128,-1,467
 645 224 645 224 650 232 c 0,468,469
 655 239 655 239 660.5 243 c 128,-1,470
 666 247 666 247 673 247 c 0,471,472
 678 247 678 247 683 245 c 128,-1,473
 688 243 688 243 693 240 c 1,474,475
 695 259 695 259 695.5 275.5 c 128,-1,476
 696 292 696 292 696 306 c 0,477,478
 696 329 696 329 695 347.5 c 128,-1,479
 694 366 694 366 689 383 c 0,480,481
 687 398 687 398 682.5 410 c 128,-1,482
 678 422 678 422 673 432 c 0,483,484
 668 440 668 440 663 447 c 128,-1,485
 658 454 658 454 653 462 c 0,486,487
 649 469 649 469 645.5 476.5 c 128,-1,488
 642 484 642 484 637 491 c 0,489,490
 635 501 635 501 633 509.5 c 128,-1,491
 631 518 631 518 631 530 c 1,492,493
 623 542 623 542 617.5 554.5 c 128,-1,494
 612 567 612 567 604 579 c 0,495,496
 600 591 600 591 595 603 c 128,-1,497
 590 615 590 615 585 625 c 1,498,-1
 556 602 l 2,499,500
 531 585 531 585 511 577 c 128,-1,501
 491 569 491 569 474 569 c 0,502,503
 459 569 459 569 447.5 572.5 c 128,-1,504
 436 576 436 576 428 586 c 2,505,-1
 409 602 l 1,506,507
 409 595 409 595 406.5 585.5 c 128,-1,508
 404 576 404 576 399 566 c 2,509,-1
 378 527 l 2,510,511
 371 510 371 510 367.5 499.5 c 128,-1,512
 364 489 364 489 363 481 c 0,513,514
 362 476 362 476 361.5 472 c 128,-1,515
 361 468 361 468 360 468 c 2,516,-1
 336 419 l 2,517,518
 316 382 316 382 306 348.5 c 128,-1,519
 296 315 296 315 296 287 c 0,520,521
 296 282 296 282 296.5 276 c 128,-1,522
 297 270 297 270 298 264 c 1,523,524
 287 272 287 272 281.5 282.5 c 128,-1,525
 276 293 276 293 276 307 c 1,526,-1
 276 307 l 1,417,418
510 -2 m 1,527,528
 478 -2 478 -2 453.5 -6.5 c 128,-1,529
 429 -11 429 -11 412 -19 c 1,530,-1
 412 -18 l 1,531,532
 400 -33 400 -33 385.5 -40.5 c 128,-1,533
 371 -48 371 -48 352 -48 c 0,534,535
 340 -48 340 -48 321 -43.5 c 128,-1,536
 302 -39 302 -39 277 -29 c 0,537,538
 251 -21 251 -21 228.5 -14 c 128,-1,539
 206 -7 206 -7 186 -3 c 0,540,541
 184 -2 184 -2 179.5 -1 c 128,-1,542
 175 0 175 0 168 1 c 256,543,544
 161 2 161 2 154.5 3 c 128,-1,545
 148 4 148 4 143 5 c 256,546,547
 138 6 138 6 132 8 c 128,-1,548
 126 10 126 10 119 12 c 0,549,550
 113 14 113 14 108.5 16.5 c 128,-1,551
 104 19 104 19 100 22 c 0,552,553
 97 25 97 25 95 28.5 c 128,-1,554
 93 32 93 32 93 36 c 256,555,556
 93 40 93 40 94 44 c 128,-1,557
 95 48 95 48 97 53 c 0,558,559
 98 55 98 55 99.5 57.5 c 128,-1,560
 101 60 101 60 103 63 c 256,561,562
 105 66 105 66 106.5 68.5 c 128,-1,563
 108 71 108 71 109 73 c 256,564,565
 110 75 110 75 111 77.5 c 128,-1,566
 112 80 112 80 113 82 c 256,567,568
 114 84 114 84 115 86.5 c 128,-1,569
 116 89 116 89 117 92 c 0,570,571
 117 94 117 94 117.5 96.5 c 128,-1,572
 118 99 118 99 118 101 c 0,573,574
 118 104 118 104 117 111.5 c 128,-1,575
 116 119 116 119 114 132 c 256,576,577
 112 145 112 145 111 153 c 128,-1,578
 110 161 110 161 110 164 c 0,579,580
 110 175 110 175 112.5 183.5 c 128,-1,581
 115 192 115 192 120 198 c 0,582,583
 126 204 126 204 131 207 c 128,-1,584
 136 210 136 210 142 210 c 2,585,-1
 179 210 l 2,586,587
 181 210 181 210 184.5 211.5 c 128,-1,588
 188 213 188 213 194 216 c 0,589,590
 195 220 195 220 196.5 223 c 128,-1,591
 198 226 198 226 199 229 c 256,592,593
 200 232 200 232 201 234.5 c 128,-1,594
 202 237 202 237 202 238 c 0,595,596
 203 239 203 239 203.5 240.5 c 128,-1,597
 204 242 204 242 204 243 c 0,598,599
 205 245 205 245 206.5 247 c 128,-1,600
 208 249 208 249 209 251 c 0,601,602
 207 253 207 253 206 256 c 128,-1,603
 205 259 205 259 205 263 c 0,604,605
 205 266 205 266 205 268.5 c 128,-1,606
 205 271 205 271 206 272 c 0,607,608
 206 281 206 281 210 293.5 c 128,-1,609
 214 306 214 306 223 322 c 2,610,-1
 235 343 l 2,611,612
 242 356 242 356 247.5 366.5 c 128,-1,613
 253 377 253 377 257 387 c 0,614,615
 261 396 261 396 265.5 411 c 128,-1,616
 270 426 270 426 275 445 c 0,617,618
 278 463 278 463 287.5 480 c 128,-1,619
 297 497 297 497 312 514 c 2,620,-1
 336 543 l 2,621,622
 349 558 349 558 357.5 570.5 c 128,-1,623
 366 583 366 583 370 592 c 0,624,625
 375 602 375 602 377.5 613.5 c 128,-1,626
 380 625 380 625 380 635 c 0,627,628
 380 640 380 640 378.5 654.5 c 128,-1,629
 377 669 377 669 375 693 c 0,630,631
 372 718 372 718 371 742 c 128,-1,632
 370 766 370 766 370 788 c 0,633,634
 370 805 370 805 371.5 818 c 128,-1,635
 373 831 373 831 376 844 c 0,636,637
 379 856 379 856 385 867.5 c 128,-1,638
 391 879 391 879 399 889 c 0,639,640
 406 899 406 899 416.5 908 c 128,-1,641
 427 917 427 917 441 922 c 0,642,643
 456 927 456 927 473 929.5 c 128,-1,644
 490 932 490 932 510 932 c 0,645,646
 517 932 517 932 524.5 931.5 c 128,-1,647
 532 931 532 931 539 928 c 0,648,649
 547 928 547 928 556.5 926 c 128,-1,650
 566 924 566 924 578 919 c 0,651,652
 588 914 588 914 597.5 908.5 c 128,-1,653
 607 903 607 903 614 896 c 0,654,655
 624 888 624 888 632 877 c 128,-1,656
 640 866 640 866 647 853 c 0,657,658
 652 839 652 839 656.5 823.5 c 128,-1,659
 661 808 661 808 663 788 c 0,660,661
 666 776 666 776 666.5 763 c 128,-1,662
 667 750 667 750 670 733 c 0,663,664
 670 718 670 718 671.5 708 c 128,-1,665
 673 698 673 698 673 690 c 0,666,667
 675 683 675 683 676 673 c 128,-1,668
 677 663 677 663 680 651 c 0,669,670
 682 641 682 641 685 631.5 c 128,-1,671
 688 622 688 622 693 615 c 0,672,673
 697 605 697 605 702.5 595.5 c 128,-1,674
 708 586 708 586 715 576 c 0,675,676
 723 564 723 564 732.5 551 c 128,-1,677
 742 538 742 538 751 524 c 0,678,679
 773 499 773 499 790 472.5 c 128,-1,680
 807 446 807 446 817 419 c 0,681,682
 829 395 829 395 836 364 c 128,-1,683
 843 333 843 333 843 299 c 0,684,685
 843 282 843 282 840.5 265.5 c 128,-1,686
 838 249 838 249 833 233 c 1,687,688
 838 233 838 233 841 231.5 c 128,-1,689
 844 230 844 230 846 226 c 0,690,691
 848 223 848 223 850.5 215.5 c 128,-1,692
 853 208 853 208 856 196 c 2,693,-1
 859 172 l 2,694,695
 861 167 861 167 864.5 162 c 128,-1,696
 868 157 868 157 875 152 c 0,697,698
 880 148 880 148 885.5 144.5 c 128,-1,699
 891 141 891 141 898 138 c 0,700,701
 903 135 903 135 909.5 131.5 c 128,-1,702
 916 128 916 128 921 124 c 0,703,704
 926 119 926 119 928.5 114 c 128,-1,705
 931 109 931 109 931 103 c 0,706,707
 931 95 931 95 928.5 89 c 128,-1,708
 926 83 926 83 921 78 c 256,709,710
 916 73 916 73 911 69.5 c 128,-1,711
 906 66 906 66 898 64 c 0,712,713
 893 62 893 62 883.5 57 c 128,-1,714
 874 52 874 52 859 45 c 0,715,716
 847 38 847 38 834.5 29 c 128,-1,717
 822 20 822 20 810 10 c 2,718,-1
 777 -18 l 2,719,720
 768 -27 768 -27 758.5 -34 c 128,-1,721
 749 -41 749 -41 742 -45 c 0,722,723
 734 -50 734 -50 724.5 -52 c 128,-1,724
 715 -54 715 -54 706 -54 c 2,725,-1
 683 -51 l 2,726,727
 663 -46 663 -46 650.5 -36 c 128,-1,728
 638 -26 638 -26 631 -12 c 1,729,730
 591 -7 591 -7 560 -4.5 c 128,-1,731
 529 -2 529 -2 510 -2 c 1,732,-1
 510 -2 l 1,527,528
EndSplineSet
Validated: 5
EndChar

StartChar: uniE613
Encoding: 58899 58899 23
Width: 1024
Flags: W
LayerCount: 2
Fore
SplineSet
446 452 m 1,0,-1
 508 559 l 2,1,2
 511 565 511 565 509.5 572 c 128,-1,3
 508 579 508 579 502 582 c 2,4,-1
 458 607 l 2,5,6
 452 611 452 611 445.5 609 c 128,-1,7
 439 607 439 607 435 601 c 2,8,-1
 233 249 l 2,9,10
 230 243 230 243 231.5 236.5 c 128,-1,11
 233 230 233 230 239 226 c 2,12,-1
 283 201 l 2,13,14
 289 198 289 198 295.5 199.5 c 128,-1,15
 302 201 302 201 306 207 c 2,16,-1
 446 452 l 1,17,-1
 446 452 l 1,0,-1
858 485 m 1,18,-1
 711 485 l 1,19,20
 724 460 724 460 735.5 438 c 128,-1,21
 747 416 747 416 755 400 c 0,22,23
 761 389 761 389 765.5 380.5 c 128,-1,24
 770 372 770 372 771 369 c 0,25,26
 773 366 773 366 774.5 363 c 128,-1,27
 776 360 776 360 776 356 c 1,28,-1
 858 356 l 2,29,30
 864 356 864 356 868.5 360.5 c 128,-1,31
 873 365 873 365 873 371 c 2,32,-1
 873 469 l 2,33,34
 873 476 873 476 868.5 480.5 c 128,-1,35
 864 485 864 485 858 485 c 1,36,-1
 858 485 l 1,18,-1
500 485 m 1,37,-1
 426 356 l 1,38,-1
 626 356 l 1,39,40
 615 378 615 378 600.5 409 c 128,-1,41
 586 440 586 440 566 485 c 1,42,-1
 500 485 l 1,43,-1
 500 485 l 1,37,-1
333 485 m 1,44,-1
 164 485 l 2,45,46
 157 485 157 485 153 480.5 c 128,-1,47
 149 476 149 476 149 469 c 2,48,-1
 149 371 l 2,49,50
 149 365 149 365 153 360.5 c 128,-1,51
 157 356 157 356 164 356 c 2,52,-1
 260 356 l 1,53,-1
 333 485 l 1,54,-1
 333 485 l 1,44,-1
269 182 m 1,55,-1
 225 207 l 2,56,57
 219 210 219 210 214 208 c 128,-1,58
 209 206 209 206 208 199 c 2,59,-1
 201 133 l 2,60,61
 200 126 200 126 203.5 124 c 128,-1,62
 207 122 207 122 213 126 c 2,63,-1
 269 164 l 2,64,65
 275 168 275 168 275 173 c 128,-1,66
 275 178 275 178 269 182 c 1,67,-1
 269 182 l 1,55,-1
745 355 m 1,68,69
 745 355 745 355 744.5 355.5 c 128,-1,70
 744 356 744 356 744 356 c 1,71,-1
 744 356 l 1,72,73
 741 362 741 362 733.5 376 c 128,-1,74
 726 390 726 390 716 409 c 1,75,76
 716 409 716 409 716 409 c 129,-1,77
 716 409 716 409 716 409 c 1,78,79
 715 411 715 411 714.5 412.5 c 128,-1,80
 714 414 714 414 713 415 c 256,81,82
 712 416 712 416 711.5 417.5 c 128,-1,83
 711 419 711 419 711 420 c 0,84,85
 710 421 710 421 709.5 422 c 128,-1,86
 709 423 709 423 709 424 c 0,87,88
 708 425 708 425 707 427 c 128,-1,89
 706 429 706 429 705 430 c 0,90,91
 705 431 705 431 704.5 431.5 c 128,-1,92
 704 432 704 432 704 433 c 0,93,94
 703 434 703 434 702 436 c 128,-1,95
 701 438 701 438 700 440 c 0,96,97
 699 441 699 441 699 441.5 c 128,-1,98
 699 442 699 442 698 443 c 0,99,100
 675 486 675 486 649 534 c 128,-1,101
 623 582 623 582 605 610 c 0,102,103
 574 659 574 659 539 721.5 c 128,-1,104
 504 784 504 784 492 778 c 0,105,106
 484 774 484 774 490.5 749 c 128,-1,107
 497 724 497 724 510 692 c 128,-1,108
 523 660 523 660 537.5 627.5 c 128,-1,109
 552 595 552 595 560 575 c 0,110,111
 569 555 569 555 587.5 513 c 128,-1,112
 606 471 606 471 626 427.5 c 128,-1,113
 646 384 646 384 663.5 350 c 128,-1,114
 681 316 681 316 687 313 c 0,115,116
 700 307 700 307 707 308.5 c 128,-1,117
 714 310 714 310 723 314 c 256,118,119
 732 318 732 318 742.5 329 c 128,-1,120
 753 340 753 340 745 355 c 1,121,-1
 745 355 l 1,68,69
795 251 m 1,122,-1
 774 291 l 2,123,124
 770 298 770 298 763 300.5 c 128,-1,125
 756 303 756 303 749 299 c 2,126,-1
 724 286 l 2,127,128
 718 283 718 283 716 276 c 128,-1,129
 714 269 714 269 718 262 c 2,130,-1
 744 221 l 2,131,132
 748 214 748 214 755.5 212.5 c 128,-1,133
 763 211 763 211 770 215 c 2,134,-1
 788 225 l 2,135,136
 794 229 794 229 796 236.5 c 128,-1,137
 798 244 798 244 795 251 c 1,138,-1
 795 251 l 1,122,-1
788 193 m 1,139,140
 783 189 783 189 777 178 c 128,-1,141
 771 167 771 167 785 147 c 256,142,143
 799 127 799 127 823 121 c 128,-1,144
 847 115 847 115 851 102 c 2,145,146
 851 102 851 102 848 164 c 128,-1,147
 845 226 845 226 788 193 c 1,148,-1
 788 193 l 1,139,140
EndSplineSet
Validated: 37
EndChar

StartChar: uniE614
Encoding: 58900 58900 24
Width: 1024
Flags: W
LayerCount: 2
Fore
SplineSet
155 723 m 1,0,-1
 155 655 l 1,1,-1
 580 655 l 1,2,-1
 580 791 l 1,3,-1
 155 791 l 1,4,-1
 155 723 l 1,5,-1
 155 723 l 1,0,-1
733 723 m 1,6,-1
 733 655 l 1,7,-1
 869 655 l 1,8,-1
 869 791 l 1,9,-1
 733 791 l 1,10,-1
 733 723 l 1,11,-1
 733 723 l 1,6,-1
155 434 m 1,12,-1
 155 367 l 1,13,-1
 869 367 l 1,14,-1
 869 502 l 1,15,-1
 155 502 l 1,16,-1
 155 434 l 1,17,-1
 155 434 l 1,12,-1
155 150 m 1,18,-1
 155 87 l 1,19,-1
 435 87 l 1,20,-1
 435 213 l 1,21,-1
 155 213 l 1,22,-1
 155 150 l 1,23,-1
 155 150 l 1,18,-1
589 150 m 1,24,-1
 589 87 l 1,25,-1
 869 87 l 1,26,-1
 869 213 l 1,27,-1
 589 213 l 1,28,-1
 589 150 l 1,29,-1
 589 150 l 1,24,-1
EndSplineSet
Validated: 9
EndChar

StartChar: uniE615
Encoding: 58901 58901 25
Width: 1024
Flags: W
LayerCount: 2
Fore
SplineSet
249 531 m 1,0,-1
 249 531 l 1,1,-1
 249 531 l 1,2,3
 243 529 243 529 238 529 c 128,-1,4
 233 529 233 529 228 531 c 1,5,-1
 228 531 l 1,6,7
 209 485 209 485 188.5 435.5 c 128,-1,8
 168 386 168 386 149 347 c 1,9,-1
 149 347 l 1,10,-1
 149 347 l 1,11,12
 158 349 158 349 166 348.5 c 128,-1,13
 174 348 174 348 179 347 c 1,14,15
 179 347 179 347 179 347 c 129,-1,16
 179 347 179 347 179 347 c 1,17,-1
 179 347 l 1,18,19
 184 359 184 359 189.5 373 c 128,-1,20
 195 387 195 387 201 401 c 1,21,-1
 201 401 l 1,22,23
 220 401 220 401 238.5 401 c 128,-1,24
 257 401 257 401 276 401 c 1,25,-1
 276 401 l 1,26,27
 282 387 282 387 287 373.5 c 128,-1,28
 292 360 292 360 298 347 c 1,29,-1
 298 347 l 1,30,31
 298 347 298 347 298 347 c 129,-1,32
 298 347 298 347 298 347 c 1,33,34
 306 349 306 349 314 348.5 c 128,-1,35
 322 348 322 348 328 347 c 1,36,-1
 328 347 l 1,37,-1
 328 347 l 1,38,-1
 328 347 l 1,39,40
 314 373 314 373 290.5 429.5 c 128,-1,41
 267 486 267 486 249 531 c 1,42,-1
 249 531 l 1,0,-1
271 414 m 1,43,44
 255 413 255 413 238.5 413 c 128,-1,45
 222 413 222 413 206 414 c 1,46,-1
 206 414 l 1,47,48
 216 439 216 439 224.5 462 c 128,-1,49
 233 485 233 485 238 499 c 1,50,51
 246 478 246 478 254.5 456.5 c 128,-1,52
 263 435 263 435 271 414 c 1,53,-1
 271 414 l 1,54,-1
 271 414 l 1,43,44
149 347 m 1,55,-1
 149 347 l 1,56,57
 149 347 149 347 149 347 c 129,-1,58
 149 347 149 347 149 347 c 1,59,-1
 149 347 l 1,60,-1
 149 347 l 1,55,-1
193 556 m 1,61,62
 193 556 193 556 193 556 c 129,-1,63
 193 556 193 556 193 556 c 1,64,-1
 193 556 l 1,65,66
 185 554 185 554 177.5 554 c 128,-1,67
 170 554 170 554 162 556 c 1,68,69
 156 543 156 543 136 510.5 c 128,-1,70
 116 478 116 478 101 453 c 1,71,72
 85 479 85 479 68.5 506.5 c 128,-1,73
 52 534 52 534 40 556 c 1,74,75
 30 554 30 554 24 553.5 c 128,-1,76
 18 553 18 553 9 556 c 1,77,78
 28 527 28 527 53 483.5 c 128,-1,79
 78 440 78 440 88 422 c 1,80,-1
 86 323 l 1,81,82
 86 323 86 323 91.5 323.5 c 128,-1,83
 97 324 97 324 101 324 c 0,84,85
 106 324 106 324 111 323.5 c 128,-1,86
 116 323 116 323 116 323 c 1,87,-1
 114 422 l 1,88,89
 133 455 133 455 159 499.5 c 128,-1,90
 185 544 185 544 193 556 c 1,91,-1
 193 556 l 1,61,62
607 534 m 1,92,93
 558 534 558 534 533 506.5 c 128,-1,94
 508 479 508 479 508 439 c 0,95,96
 508 395 508 395 534.5 369.5 c 128,-1,97
 561 344 561 344 607 344 c 0,98,99
 657 344 657 344 682 371 c 128,-1,100
 707 398 707 398 707 438 c 0,101,102
 707 483 707 483 680 508.5 c 128,-1,103
 653 534 653 534 607 534 c 1,104,-1
 607 534 l 1,92,93
607 355 m 1,105,106
 575 355 575 355 556.5 377 c 128,-1,107
 538 399 538 399 538 438 c 0,108,109
 538 483 538 483 558.5 502.5 c 128,-1,110
 579 522 579 522 606 522 c 2,111,112
 606 522 606 522 606.5 522 c 128,-1,113
 607 522 607 522 607 522 c 2,114,115
 637 522 637 522 656.5 501.5 c 128,-1,116
 676 481 676 481 676 439 c 0,117,118
 676 396 676 396 656.5 375.5 c 128,-1,119
 637 355 637 355 607 355 c 1,120,-1
 607 355 l 1,105,106
967 352 m 1,121,122
 960 352 960 352 956.5 347 c 128,-1,123
 953 342 953 342 953 336 c 0,124,125
 953 329 953 329 957.5 325.5 c 128,-1,126
 962 322 962 322 969 322 c 0,127,128
 974 322 974 322 978.5 325.5 c 128,-1,129
 983 329 983 329 983 337 c 0,130,131
 983 344 983 344 978.5 348 c 128,-1,132
 974 352 974 352 967 352 c 1,133,-1
 967 352 l 1,121,122
1002 553 m 1,134,-1
 1002 553 l 1,135,-1
 1002 553 l 1,136,137
 1002 553 1002 553 1001 553 c 128,-1,138
 1000 553 1000 553 999 553 c 0,139,140
 994 553 994 553 989 549.5 c 128,-1,141
 984 546 984 546 984 538 c 0,142,143
 981 496 981 496 977.5 455 c 128,-1,144
 974 414 974 414 968 374 c 1,145,-1
 968 374 l 1,146,147
 968 374 968 374 968 374 c 129,-1,148
 968 374 968 374 968 374 c 1,149,-1
 968 374 l 1,150,-1
 968 374 l 1,151,152
 971 374 971 374 974 373.5 c 128,-1,153
 977 373 977 373 979 372 c 1,154,-1
 979 372 l 1,155,156
 986 412 986 412 997.5 462 c 128,-1,157
 1009 512 1009 512 1013 529 c 0,158,159
 1014 532 1014 532 1014.5 534.5 c 128,-1,160
 1015 537 1015 537 1015 539 c 0,161,162
 1015 545 1015 545 1011.5 548.5 c 128,-1,163
 1008 552 1008 552 1002 553 c 1,164,-1
 1002 553 l 1,134,-1
832 545 m 1,165,166
 784 545 784 545 751 518 c 128,-1,167
 718 491 718 491 718 439 c 0,168,169
 718 397 718 397 744.5 365 c 128,-1,170
 771 333 771 333 833 333 c 0,171,172
 885 333 885 333 916.5 360.5 c 128,-1,173
 948 388 948 388 948 438 c 0,174,175
 948 486 948 486 917.5 515.5 c 128,-1,176
 887 545 887 545 832 545 c 1,177,-1
 832 545 l 1,165,166
832 344 m 1,178,179
 799 344 799 344 773.5 365.5 c 128,-1,180
 748 387 748 387 748 440 c 0,181,182
 748 494 748 494 775.5 513.5 c 128,-1,183
 803 533 803 533 832 533 c 0,184,185
 869 533 869 533 893 510 c 128,-1,186
 917 487 917 487 917 438 c 0,187,188
 917 385 917 385 890 364.5 c 128,-1,189
 863 344 863 344 832 344 c 1,190,-1
 832 344 l 1,178,179
468 531 m 1,191,192
 469 510 469 510 470 488.5 c 128,-1,193
 471 467 471 467 471 445 c 1,194,195
 445 444 445 444 419 444 c 128,-1,196
 393 444 393 444 368 445 c 1,197,198
 368 467 368 467 368.5 488.5 c 128,-1,199
 369 510 369 510 370 531 c 1,200,201
 363 529 363 529 355 529 c 128,-1,202
 347 529 347 529 339 531 c 1,203,204
 341 485 341 485 341 439 c 128,-1,205
 341 393 341 393 339 347 c 1,206,207
 347 349 347 349 354.5 349 c 128,-1,208
 362 349 362 349 370 347 c 1,209,-1
 370 347 l 1,210,-1
 370 347 l 1,211,212
 369 368 369 368 368.5 389.5 c 128,-1,213
 368 411 368 411 368 432 c 1,214,215
 393 433 393 433 419 433 c 128,-1,216
 445 433 445 433 471 433 c 1,217,218
 471 411 471 411 470 389.5 c 128,-1,219
 469 368 469 368 468 347 c 1,220,-1
 468 347 l 1,221,-1
 468 347 l 1,222,223
 476 349 476 349 484 349 c 128,-1,224
 492 349 492 349 499 347 c 1,225,226
 497 393 497 393 497 439 c 128,-1,227
 497 485 497 485 499 531 c 1,228,229
 491 529 491 529 483.5 529 c 128,-1,230
 476 529 476 529 468 531 c 1,231,-1
 468 531 l 1,191,192
EndSplineSet
Validated: 5
EndChar

StartChar: uniE616
Encoding: 58902 58902 26
Width: 1024
Flags: W
LayerCount: 2
Fore
SplineSet
872 554 m 1,0,1
 872 555 872 555 871.5 555.5 c 128,-1,2
 871 556 871 556 871 557 c 2,3,4
 871 557 871 557 871 557.5 c 128,-1,5
 871 558 871 558 871 558 c 2,6,7
 871 559 871 559 870.5 559.5 c 128,-1,8
 870 560 870 560 870 560 c 2,9,10
 870 561 870 561 869.5 561 c 128,-1,11
 869 561 869 561 869 562 c 2,12,13
 869 562 869 562 868.5 562.5 c 128,-1,14
 868 563 868 563 868 564 c 2,15,16
 868 564 868 564 868 564.5 c 128,-1,17
 868 565 868 565 867 565 c 1,18,19
 867 566 867 566 866.5 566.5 c 128,-1,20
 866 567 866 567 866 567 c 2,21,22
 866 568 866 568 865.5 568 c 128,-1,23
 865 568 865 568 865 569 c 2,24,25
 865 569 865 569 864.5 569.5 c 128,-1,26
 864 570 864 570 863 570 c 1,27,28
 863 571 863 571 862.5 571 c 128,-1,29
 862 571 862 571 862 571 c 2,30,31
 862 572 862 572 861.5 572.5 c 128,-1,32
 861 573 861 573 860 573 c 2,33,34
 860 573 860 573 859.5 573.5 c 128,-1,35
 859 574 859 574 859 574 c 257,36,37
 859 574 859 574 859 574 c 129,-1,38
 859 574 859 574 858 574 c 2,39,-1
 529 794 l 2,40,41
 521 799 521 799 512 799 c 128,-1,42
 503 799 503 799 495 794 c 2,43,-1
 166 574 l 2,44,45
 165 574 165 574 165 574 c 129,-1,46
 165 574 165 574 165 574 c 257,47,48
 165 574 165 574 164.5 573.5 c 128,-1,49
 164 573 164 573 164 573 c 2,50,51
 163 573 163 573 162.5 572.5 c 128,-1,52
 162 572 162 572 162 571 c 2,53,54
 162 571 162 571 161.5 571 c 128,-1,55
 161 571 161 571 161 570 c 1,56,57
 160 570 160 570 159.5 569.5 c 128,-1,58
 159 569 159 569 159 569 c 2,59,60
 159 568 159 568 158.5 568 c 128,-1,61
 158 568 158 568 158 567 c 2,62,63
 158 567 158 567 157.5 566.5 c 128,-1,64
 157 566 157 566 157 565 c 1,65,66
 156 565 156 565 156 564.5 c 128,-1,67
 156 564 156 564 156 564 c 2,68,69
 156 563 156 563 155.5 562.5 c 128,-1,70
 155 562 155 562 155 562 c 2,71,72
 155 561 155 561 154.5 561 c 128,-1,73
 154 561 154 561 154 560 c 2,74,75
 154 560 154 560 153.5 559.5 c 128,-1,76
 153 559 153 559 153 558 c 2,77,78
 153 558 153 558 153 557.5 c 128,-1,79
 153 557 153 557 153 557 c 2,80,81
 153 556 153 556 152.5 555.5 c 128,-1,82
 152 555 152 555 152 554 c 2,83,84
 152 554 152 554 152 553.5 c 128,-1,85
 152 553 152 553 152 553 c 2,86,87
 152 552 152 552 152 551 c 128,-1,88
 152 550 152 550 152 549 c 2,89,-1
 152 329 l 2,90,91
 152 328 152 328 152 327 c 128,-1,92
 152 326 152 326 152 325 c 2,93,94
 152 325 152 325 152 324.5 c 128,-1,95
 152 324 152 324 152 324 c 2,96,97
 152 323 152 323 152.5 322.5 c 128,-1,98
 153 322 153 322 153 321 c 2,99,100
 153 321 153 321 153 320.5 c 128,-1,101
 153 320 153 320 153 320 c 2,102,103
 153 319 153 319 153.5 318.5 c 128,-1,104
 154 318 154 318 154 317 c 2,105,106
 154 317 154 317 154.5 316.5 c 128,-1,107
 155 316 155 316 155 316 c 2,108,109
 155 315 155 315 155.5 314.5 c 128,-1,110
 156 314 156 314 156 314 c 2,111,112
 156 313 156 313 156 313 c 129,-1,113
 156 313 156 313 157 312 c 2,114,115
 157 312 157 312 157.5 311.5 c 128,-1,116
 158 311 158 311 158 310 c 2,117,118
 158 310 158 310 158.5 309.5 c 128,-1,119
 159 309 159 309 159 309 c 257,120,121
 159 309 159 309 159.5 308.5 c 128,-1,122
 160 308 160 308 161 307 c 2,123,124
 161 307 161 307 161.5 307 c 128,-1,125
 162 307 162 307 162 306 c 2,126,127
 162 306 162 306 162.5 305.5 c 128,-1,128
 163 305 163 305 164 305 c 2,129,130
 164 305 164 305 164.5 304.5 c 128,-1,131
 165 304 165 304 165 304 c 257,132,133
 165 304 165 304 165 303.5 c 128,-1,134
 165 303 165 303 166 303 c 2,135,-1
 495 84 l 2,136,137
 499 81 499 81 503.5 80 c 128,-1,138
 508 79 508 79 512 79 c 256,139,140
 516 79 516 79 520.5 80 c 128,-1,141
 525 81 525 81 529 84 c 2,142,-1
 858 303 l 2,143,144
 859 303 859 303 859 303.5 c 128,-1,145
 859 304 859 304 859 304 c 257,146,147
 859 304 859 304 859.5 304.5 c 128,-1,148
 860 305 860 305 860 305 c 2,149,150
 861 305 861 305 861.5 305.5 c 128,-1,151
 862 306 862 306 862 306 c 2,152,153
 862 307 862 307 862.5 307 c 128,-1,154
 863 307 863 307 863 307 c 2,155,156
 864 308 864 308 864.5 308.5 c 128,-1,157
 865 309 865 309 865 309 c 257,158,159
 865 309 865 309 865.5 309.5 c 128,-1,160
 866 310 866 310 866 310 c 2,161,162
 866 311 866 311 866.5 311.5 c 128,-1,163
 867 312 867 312 867 312 c 2,164,165
 868 313 868 313 868 313 c 129,-1,166
 868 313 868 313 868 314 c 2,167,168
 868 314 868 314 868.5 314.5 c 128,-1,169
 869 315 869 315 869 316 c 2,170,171
 869 316 869 316 869.5 316.5 c 128,-1,172
 870 317 870 317 870 317 c 2,173,174
 870 318 870 318 870.5 318.5 c 128,-1,175
 871 319 871 319 871 320 c 2,176,177
 871 320 871 320 871 320.5 c 128,-1,178
 871 321 871 321 871 321 c 2,179,180
 871 322 871 322 871.5 322.5 c 128,-1,181
 872 323 872 323 872 324 c 2,182,183
 872 324 872 324 872 324.5 c 128,-1,184
 872 325 872 325 872 325 c 2,185,186
 872 326 872 326 872 327 c 128,-1,187
 872 328 872 328 872 329 c 2,188,-1
 872 549 l 2,189,190
 872 550 872 550 872 551 c 128,-1,191
 872 552 872 552 872 553 c 2,192,193
 872 553 872 553 872 553.5 c 128,-1,194
 872 554 872 554 872 554 c 1,195,-1
 872 554 l 1,0,1
512 366 m 1,196,-1
 403 439 l 1,197,-1
 512 512 l 1,198,-1
 622 439 l 1,199,-1
 512 366 l 1,200,-1
 512 366 l 1,196,-1
481 566 m 1,201,-1
 347 476 l 1,202,-1
 238 549 l 1,203,-1
 481 710 l 1,204,-1
 481 566 l 1,205,-1
 481 566 l 1,201,-1
291 439 m 1,206,-1
 214 387 l 1,207,-1
 214 491 l 1,208,-1
 291 439 l 1,209,-1
 291 439 l 1,206,-1
347 402 m 1,210,-1
 481 312 l 1,211,-1
 481 167 l 1,212,-1
 238 329 l 1,213,-1
 347 402 l 1,214,-1
 347 402 l 1,210,-1
543 312 m 1,215,-1
 677 402 l 1,216,-1
 786 329 l 1,217,-1
 543 167 l 1,218,-1
 543 312 l 1,219,-1
 543 312 l 1,215,-1
733 439 m 1,220,-1
 810 491 l 1,221,-1
 810 387 l 1,222,-1
 733 439 l 1,223,-1
 733 439 l 1,220,-1
677 476 m 1,224,-1
 543 566 l 1,225,-1
 543 710 l 1,226,-1
 786 549 l 1,227,-1
 677 476 l 1,228,-1
 677 476 l 1,224,-1
EndSplineSet
Validated: 5
EndChar

StartChar: uniE617
Encoding: 58903 58903 27
Width: 1024
Flags: W
LayerCount: 2
Fore
SplineSet
204 459 m 1,0,-1
 119 459 l 2,1,2
 117 459 117 459 116 457.5 c 128,-1,3
 115 456 115 456 115 455 c 2,4,-1
 115 413 l 2,5,6
 115 411 115 411 116 410 c 128,-1,7
 117 409 117 409 119 409 c 2,8,-1
 152 409 l 1,9,-1
 152 358 l 1,10,11
 152 358 152 358 145.5 356.5 c 128,-1,12
 139 355 139 355 124 355 c 0,13,14
 106 355 106 355 86 369 c 128,-1,15
 66 383 66 383 66 438 c 0,16,17
 66 494 66 494 87.5 508.5 c 128,-1,18
 109 523 109 523 134 523 c 0,19,20
 156 523 156 523 166.5 520 c 128,-1,21
 177 517 177 517 183 515 c 0,22,23
 185 515 185 515 186.5 516 c 128,-1,24
 188 517 188 517 188 519 c 2,25,-1
 197 559 l 2,26,27
 197 560 197 560 197 561 c 128,-1,28
 197 562 197 562 196 562 c 0,29,30
 193 564 193 564 177 569.5 c 128,-1,31
 161 575 161 575 124 575 c 0,32,33
 82 575 82 575 45.5 548.5 c 128,-1,34
 9 522 9 522 9 435 c 0,35,36
 9 349 9 349 49.5 325.5 c 128,-1,37
 90 302 90 302 132 302 c 0,38,39
 167 302 167 302 186.5 312 c 128,-1,40
 206 322 206 322 206 322 c 2,41,42
 207 323 207 323 207.5 324 c 128,-1,43
 208 325 208 325 208 325 c 1,44,-1
 208 455 l 2,45,46
 208 456 208 456 206.5 457.5 c 128,-1,47
 205 459 205 459 204 459 c 1,48,-1
 204 459 l 1,0,-1
633 566 m 1,49,-1
 585 566 l 2,50,51
 584 566 584 566 582.5 564.5 c 128,-1,52
 581 563 581 563 581 562 c 2,53,-1
 581 469 l 1,54,-1
 507 469 l 1,55,-1
 507 562 l 2,56,57
 507 563 507 563 506 564.5 c 128,-1,58
 505 566 505 566 503 566 c 2,59,-1
 455 566 l 2,60,61
 453 566 453 566 452 564.5 c 128,-1,62
 451 563 451 563 451 562 c 2,63,-1
 451 311 l 2,64,65
 451 310 451 310 452 309 c 128,-1,66
 453 308 453 308 455 308 c 2,67,-1
 503 308 l 2,68,69
 505 308 505 308 506 309 c 128,-1,70
 507 310 507 310 507 311 c 2,71,-1
 507 418 l 1,72,-1
 581 418 l 1,73,-1
 581 311 l 2,74,75
 581 310 581 310 582 309 c 128,-1,76
 583 308 583 308 585 308 c 2,77,-1
 633 308 l 2,78,79
 635 308 635 308 636 309 c 128,-1,80
 637 310 637 310 637 311 c 2,81,-1
 637 562 l 2,82,83
 637 563 637 563 636 564.5 c 128,-1,84
 635 566 635 566 633 566 c 1,85,-1
 633 566 l 1,49,-1
261 560 m 1,86,87
 248 560 248 560 239 551 c 128,-1,88
 230 542 230 542 230 529 c 256,89,90
 230 516 230 516 239 507 c 128,-1,91
 248 498 248 498 261 498 c 256,92,93
 274 498 274 498 283 507 c 128,-1,94
 292 516 292 516 292 529 c 256,95,96
 292 542 292 542 283 551 c 128,-1,97
 274 560 274 560 261 560 c 1,98,-1
 261 560 l 1,86,87
288 480 m 1,99,100
 288 481 288 481 287 482.5 c 128,-1,101
 286 484 286 484 284 484 c 2,102,-1
 237 484 l 2,103,104
 235 484 235 484 234 482.5 c 128,-1,105
 233 481 233 481 233 479 c 2,106,107
 233 479 233 479 233 406.5 c 128,-1,108
 233 334 233 334 233 314 c 0,109,110
 233 310 233 310 235 309 c 128,-1,111
 237 308 237 308 240 308 c 2,112,113
 240 308 240 308 252.5 308 c 128,-1,114
 265 308 265 308 282 308 c 0,115,116
 286 308 286 308 287 309.5 c 128,-1,117
 288 311 288 311 288 314 c 0,118,119
 288 321 288 321 288 340 c 128,-1,120
 288 359 288 359 288 364 c 256,121,122
 288 369 288 369 288 424.5 c 128,-1,123
 288 480 288 480 288 480 c 1,124,-1
 288 480 l 1,99,100
818 483 m 1,125,-1
 771 483 l 2,126,127
 769 483 769 483 768 482 c 128,-1,128
 767 481 767 481 767 479 c 2,129,-1
 767 357 l 1,130,131
 767 357 767 357 758.5 352.5 c 128,-1,132
 750 348 750 348 738 348 c 0,133,134
 725 348 725 348 720.5 354 c 128,-1,135
 716 360 716 360 716 372 c 0,136,137
 716 385 716 385 716 432 c 128,-1,138
 716 479 716 479 716 479 c 2,139,140
 716 481 716 481 715 482 c 128,-1,141
 714 483 714 483 712 483 c 2,142,-1
 664 483 l 2,143,144
 662 483 662 483 661 482 c 128,-1,145
 660 481 660 481 660 479 c 2,146,147
 660 479 660 479 660 440.5 c 128,-1,148
 660 402 660 402 660 364 c 0,149,150
 660 327 660 327 678.5 314.5 c 128,-1,151
 697 302 697 302 726 302 c 0,152,153
 749 302 749 302 765.5 311 c 128,-1,154
 782 320 782 320 782 320 c 257,155,156
 782 320 782 320 783 315 c 128,-1,157
 784 310 784 310 784 309 c 2,158,159
 784 309 784 309 785 308 c 128,-1,160
 786 307 786 307 788 307 c 2,161,-1
 818 307 l 2,162,163
 820 307 820 307 821 308.5 c 128,-1,164
 822 310 822 310 822 311 c 2,165,-1
 822 479 l 2,166,167
 822 481 822 481 821 482 c 128,-1,168
 820 483 820 483 818 483 c 1,169,-1
 818 483 l 1,125,-1
948 489 m 1,170,171
 928 489 928 489 915.5 483 c 128,-1,172
 903 477 903 477 903 477 c 1,173,-1
 903 562 l 2,174,175
 903 563 903 563 901.5 564.5 c 128,-1,176
 900 566 900 566 899 566 c 2,177,-1
 851 566 l 2,178,179
 849 566 849 566 848 564.5 c 128,-1,180
 847 563 847 563 847 562 c 2,181,-1
 847 311 l 2,182,183
 847 310 847 310 848 308.5 c 128,-1,184
 849 307 849 307 851 307 c 2,185,186
 851 307 851 307 867.5 307 c 128,-1,187
 884 307 884 307 884 307 c 2,188,189
 885 307 885 307 886 308 c 128,-1,190
 887 309 887 309 888 310 c 0,191,192
 888 311 888 311 889 316 c 128,-1,193
 890 321 890 321 890 321 c 257,194,195
 890 321 890 321 904 312 c 128,-1,196
 918 303 918 303 946 303 c 0,197,198
 979 303 979 303 997 323.5 c 128,-1,199
 1015 344 1015 344 1015 402 c 256,200,201
 1015 460 1015 460 991.5 474.5 c 128,-1,202
 968 489 968 489 948 489 c 1,203,-1
 948 489 l 1,170,171
929 348 m 1,204,205
 917 348 917 348 909.5 352 c 128,-1,206
 902 356 902 356 902 356 c 1,207,-1
 902 435 l 1,208,209
 902 435 902 435 909 438.5 c 128,-1,210
 916 442 916 442 926 443 c 0,211,212
 939 444 939 444 949.5 436.5 c 128,-1,213
 960 429 960 429 960 399 c 0,214,215
 960 367 960 367 953 357 c 128,-1,216
 946 347 946 347 929 348 c 1,217,-1
 929 348 l 1,204,205
426 349 m 1,218,219
 425 349 425 349 421.5 348.5 c 128,-1,220
 418 348 418 348 413 348 c 0,221,222
 400 348 400 348 395 353.5 c 128,-1,223
 390 359 390 359 390 367 c 256,224,225
 390 375 390 375 390 406 c 128,-1,226
 390 437 390 437 390 437 c 1,227,-1
 426 437 l 2,228,229
 427 437 427 437 428.5 438 c 128,-1,230
 430 439 430 439 430 441 c 2,231,-1
 430 480 l 2,232,233
 430 481 430 481 428.5 482.5 c 128,-1,234
 427 484 427 484 426 484 c 2,235,-1
 390 484 l 1,236,-1
 390 531 l 2,237,238
 390 532 390 532 389 533 c 128,-1,239
 388 534 388 534 387 534 c 2,240,-1
 338 534 l 2,241,242
 337 534 337 534 336 533 c 128,-1,243
 335 532 335 532 335 531 c 2,244,-1
 335 482 l 1,245,246
 335 482 335 482 322.5 479 c 128,-1,247
 310 476 310 476 309 476 c 0,248,249
 308 475 308 475 307 474 c 128,-1,250
 306 473 306 473 306 472 c 2,251,-1
 306 441 l 2,252,253
 306 439 306 439 307 438 c 128,-1,254
 308 437 308 437 310 437 c 2,255,-1
 335 437 l 1,256,257
 335 437 335 437 335 416 c 128,-1,258
 335 395 335 395 335 363 c 0,259,260
 335 322 335 322 357.5 312.5 c 128,-1,261
 380 303 380 303 400 303 c 0,262,263
 408 303 408 303 417 305 c 128,-1,264
 426 307 426 307 428 308 c 0,265,266
 429 308 429 308 429.5 309 c 128,-1,267
 430 310 430 310 430 311 c 2,268,-1
 430 345 l 2,269,270
 430 347 430 347 429 348 c 128,-1,271
 428 349 428 349 426 349 c 1,272,-1
 426 349 l 1,218,219
EndSplineSet
Validated: 5
EndChar

StartChar: uniE618
Encoding: 58904 58904 28
Width: 1024
Flags: W
LayerCount: 2
Fore
SplineSet
512 35 m 1,0,1
 504 35 504 35 496 37.5 c 128,-1,2
 488 40 488 40 481 44 c 2,3,-1
 382 102 l 2,4,5
 371 108 371 108 373.5 111 c 128,-1,6
 376 114 376 114 379 115 c 0,7,8
 394 120 394 120 401 123 c 128,-1,9
 408 126 408 126 424 135 c 0,10,11
 426 136 426 136 428 136 c 128,-1,12
 430 136 430 136 431 135 c 2,13,-1
 507 90 l 2,14,15
 509 89 509 89 512 89 c 128,-1,16
 515 89 515 89 516 90 c 2,17,-1
 812 260 l 2,18,19
 814 262 814 262 815.5 264 c 128,-1,20
 817 266 817 266 817 268 c 2,21,-1
 817 610 l 2,22,23
 817 612 817 612 815.5 614.5 c 128,-1,24
 814 617 814 617 812 618 c 2,25,-1
 517 788 l 2,26,27
 514 790 514 790 511.5 790 c 128,-1,28
 509 790 509 790 507 788 c 2,29,-1
 212 618 l 2,30,31
 210 617 210 617 208.5 614.5 c 128,-1,32
 207 612 207 612 207 610 c 2,33,-1
 207 268 l 2,34,35
 207 266 207 266 208.5 264 c 128,-1,36
 210 262 210 262 212 260 c 2,37,-1
 293 214 l 2,38,39
 326 197 326 197 345 210.5 c 128,-1,40
 364 224 364 224 364 244 c 2,41,-1
 364 581 l 2,42,43
 364 584 364 584 366.5 586.5 c 128,-1,44
 369 589 369 589 372 589 c 2,45,-1
 410 589 l 2,46,47
 413 589 413 589 415.5 586.5 c 128,-1,48
 418 584 418 584 418 581 c 2,49,-1
 418 244 l 2,50,51
 418 200 418 200 395.5 175.5 c 128,-1,52
 373 151 373 151 331 151 c 0,53,54
 318 151 318 151 304.5 153.5 c 128,-1,55
 291 156 291 156 263 170 c 2,56,-1
 185 214 l 2,57,58
 171 223 171 223 162.5 237.5 c 128,-1,59
 154 252 154 252 154 268 c 2,60,-1
 154 610 l 2,61,62
 154 626 154 626 162.5 640.5 c 128,-1,63
 171 655 171 655 185 664 c 2,64,-1
 481 834 l 2,65,66
 495 842 495 842 512 842 c 128,-1,67
 529 842 529 842 543 834 c 2,68,-1
 839 664 l 2,69,70
 853 655 853 655 861.5 640.5 c 128,-1,71
 870 626 870 626 870 610 c 2,72,-1
 870 268 l 2,73,74
 870 252 870 252 861.5 237.5 c 128,-1,75
 853 223 853 223 839 214 c 2,76,-1
 543 44 l 2,77,78
 536 40 536 40 528 37.5 c 128,-1,79
 520 35 520 35 512 35 c 1,80,-1
 512 35 l 1,0,1
603 270 m 1,81,82
 506 270 506 270 476.5 306 c 128,-1,83
 447 342 447 342 447 380 c 0,84,85
 447 383 447 383 449.5 385.5 c 128,-1,86
 452 388 452 388 455 388 c 2,87,-1
 494 388 l 2,88,89
 497 388 497 388 499.5 386 c 128,-1,90
 502 384 502 384 502 381 c 0,91,92
 506 352 506 352 525.5 337 c 128,-1,93
 545 322 545 322 603 322 c 0,94,95
 650 322 650 322 671 333.5 c 128,-1,96
 692 345 692 345 692 370 c 0,97,98
 692 384 692 384 676 394.5 c 128,-1,99
 660 405 660 405 588 412 c 0,100,101
 527 418 527 418 492 436 c 128,-1,102
 457 454 457 454 457 503 c 0,103,104
 457 548 457 548 492.5 573 c 128,-1,105
 528 598 528 598 591 598 c 0,106,107
 662 598 662 598 698 573 c 128,-1,108
 734 548 734 548 739 495 c 0,109,110
 739 493 739 493 738.5 491 c 128,-1,111
 738 489 738 489 737 488 c 0,112,113
 735 487 735 487 733.5 486 c 128,-1,114
 732 485 732 485 730 485 c 2,115,-1
 692 485 l 2,116,117
 689 485 689 485 686.5 487 c 128,-1,118
 684 489 684 489 684 492 c 0,119,120
 677 523 677 523 657 534.5 c 128,-1,121
 637 546 637 546 591 546 c 0,122,123
 540 546 540 546 527.5 532 c 128,-1,124
 515 518 515 518 515 505 c 0,125,126
 515 489 515 489 531.5 481.5 c 128,-1,127
 548 474 548 474 617 465 c 0,128,129
 685 456 685 456 718 438 c 128,-1,130
 751 420 751 420 751 372 c 256,131,132
 751 324 751 324 712.5 297 c 128,-1,133
 674 270 674 270 603 270 c 1,134,-1
 603 270 l 1,81,82
EndSplineSet
Validated: 37
EndChar

StartChar: uniE619
Encoding: 58905 58905 29
Width: 1024
Flags: W
LayerCount: 2
Fore
SplineSet
170 430 m 1,0,1
 170 432 170 432 168.5 434 c 128,-1,2
 167 436 167 436 166 437 c 2,3,-1
 95 478 l 2,4,5
 94 478 94 478 93.5 478.5 c 128,-1,6
 93 479 93 479 92 479 c 256,7,8
 91 479 91 479 91 479 c 129,-1,9
 91 479 91 479 91 479 c 1,10,11
 90 479 90 479 89 478.5 c 128,-1,12
 88 478 88 478 87 478 c 2,13,-1
 17 437 l 2,14,15
 15 436 15 436 14 434 c 128,-1,16
 13 432 13 432 13 430 c 2,17,-1
 13 321 l 2,18,19
 13 320 13 320 13.5 319 c 128,-1,20
 14 318 14 318 15 318 c 0,21,22
 16 317 16 317 17 317 c 128,-1,23
 18 317 18 317 19 318 c 2,24,-1
 61 342 l 2,25,26
 63 343 63 343 64 345 c 128,-1,27
 65 347 65 347 65 349 c 2,28,-1
 65 400 l 2,29,30
 65 402 65 402 66 404 c 128,-1,31
 67 406 67 406 69 407 c 2,32,-1
 87 417 l 2,33,34
 88 418 88 418 89 418 c 128,-1,35
 90 418 90 418 91 418 c 256,36,37
 92 418 92 418 93 418 c 128,-1,38
 94 418 94 418 95 417 c 2,39,-1
 113 407 l 2,40,41
 115 406 115 406 116 404 c 128,-1,42
 117 402 117 402 117 400 c 2,43,-1
 117 349 l 2,44,45
 117 347 117 347 118.5 345 c 128,-1,46
 120 343 120 343 122 342 c 2,47,-1
 163 318 l 2,48,49
 164 317 164 317 165.5 317 c 128,-1,50
 167 317 167 317 168 318 c 2,51,52
 168 318 168 318 169 319 c 128,-1,53
 170 320 170 320 170 321 c 2,54,-1
 170 430 l 1,55,-1
 170 430 l 1,0,1
544 579 m 1,56,57
 543 580 543 580 542 580 c 128,-1,58
 541 580 541 580 540 579 c 0,59,60
 539 579 539 579 538.5 578 c 128,-1,61
 538 577 538 577 538 576 c 2,62,-1
 538 468 l 2,63,64
 538 467 538 467 537.5 466.5 c 128,-1,65
 537 466 537 466 536 465 c 2,66,67
 536 465 536 465 535 465 c 128,-1,68
 534 465 534 465 533 465 c 2,69,-1
 516 476 l 2,70,71
 514 477 514 477 511.5 477 c 128,-1,72
 509 477 509 477 507 476 c 2,73,-1
 437 435 l 2,74,75
 435 434 435 434 434 432 c 128,-1,76
 433 430 433 430 433 428 c 2,77,-1
 433 347 l 2,78,79
 433 345 433 345 434 343 c 128,-1,80
 435 341 435 341 437 339 c 2,81,-1
 507 299 l 2,82,83
 509 298 509 298 511.5 298 c 128,-1,84
 514 298 514 298 516 299 c 2,85,-1
 586 339 l 2,86,87
 588 341 588 341 589 343 c 128,-1,88
 590 345 590 345 590 347 c 2,89,-1
 590 549 l 2,90,91
 590 551 590 551 589 553 c 128,-1,92
 588 555 588 555 586 556 c 2,93,-1
 544 579 l 1,94,-1
 544 579 l 1,56,57
538 373 m 1,95,96
 538 373 538 373 537.5 372.5 c 128,-1,97
 537 372 537 372 537 372 c 1,98,-1
 513 358 l 2,99,100
 512 357 512 357 511.5 357 c 128,-1,101
 511 357 511 357 510 358 c 2,102,-1
 486 372 l 1,103,104
 486 372 486 372 485.5 372.5 c 128,-1,105
 485 373 485 373 485 373 c 1,106,-1
 485 401 l 2,107,108
 485 402 485 402 485.5 402.5 c 128,-1,109
 486 403 486 403 486 403 c 1,110,-1
 510 417 l 2,111,112
 511 417 511 417 511.5 417 c 128,-1,113
 512 417 512 417 513 417 c 2,114,-1
 537 403 l 1,115,116
 537 403 537 403 537.5 402.5 c 128,-1,117
 538 402 538 402 538 401 c 2,118,-1
 538 373 l 1,119,-1
 538 373 l 1,95,96
795 402 m 1,120,121
 797 403 797 403 798 405 c 128,-1,122
 799 407 799 407 799 409 c 2,123,-1
 799 429 l 2,124,125
 799 431 799 431 798 433 c 128,-1,126
 797 435 797 435 795 436 c 2,127,-1
 725 477 l 2,128,129
 724 478 724 478 721.5 478 c 128,-1,130
 719 478 719 478 717 477 c 2,131,-1
 647 436 l 2,132,133
 645 435 645 435 644 433 c 128,-1,134
 643 431 643 431 643 429 c 2,135,-1
 643 348 l 2,136,137
 643 346 643 346 644 344 c 128,-1,138
 645 342 645 342 647 341 c 2,139,-1
 717 301 l 2,140,141
 719 300 719 300 721 300 c 128,-1,142
 723 300 723 300 725 301 c 2,143,-1
 767 324 l 2,144,145
 768 325 768 325 768.5 326 c 128,-1,146
 769 327 769 327 769 328 c 256,147,148
 769 329 769 329 768.5 330 c 128,-1,149
 768 331 768 331 767 332 c 2,150,-1
 697 372 l 2,151,152
 696 373 696 373 695 374 c 128,-1,153
 694 375 694 375 694 376 c 2,154,-1
 694 401 l 2,155,156
 694 402 694 402 695 403 c 128,-1,157
 696 404 696 404 697 405 c 2,158,-1
 719 417 l 2,159,160
 719 418 719 418 720.5 418 c 128,-1,161
 722 418 722 418 723 417 c 2,162,-1
 745 405 l 2,163,164
 746 404 746 404 746.5 403 c 128,-1,165
 747 402 747 402 747 401 c 2,166,-1
 747 381 l 2,167,168
 747 380 747 380 747.5 379 c 128,-1,169
 748 378 748 378 749 378 c 0,170,171
 750 377 750 377 751 377 c 128,-1,172
 752 377 752 377 753 378 c 2,173,-1
 795 402 l 1,174,-1
 795 402 l 1,120,121
297 477 m 1,175,176
 299 478 299 478 301.5 478 c 128,-1,177
 304 478 304 478 306 477 c 2,178,-1
 376 437 l 2,179,180
 378 436 378 436 379 434 c 128,-1,181
 380 432 380 432 380 429 c 2,182,-1
 380 348 l 2,183,184
 380 346 380 346 379 344 c 128,-1,185
 378 342 378 342 376 341 c 2,186,-1
 306 300 l 2,187,188
 304 299 304 299 301.5 299 c 128,-1,189
 299 299 299 299 297 300 c 2,190,-1
 227 341 l 2,191,192
 225 342 225 342 224 344 c 128,-1,193
 223 346 223 346 223 348 c 2,194,-1
 223 429 l 2,195,196
 223 432 223 432 224 434 c 128,-1,197
 225 436 225 436 227 437 c 2,198,-1
 297 477 l 1,199,-1
 297 477 l 1,175,176
931 299 m 1,200,201
 930 299 930 299 928 299.5 c 128,-1,202
 926 300 926 300 924 301 c 2,203,-1
 902 314 l 2,204,205
 900 316 900 316 900.5 316.5 c 128,-1,206
 901 317 901 317 902 317 c 0,207,208
 905 318 905 318 906.5 319 c 128,-1,209
 908 320 908 320 912 322 c 2,210,211
 912 322 912 322 912.5 322 c 128,-1,212
 913 322 913 322 913 322 c 1,213,-1
 930 311 l 2,214,215
 931 311 931 311 931.5 311 c 128,-1,216
 932 311 932 311 932 311 c 1,217,-1
 999 350 l 1,218,219
 999 350 999 350 999.5 350.5 c 128,-1,220
 1000 351 1000 351 1000 351 c 1,221,-1
 1000 428 l 1,222,223
 1000 428 1000 428 999.5 428.5 c 128,-1,224
 999 429 999 429 999 430 c 2,225,-1
 932 468 l 1,226,227
 932 468 932 468 931.5 468 c 128,-1,228
 931 468 931 468 930 468 c 2,229,-1
 864 430 l 2,230,231
 864 429 864 429 863.5 428.5 c 128,-1,232
 863 428 863 428 863 428 c 1,233,-1
 863 351 l 1,234,235
 863 351 863 351 863.5 350.5 c 128,-1,236
 864 350 864 350 864 350 c 1,237,-1
 882 339 l 2,238,239
 890 335 890 335 894 338 c 128,-1,240
 898 341 898 341 898 346 c 2,241,-1
 898 421 l 2,242,243
 898 422 898 422 898.5 422.5 c 128,-1,244
 899 423 899 423 900 423 c 2,245,-1
 909 423 l 1,246,247
 909 423 909 423 909.5 422.5 c 128,-1,248
 910 422 910 422 910 421 c 2,249,-1
 910 346 l 2,250,251
 910 336 910 336 905 330.5 c 128,-1,252
 900 325 900 325 891 325 c 0,253,254
 888 325 888 325 885 325.5 c 128,-1,255
 882 326 882 326 876 329 c 2,256,-1
 858 339 l 2,257,258
 855 341 855 341 853 344.5 c 128,-1,259
 851 348 851 348 851 351 c 2,260,-1
 851 428 l 2,261,262
 851 431 851 431 853 434.5 c 128,-1,263
 855 438 855 438 858 440 c 2,264,-1
 924 478 l 2,265,266
 928 480 928 480 931.5 480 c 128,-1,267
 935 480 935 480 938 478 c 2,268,-1
 1004 440 l 2,269,270
 1008 438 1008 438 1009.5 434.5 c 128,-1,271
 1011 431 1011 431 1011 428 c 2,272,-1
 1011 351 l 2,273,274
 1011 348 1011 348 1009.5 344.5 c 128,-1,275
 1008 341 1008 341 1004 339 c 2,276,-1
 938 301 l 2,277,278
 937 300 937 300 935 299.5 c 128,-1,279
 933 299 933 299 931 299 c 1,280,-1
 931 299 l 1,200,201
952 352 m 1,281,282
 930 352 930 352 923.5 360 c 128,-1,283
 917 368 917 368 917 376 c 0,284,285
 917 377 917 377 917.5 377.5 c 128,-1,286
 918 378 918 378 919 378 c 2,287,-1
 927 378 l 2,288,289
 928 378 928 378 928.5 377.5 c 128,-1,290
 929 377 929 377 929 377 c 1,291,292
 930 370 930 370 934.5 366.5 c 128,-1,293
 939 363 939 363 952 363 c 0,294,295
 962 363 962 363 967 365.5 c 128,-1,296
 972 368 972 368 972 374 c 0,297,298
 972 377 972 377 968.5 379.5 c 128,-1,299
 965 382 965 382 948 384 c 0,300,301
 935 385 935 385 927 389 c 128,-1,302
 919 393 919 393 919 404 c 0,303,304
 919 414 919 414 927 419.5 c 128,-1,305
 935 425 935 425 949 425 c 0,306,307
 965 425 965 425 973 419.5 c 128,-1,308
 981 414 981 414 982 402 c 2,309,310
 982 402 982 402 982 401.5 c 128,-1,311
 982 401 982 401 982 401 c 2,312,313
 981 400 981 400 981 400 c 129,-1,314
 981 400 981 400 980 400 c 2,315,-1
 972 400 l 2,316,317
 971 400 971 400 970.5 400.5 c 128,-1,318
 970 401 970 401 970 401 c 2,319,320
 968 408 968 408 963.5 411 c 128,-1,321
 959 414 959 414 949 414 c 0,322,323
 938 414 938 414 935 410.5 c 128,-1,324
 932 407 932 407 932 404 c 256,325,326
 932 401 932 401 935.5 399 c 128,-1,327
 939 397 939 397 955 395 c 0,328,329
 970 393 970 393 977.5 389 c 128,-1,330
 985 385 985 385 985 375 c 0,331,332
 985 364 985 364 976.5 358 c 128,-1,333
 968 352 968 352 952 352 c 1,334,-1
 952 352 l 1,281,282
720 406 m 1,335,336
 721 406 721 406 721 406 c 129,-1,337
 721 406 721 406 722 406 c 2,338,-1
 735 398 l 2,339,340
 736 398 736 398 736 397.5 c 128,-1,341
 736 397 736 397 736 397 c 1,342,-1
 736 381 l 1,343,344
 736 381 736 381 736 380.5 c 128,-1,345
 736 380 736 380 735 380 c 2,346,-1
 722 372 l 2,347,348
 721 372 721 372 721 372 c 129,-1,349
 721 372 721 372 720 372 c 2,350,-1
 707 380 l 2,351,352
 706 380 706 380 706 380.5 c 128,-1,353
 706 381 706 381 706 381 c 1,354,-1
 706 397 l 1,355,356
 706 397 706 397 706 397.5 c 128,-1,357
 706 398 706 398 707 398 c 2,358,-1
 720 406 l 1,359,-1
 720 406 l 1,335,336
EndSplineSet
Validated: 5
EndChar

StartChar: uniE61A
Encoding: 58906 58906 30
Width: 1024
Flags: W
LayerCount: 2
Fore
SplineSet
811 763 m 1,0,-1
 811 161 l 1,1,-1
 209 161 l 1,2,-1
 209 763 l 1,3,-1
 811 763 l 1,4,-1
 811 763 l 1,0,-1
871 823 m 1,5,-1
 149 823 l 1,6,-1
 149 101 l 1,7,-1
 871 101 l 1,8,-1
 871 823 l 1,9,-1
 871 823 l 1,5,-1
587 644 m 1,10,-1
 672 644 l 1,11,-1
 552 419 l 1,12,-1
 552 283 l 1,13,-1
 477 283 l 1,14,-1
 477 419 l 1,15,-1
 352 644 l 1,16,-1
 441 644 l 1,17,-1
 515 487 l 1,18,-1
 587 644 l 1,19,-1
 587 644 l 1,10,-1
EndSplineSet
Validated: 5
EndChar

StartChar: uniE61B
Encoding: 58907 58907 31
Width: 1024
Flags: W
LayerCount: 2
Fore
SplineSet
705 343 m 1,0,1
 705 343 705 343 704.5 355.5 c 128,-1,2
 704 368 704 368 717 392 c 256,3,4
 730 416 730 416 739 411 c 128,-1,5
 748 406 748 406 748 406 c 257,6,7
 748 406 748 406 753.5 395 c 128,-1,8
 759 384 759 384 746 366 c 256,9,10
 733 348 733 348 719 346 c 128,-1,11
 705 344 705 344 705 344 c 1,12,-1
 705 343 l 1,0,1
571 321 m 1,13,14
 556 282 556 282 529.5 286 c 128,-1,15
 503 290 503 290 503 290 c 257,16,17
 503 290 503 290 502 305.5 c 128,-1,18
 501 321 501 321 513 360 c 0,19,20
 525 400 525 400 545.5 396 c 128,-1,21
 566 392 566 392 566 392 c 257,22,23
 566 392 566 392 576 376 c 128,-1,24
 586 360 586 360 571 321 c 1,25,-1
 571 321 l 1,13,14
535 539 m 1,26,27
 535 539 535 539 551 573.5 c 128,-1,28
 567 608 567 608 572 579 c 0,29,30
 578 550 578 550 543.5 488.5 c 128,-1,31
 509 427 509 427 509 427 c 1,32,33
 510 446 510 446 522.5 492.5 c 128,-1,34
 535 539 535 539 535 539 c 1,35,-1
 535 539 l 1,26,27
105 344 m 2,36,37
 106 381 106 381 124 397 c 128,-1,38
 142 413 142 413 151 405 c 256,39,40
 160 397 160 397 156.5 381.5 c 128,-1,41
 153 366 153 366 137 355 c 0,42,43
 120 344 120 344 112.5 343.5 c 128,-1,44
 105 343 105 343 105 343 c 1,45,-1
 105 344 l 2,36,37
1016 352 m 1,46,47
 1015 365 1015 365 1007 364 c 128,-1,48
 999 363 999 363 999 363 c 257,49,50
 999 363 999 363 984 353.5 c 128,-1,51
 969 344 969 344 953 346 c 0,52,53
 937 347 937 347 937.5 371.5 c 128,-1,54
 938 396 938 396 938 396 c 257,55,56
 938 396 938 396 939 418.5 c 128,-1,57
 940 441 940 441 930 444 c 0,58,59
 921 447 921 447 911.5 439.5 c 128,-1,60
 902 432 902 432 902 432 c 257,61,62
 902 432 902 432 891 418 c 128,-1,63
 880 404 880 404 873 383 c 1,64,-1
 871 382 l 1,65,66
 871 382 871 382 872 407.5 c 128,-1,67
 873 433 873 433 870 442 c 0,68,69
 868 446 868 446 855.5 445 c 128,-1,70
 843 444 843 444 841 437 c 0,71,72
 838 430 838 430 828 391 c 128,-1,73
 818 352 818 352 817 331 c 1,74,75
 817 331 817 331 794.5 315 c 128,-1,76
 772 299 772 299 749 295 c 0,77,78
 725 291 725 291 717 300.5 c 128,-1,79
 709 310 709 310 709 310 c 257,80,81
 709 310 709 310 752 330.5 c 128,-1,82
 795 351 795 351 793 403 c 0,83,84
 790 455 790 455 755.5 450 c 128,-1,85
 721 445 721 445 716 441 c 0,86,87
 710 437 710 437 688 416.5 c 128,-1,88
 666 396 666 396 658 347 c 0,89,90
 658 345 658 345 657.5 340 c 128,-1,91
 657 335 657 335 657 335 c 257,92,93
 657 335 657 335 638 323 c 128,-1,94
 619 311 619 311 605 307 c 1,95,96
 605 307 605 307 623 355.5 c 128,-1,97
 641 404 641 404 593 434 c 0,98,99
 572 447 572 447 557 431 c 128,-1,100
 542 415 542 415 542 415 c 257,101,102
 542 415 542 415 582.5 473 c 128,-1,103
 623 531 623 531 608 592 c 0,104,105
 602 621 602 621 589 627 c 128,-1,106
 576 633 576 633 562 628 c 0,107,108
 542 620 542 620 533.5 611 c 128,-1,109
 525 602 525 602 525 602 c 257,110,111
 525 602 525 602 507 567.5 c 128,-1,112
 489 533 489 533 483 476 c 0,113,114
 477 420 477 420 470 365.5 c 128,-1,115
 463 311 463 311 463 311 c 257,116,117
 463 311 463 311 452.5 303 c 128,-1,118
 442 295 442 295 431 294 c 256,119,120
 420 293 420 293 421.5 316 c 128,-1,121
 423 339 423 339 423 339 c 257,122,123
 423 339 423 339 428.5 376 c 128,-1,124
 434 413 434 413 434 421 c 0,125,126
 433 430 433 430 430.5 435.5 c 128,-1,127
 428 441 428 441 418 444 c 0,128,129
 407 447 407 447 398 438.5 c 128,-1,130
 389 430 389 430 389 430 c 257,131,132
 389 430 389 430 368.5 398.5 c 128,-1,133
 348 367 348 367 345 360 c 2,134,-1
 343 356 l 1,135,-1
 341 359 l 1,136,137
 341 359 341 359 351.5 400.5 c 128,-1,138
 362 442 362 442 342 443 c 256,139,140
 322 444 322 444 309.5 428.5 c 128,-1,141
 297 413 297 413 297 413 c 257,142,143
 297 413 297 413 281.5 386.5 c 128,-1,144
 266 360 266 360 265 356 c 2,145,-1
 263 358 l 1,146,147
 263 358 263 358 269 390 c 128,-1,148
 275 422 275 422 273 433 c 256,149,150
 271 444 271 444 264 444.5 c 128,-1,151
 257 445 257 445 257 445 c 257,152,153
 257 445 257 445 247.5 444.5 c 128,-1,154
 238 444 238 444 234 436 c 0,155,156
 231 427 231 427 221.5 385 c 128,-1,157
 212 343 212 343 210 324 c 1,158,159
 210 324 210 324 184.5 308.5 c 128,-1,160
 159 293 159 293 137 292 c 0,161,162
 115 292 115 292 112.5 301.5 c 128,-1,163
 110 311 110 311 110 311 c 257,164,165
 110 311 110 311 160 338.5 c 128,-1,166
 210 366 210 366 188 420 c 0,167,168
 178 434 178 434 166.5 439 c 128,-1,169
 155 444 155 444 138 444 c 0,170,171
 122 444 122 444 104 432.5 c 128,-1,172
 86 421 86 421 73 391 c 0,173,174
 66 377 66 377 63.5 364.5 c 128,-1,175
 61 352 61 352 60 342 c 1,176,177
 60 342 60 342 49 341 c 128,-1,178
 38 340 38 340 31 346 c 0,179,180
 23 353 23 353 19 349.5 c 128,-1,181
 15 346 15 346 15 346 c 257,182,183
 15 346 15 346 8.5 334.5 c 128,-1,184
 2 323 2 323 15 317 c 0,185,186
 28 312 28 312 44 310 c 128,-1,187
 60 308 60 308 60 308 c 1,188,-1
 60 308 l 1,189,190
 61 299 61 299 68 285 c 128,-1,191
 75 271 75 271 91 259 c 0,192,193
 114 241 114 241 148.5 251.5 c 128,-1,194
 183 262 183 262 183 262 c 1,195,-1
 208 276 l 1,196,197
 208 276 208 276 211 264 c 128,-1,198
 214 252 214 252 227 249 c 0,199,200
 241 247 241 247 251 258 c 128,-1,201
 261 269 261 269 285 327 c 0,202,203
 299 356 299 356 302 360 c 128,-1,204
 305 364 305 364 305 364 c 1,205,-1
 307 364 l 1,206,207
 307 364 307 364 300.5 324 c 128,-1,208
 294 284 294 284 298 269 c 0,209,210
 302 253 302 253 315 251.5 c 128,-1,211
 328 250 328 250 328 250 c 257,212,213
 328 250 328 250 335.5 253.5 c 128,-1,214
 343 257 343 257 351 285 c 256,215,216
 359 313 359 313 370.5 338 c 128,-1,217
 382 363 382 363 382 363 c 1,218,-1
 385 363 l 1,219,220
 385 363 385 363 382 321.5 c 128,-1,221
 379 280 379 280 390 262 c 0,222,223
 400 243 400 243 419 248 c 128,-1,224
 438 253 438 253 438 253 c 257,225,226
 438 253 438 253 451 260 c 128,-1,227
 464 267 464 267 467 270 c 1,228,229
 467 270 467 270 486.5 258 c 128,-1,230
 506 246 506 246 537 249 c 0,231,232
 606 263 606 263 634 277.5 c 128,-1,233
 662 292 662 292 662 292 c 257,234,235
 662 292 662 292 676 271.5 c 128,-1,236
 690 251 690 251 726 248 c 0,237,238
 768 245 768 245 790.5 262 c 128,-1,239
 813 279 813 279 813 279 c 257,240,241
 813 279 813 279 815 266.5 c 128,-1,242
 817 254 817 254 832 248 c 0,243,244
 846 242 846 242 855 263.5 c 128,-1,245
 864 285 864 285 864 285 c 1,246,-1
 897 375 l 1,247,-1
 900 375 l 1,248,249
 900 375 900 375 905 344.5 c 128,-1,250
 910 314 910 314 934 308 c 0,251,252
 958 301 958 301 983 315 c 128,-1,253
 1008 329 1008 329 1008 329 c 257,254,255
 1008 329 1008 329 1013 334 c 128,-1,256
 1018 339 1018 339 1016 352 c 1,257,-1
 1016 352 l 1,46,47
EndSplineSet
Validated: 37
EndChar

StartChar: uniE61C
Encoding: 58908 58908 32
Width: 1024
Flags: W
LayerCount: 2
Fore
SplineSet
262 670 m 1,0,1
 262 670 262 670 262 630.5 c 128,-1,2
 262 591 262 591 262 536 c 2,3,-1
 262 403 l 1,4,-1
 255 391 l 2,5,6
 249 378 249 378 236 365 c 128,-1,7
 223 352 223 352 210 345 c 0,8,9
 195 337 195 337 183.5 334.5 c 128,-1,10
 172 332 172 332 156 332 c 0,11,12
 132 332 132 332 114 339.5 c 128,-1,13
 96 347 96 347 79 364 c 0,14,15
 57 386 57 386 49 413.5 c 128,-1,16
 41 441 41 441 48 470 c 0,17,18
 51 485 51 485 58 497 c 128,-1,19
 65 509 65 509 78 522 c 0,20,21
 96 541 96 541 115.5 548 c 128,-1,22
 135 555 135 555 162 554 c 0,23,24
 179 553 179 553 191 549.5 c 128,-1,25
 203 546 203 546 216 538 c 0,26,27
 221 534 221 534 224.5 532 c 128,-1,28
 228 530 228 530 229 531 c 2,29,30
 229 531 229 531 229.5 536 c 128,-1,31
 230 541 230 541 231 548 c 256,32,33
 232 555 232 555 233 561 c 128,-1,34
 234 567 234 567 235 569 c 0,35,36
 235 571 235 571 232.5 573 c 128,-1,37
 230 575 230 575 221 580 c 0,38,39
 204 587 204 587 190.5 590 c 128,-1,40
 177 593 177 593 156 593 c 0,41,42
 134 593 134 593 120 590 c 128,-1,43
 106 587 106 587 87 577 c 0,44,45
 58 563 58 563 37.5 537 c 128,-1,46
 17 511 17 511 8 477 c 0,47,48
 5 464 5 464 5 440.5 c 128,-1,49
 5 417 5 417 9 404 c 0,50,51
 19 367 19 367 45 340 c 128,-1,52
 71 313 71 313 109 300 c 0,53,54
 122 295 122 295 128.5 294.5 c 128,-1,55
 135 294 135 294 155 294 c 0,56,57
 173 294 173 294 180.5 294.5 c 128,-1,58
 188 295 188 295 197 298 c 0,59,60
 211 302 211 302 223 308 c 128,-1,61
 235 314 235 314 247 323 c 0,62,63
 252 327 252 327 256 329.5 c 128,-1,64
 260 332 260 332 260 332 c 257,65,66
 260 332 260 332 260.5 327.5 c 128,-1,67
 261 323 261 323 261 317 c 2,68,-1
 261 301 l 1,69,-1
 309 300 l 1,70,-1
 309 672 l 1,71,-1
 285 672 l 2,72,73
 275 672 275 672 268.5 671.5 c 128,-1,74
 262 671 262 671 262 670 c 1,75,-1
 262 670 l 1,0,1
650 633 m 1,76,-1
 650 604 l 1,77,-1
 687 604 l 1,78,-1
 687 662 l 1,79,-1
 650 662 l 1,80,-1
 650 633 l 1,81,-1
 650 633 l 1,76,-1
416 649 m 1,82,83
 415 648 415 648 414.5 646 c 128,-1,84
 414 644 414 644 415 641 c 2,85,-1
 415 635 l 1,86,-1
 479 634 l 1,87,-1
 542 634 l 1,88,-1
 543 638 l 2,89,90
 544 640 544 640 544 642.5 c 128,-1,91
 544 645 544 645 544 646 c 0,92,93
 543 649 543 649 534 649.5 c 128,-1,94
 525 650 525 650 481 650 c 0,95,96
 455 651 455 651 436 650.5 c 128,-1,97
 417 650 417 650 416 649 c 1,98,-1
 416 649 l 1,82,83
805 649 m 1,99,100
 803 647 803 647 802.5 643.5 c 128,-1,101
 802 640 802 640 804 637 c 0,102,103
 804 635 804 635 815 634.5 c 128,-1,104
 826 634 826 634 868 634 c 2,105,-1
 931 634 l 1,106,-1
 933 638 l 2,107,108
 934 641 934 641 934 643 c 128,-1,109
 934 645 934 645 933 647 c 0,110,111
 931 650 931 650 923 650.5 c 128,-1,112
 915 651 915 651 869 651 c 0,113,114
 835 651 835 651 820.5 650.5 c 128,-1,115
 806 650 806 650 805 649 c 1,116,-1
 805 649 l 1,99,100
451 592 m 1,117,118
 429 587 429 587 410 578 c 128,-1,119
 391 569 391 569 377 555 c 0,120,121
 360 540 360 540 349.5 522.5 c 128,-1,122
 339 505 339 505 332 482 c 0,123,124
 329 472 329 472 328 464.5 c 128,-1,125
 327 457 327 457 327 443 c 0,126,127
 327 421 327 421 330.5 408 c 128,-1,128
 334 395 334 395 343 376 c 0,129,130
 349 363 349 363 353.5 356.5 c 128,-1,131
 358 350 358 350 370 339 c 0,132,133
 385 324 385 324 398.5 315.5 c 128,-1,134
 412 307 412 307 431 300 c 0,135,136
 444 295 444 295 450.5 294.5 c 128,-1,137
 457 294 457 294 478 294 c 256,138,139
 499 294 499 294 505.5 294.5 c 128,-1,140
 512 295 512 295 525 300 c 0,141,142
 573 317 573 317 601 355 c 128,-1,143
 629 393 629 393 629 443 c 0,144,145
 630 463 630 463 626.5 477.5 c 128,-1,146
 623 492 623 492 614 511 c 0,147,148
 607 524 607 524 602.5 530.5 c 128,-1,149
 598 537 598 537 586 549 c 0,150,151
 575 560 575 560 568 565.5 c 128,-1,152
 561 571 561 571 550 576 c 0,153,154
 543 580 543 580 533.5 583.5 c 128,-1,155
 524 587 524 587 518 589 c 0,156,157
 504 592 504 592 484 593 c 128,-1,158
 464 594 464 594 451 592 c 1,159,-1
 451 592 l 1,117,118
516 549 m 1,160,161
 536 542 536 542 553 526.5 c 128,-1,162
 570 511 570 511 580 491 c 0,163,164
 603 444 603 444 581 397 c 128,-1,165
 559 350 559 350 507 335 c 0,166,167
 496 332 496 332 478 332 c 128,-1,168
 460 332 460 332 449 335 c 0,169,170
 420 344 420 344 398.5 366.5 c 128,-1,171
 377 389 377 389 370 419 c 0,172,173
 360 462 360 462 383.5 501 c 128,-1,174
 407 540 407 540 450 552 c 0,175,176
 461 555 461 555 482.5 554 c 128,-1,177
 504 553 504 553 516 549 c 1,178,-1
 516 549 l 1,160,161
839 592 m 1,179,180
 796 583 796 583 766 556 c 128,-1,181
 736 529 736 529 723 487 c 0,182,183
 719 477 719 477 718.5 469.5 c 128,-1,184
 718 462 718 462 718 442 c 0,185,186
 718 419 718 419 720 408 c 128,-1,187
 722 397 722 397 729 381 c 0,188,189
 741 352 741 352 766.5 330.5 c 128,-1,190
 792 309 792 309 824 298 c 0,191,192
 839 294 839 294 862 293 c 128,-1,193
 885 292 885 292 901 296 c 0,194,195
 967 312 967 312 999.5 370.5 c 128,-1,196
 1032 429 1032 429 1011 493 c 0,197,198
 999 528 999 528 972 553 c 128,-1,199
 945 578 945 578 908 589 c 0,200,201
 894 592 894 592 873.5 593 c 128,-1,202
 853 594 853 594 839 592 c 1,203,-1
 839 592 l 1,179,180
895 552 m 1,204,205
 917 547 917 547 937 531 c 128,-1,206
 957 515 957 515 967 494 c 0,207,208
 974 480 974 480 977 469 c 128,-1,209
 980 458 980 458 980 443 c 0,210,211
 980 422 980 422 972.5 403.5 c 128,-1,212
 965 385 965 385 951 369 c 0,213,214
 940 358 940 358 928.5 350.5 c 128,-1,215
 917 343 917 343 902 337 c 0,216,217
 892 334 892 334 885.5 333 c 128,-1,218
 879 332 879 332 867 332 c 0,219,220
 844 332 844 332 825.5 339.5 c 128,-1,221
 807 347 807 347 790 363 c 0,222,223
 779 374 779 374 771.5 387 c 128,-1,224
 764 400 764 400 760 414 c 0,225,226
 756 427 756 427 756.5 446 c 128,-1,227
 757 465 757 465 761 477 c 0,228,229
 770 505 770 505 790 524 c 128,-1,230
 810 543 810 543 837 551 c 0,231,232
 848 554 848 554 865.5 554.5 c 128,-1,233
 883 555 883 555 895 552 c 1,234,-1
 895 552 l 1,204,205
668 585 m 1,235,-1
 650 585 l 1,236,-1
 650 448 l 2,237,238
 650 335 650 335 648.5 315 c 128,-1,239
 647 295 647 295 638 277 c 0,240,241
 636 272 636 272 630.5 265 c 128,-1,242
 625 258 625 258 620 253 c 256,243,244
 615 248 615 248 611.5 244 c 128,-1,245
 608 240 608 240 608 239 c 0,246,247
 608 237 608 237 619.5 221.5 c 128,-1,248
 631 206 631 206 632 206 c 0,249,250
 636 206 636 206 652 229 c 128,-1,251
 668 252 668 252 675 266 c 0,252,253
 685 286 685 286 686 304 c 128,-1,254
 687 322 687 322 687 442 c 2,255,-1
 687 586 l 1,256,-1
 668 585 l 1,257,-1
 668 585 l 1,235,-1
EndSplineSet
Validated: 37
EndChar

StartChar: uniE61D
Encoding: 58909 58909 33
Width: 1024
Flags: W
LayerCount: 2
Fore
SplineSet
124 573 m 1,0,-1
 124 532 l 1,1,-1
 121 532 l 2,2,3
 107 535 107 535 92 534 c 128,-1,4
 77 533 77 533 64 528 c 0,5,6
 35 519 35 519 19.5 494.5 c 128,-1,7
 4 470 4 470 5 436 c 0,8,9
 6 421 6 421 9.5 409.5 c 128,-1,10
 13 398 13 398 19 389 c 0,11,12
 29 374 29 374 44 365.5 c 128,-1,13
 59 357 59 357 82 354 c 0,14,15
 98 351 98 351 126.5 352.5 c 128,-1,16
 155 354 155 354 178 359 c 1,17,-1
 180 360 l 1,18,-1
 180 615 l 1,19,-1
 124 615 l 1,20,-1
 124 573 l 1,21,-1
 124 573 l 1,0,-1
120 488 m 1,22,-1
 124 487 l 1,23,-1
 124 398 l 1,24,-1
 119 397 l 2,25,26
 102 396 102 396 91 398.5 c 128,-1,27
 80 401 80 401 73 409 c 0,28,29
 67 415 67 415 64.5 423.5 c 128,-1,30
 62 432 62 432 62 442 c 0,31,32
 62 461 62 461 70.5 473 c 128,-1,33
 79 485 79 485 94 488 c 0,34,35
 99 489 99 489 107.5 489 c 128,-1,36
 116 489 116 489 120 488 c 1,37,-1
 120 488 l 1,22,-1
213 587 m 1,38,-1
 213 559 l 1,39,-1
 269 559 l 1,40,-1
 269 587 l 1,41,-1
 268 615 l 1,42,-1
 241 615 l 1,43,-1
 213 615 l 1,44,-1
 213 587 l 1,45,-1
 213 587 l 1,38,-1
364 534 m 1,46,47
 349 533 349 533 334.5 529 c 128,-1,48
 320 525 320 525 307 520 c 2,49,-1
 302 517 l 1,50,-1
 302 496 l 2,51,52
 302 484 302 484 302 479.5 c 128,-1,53
 302 475 302 475 303 475 c 0,54,55
 325 485 325 485 339 488.5 c 128,-1,56
 353 492 353 492 368 491 c 0,57,58
 375 491 375 491 377 490.5 c 128,-1,59
 379 490 379 490 381 489 c 0,60,61
 384 487 384 487 385 483.5 c 128,-1,62
 386 480 386 480 386 474 c 0,63,64
 386 471 386 471 386 468.5 c 128,-1,65
 386 466 386 466 386 466 c 2,66,67
 384 466 384 466 374.5 464.5 c 128,-1,68
 365 463 365 463 359 462 c 0,69,70
 329 457 329 457 312.5 446.5 c 128,-1,71
 296 436 296 436 292 418 c 0,72,73
 291 413 291 413 291 403 c 128,-1,74
 291 393 291 393 292 388 c 0,75,76
 294 379 294 379 298.5 372.5 c 128,-1,77
 303 366 303 366 309 362 c 0,78,79
 324 353 324 353 350 351.5 c 128,-1,80
 376 350 376 350 432 357 c 1,81,-1
 437 357 l 1,82,-1
 437 421 l 2,83,84
 437 447 437 447 436.5 468 c 128,-1,85
 436 489 436 489 436 492 c 0,86,87
 434 510 434 510 425 519.5 c 128,-1,88
 416 529 416 529 397 532 c 0,89,90
 392 533 392 533 381 533.5 c 128,-1,91
 370 534 370 534 364 534 c 1,92,-1
 364 534 l 1,46,47
389 411 m 1,93,-1
 389 393 l 1,94,-1
 381 391 l 2,95,96
 373 390 373 390 363 390 c 128,-1,97
 353 390 353 390 350 392 c 0,98,99
 343 394 343 394 340.5 400.5 c 128,-1,100
 338 407 338 407 342 414 c 0,101,102
 344 417 344 417 348.5 420 c 128,-1,103
 353 423 353 423 359 425 c 0,104,105
 363 426 363 426 373.5 427.5 c 128,-1,106
 384 429 384 429 387 429 c 2,107,-1
 389 430 l 1,108,-1
 389 411 l 1,109,-1
 389 411 l 1,93,-1
538 534 m 1,110,111
 523 533 523 533 503 530 c 128,-1,112
 483 527 483 527 467 522 c 1,113,-1
 464 522 l 1,114,-1
 464 354 l 1,115,-1
 520 354 l 1,116,-1
 520 420 l 1,117,-1
 520 486 l 1,118,-1
 526 487 l 2,119,120
 529 488 529 488 533 488.5 c 128,-1,121
 537 489 537 489 543 489 c 0,122,123
 551 489 551 489 553.5 488.5 c 128,-1,124
 556 488 556 488 559 487 c 0,125,126
 563 485 563 485 565.5 482 c 128,-1,127
 568 479 568 479 570 475 c 0,128,129
 571 472 571 472 571.5 462 c 128,-1,130
 572 452 572 452 572 413 c 2,131,-1
 572 354 l 1,132,-1
 627 354 l 1,133,-1
 627 420 l 2,134,135
 626 465 626 465 626 476.5 c 128,-1,136
 626 488 626 488 625 492 c 0,137,138
 623 499 623 499 620 504.5 c 128,-1,139
 617 510 617 510 612 515 c 0,140,141
 603 523 603 523 592 527.5 c 128,-1,142
 581 532 581 532 564 533 c 0,143,144
 556 534 556 534 552 534 c 128,-1,145
 548 534 548 534 538 534 c 1,146,-1
 538 534 l 1,110,111
909 533 m 1,147,148
 885 529 885 529 868 514.5 c 128,-1,149
 851 500 851 500 844 478 c 0,150,151
 840 467 840 467 839 458.5 c 128,-1,152
 838 450 838 450 838 436 c 0,153,154
 838 428 838 428 838.5 423 c 128,-1,155
 839 418 839 418 840 414 c 0,156,157
 845 392 845 392 858.5 377 c 128,-1,158
 872 362 872 362 893 355 c 0,159,160
 910 349 910 349 932 350 c 128,-1,161
 954 351 954 351 970 358 c 0,162,163
 990 367 990 367 1002.5 385 c 128,-1,164
 1015 403 1015 403 1018 428 c 0,165,166
 1021 457 1021 457 1012 481.5 c 128,-1,167
 1003 506 1003 506 985 519 c 0,168,169
 977 524 977 524 969.5 527.5 c 128,-1,170
 962 531 962 531 951 533 c 0,171,172
 943 534 943 534 929.5 534 c 128,-1,173
 916 534 916 534 909 533 c 1,174,-1
 909 533 l 1,147,148
940 488 m 1,175,176
 947 485 947 485 952 479 c 128,-1,177
 957 473 957 473 960 463 c 0,178,179
 961 459 961 459 961.5 455 c 128,-1,180
 962 451 962 451 962 442 c 256,181,182
 962 433 962 433 961.5 429.5 c 128,-1,183
 961 426 961 426 960 422 c 0,184,185
 957 412 957 412 952.5 406 c 128,-1,186
 948 400 948 400 941 397 c 0,187,188
 938 395 938 395 935.5 395 c 128,-1,189
 933 395 933 395 928 395 c 256,190,191
 923 395 923 395 921 395 c 128,-1,192
 919 395 919 395 916 397 c 0,193,194
 909 400 909 400 904.5 405.5 c 128,-1,195
 900 411 900 411 897 419 c 0,196,197
 895 426 895 426 894.5 438.5 c 128,-1,198
 894 451 894 451 896 459 c 0,199,200
 898 468 898 468 901.5 474.5 c 128,-1,201
 905 481 905 481 911 485 c 256,202,203
 917 489 917 489 925 490 c 128,-1,204
 933 491 933 491 940 488 c 1,205,-1
 940 488 l 1,175,176
750 533 m 1,206,207
 734 531 734 531 721 528 c 128,-1,208
 708 525 708 525 697 520 c 0,209,210
 671 508 671 508 658 486.5 c 128,-1,211
 645 465 645 465 645 435 c 0,212,213
 645 406 645 406 657.5 386 c 128,-1,214
 670 366 670 366 693 358 c 0,215,216
 707 353 707 353 723 353 c 128,-1,217
 739 353 739 353 752 357 c 0,218,219
 755 358 755 358 757.5 358.5 c 128,-1,220
 760 359 760 359 760 359 c 257,221,222
 760 359 760 359 759 350.5 c 128,-1,223
 758 342 758 342 757 338 c 0,224,225
 754 328 754 328 747 321.5 c 128,-1,226
 740 315 740 315 729 312 c 0,227,228
 723 310 723 310 707.5 310 c 128,-1,229
 692 310 692 310 684 312 c 0,230,231
 677 313 677 313 669 315.5 c 128,-1,232
 661 318 661 318 655 321 c 2,233,-1
 649 324 l 1,234,-1
 649 273 l 1,235,-1
 659 270 l 2,236,237
 671 266 671 266 682.5 264 c 128,-1,238
 694 262 694 262 708 262 c 0,239,240
 739 262 739 262 761.5 272 c 128,-1,241
 784 282 784 282 797 301 c 0,242,243
 803 309 803 309 806.5 320 c 128,-1,244
 810 331 810 331 812 345 c 0,245,246
 813 352 813 352 813 405 c 128,-1,247
 813 458 813 458 812 475 c 2,248,-1
 812 487 l 1,249,-1
 818 487 l 1,250,-1
 825 487 l 1,251,-1
 834 506 l 2,252,253
 838 514 838 514 840.5 519.5 c 128,-1,254
 843 525 843 525 843 526 c 1,255,256
 842 526 842 526 832 528 c 128,-1,257
 822 530 822 530 812 531 c 0,258,259
 805 532 805 532 797 532.5 c 128,-1,260
 789 533 789 533 777 533 c 0,261,262
 767 533 767 533 759.5 533 c 128,-1,263
 752 533 752 533 750 533 c 1,264,-1
 750 533 l 1,206,207
759 476 m 1,265,266
 759 470 759 470 759.5 457 c 128,-1,267
 760 444 760 444 760 432 c 2,268,-1
 760 401 l 1,269,-1
 757 400 l 2,270,271
 748 398 748 398 739 398 c 128,-1,272
 730 398 730 398 724 400 c 0,273,274
 713 404 713 404 707.5 413.5 c 128,-1,275
 702 423 702 423 701 438 c 0,276,277
 701 450 701 450 703.5 458.5 c 128,-1,278
 706 467 706 467 712 474 c 0,279,280
 719 481 719 481 729.5 485 c 128,-1,281
 740 489 740 489 754 489 c 2,282,-1
 758 490 l 1,283,-1
 759 476 l 1,284,-1
 759 476 l 1,265,266
213 466 m 1,285,286
 213 394 213 394 211 373 c 128,-1,287
 209 352 209 352 201 337 c 0,288,289
 197 328 197 328 187.5 320 c 128,-1,290
 178 312 178 312 165 305 c 0,291,292
 161 303 161 303 160 302.5 c 128,-1,293
 159 302 159 302 160 301 c 2,294,295
 160 301 160 301 167.5 297.5 c 128,-1,296
 175 294 175 294 186 289 c 2,297,-1
 210 277 l 1,298,-1
 215 280 l 2,299,300
 240 293 240 293 252 312 c 128,-1,301
 264 331 264 331 267 363 c 0,302,303
 267 367 267 367 267.5 391.5 c 128,-1,304
 268 416 268 416 268 451 c 2,305,-1
 269 530 l 1,306,-1
 213 530 l 1,307,-1
 213 466 l 1,308,-1
 213 466 l 1,285,286
EndSplineSet
Validated: 37
EndChar

StartChar: uniE61E
Encoding: 58910 58910 34
Width: 1024
Flags: W
LayerCount: 2
Fore
SplineSet
10 467 m 1,0,-1
 10 299 l 1,1,-1
 290 299 l 1,2,-1
 290 243 l 1,3,-1
 513 243 l 1,4,-1
 513 299 l 1,5,-1
 1014 299 l 1,6,-1
 1014 635 l 1,7,-1
 10 635 l 1,8,-1
 10 467 l 1,9,-1
 10 467 l 1,0,-1
290 467 m 1,10,-1
 290 355 l 1,11,-1
 233 355 l 1,12,-1
 233 522 l 1,13,-1
 179 522 l 1,14,-1
 179 355 l 1,15,-1
 65 355 l 1,16,-1
 65 579 l 1,17,-1
 290 579 l 1,18,-1
 290 467 l 1,19,-1
 290 467 l 1,10,-1
569 467 m 1,20,-1
 568 355 l 1,21,-1
 459 356 l 1,22,-1
 459 299 l 1,23,-1
 344 299 l 1,24,-1
 344 579 l 1,25,-1
 569 579 l 1,26,-1
 569 467 l 1,27,-1
 569 467 l 1,20,-1
959 467 m 1,28,-1
 959 355 l 1,29,-1
 903 355 l 1,30,-1
 903 522 l 1,31,-1
 847 522 l 1,32,-1
 847 354 l 1,33,-1
 791 356 l 1,34,-1
 791 522 l 1,35,-1
 736 522 l 1,36,-1
 736 355 l 1,37,-1
 624 355 l 1,38,-1
 624 579 l 1,39,-1
 959 579 l 1,40,-1
 959 467 l 1,41,-1
 959 467 l 1,28,-1
459 467 m 1,42,-1
 459 412 l 1,43,-1
 511 412 l 1,44,-1
 511 522 l 1,45,-1
 459 522 l 1,46,-1
 459 467 l 1,47,-1
 459 467 l 1,42,-1
EndSplineSet
Validated: 5
EndChar

StartChar: uniE61F
Encoding: 58911 58911 35
Width: 1024
Flags: W
LayerCount: 2
Fore
SplineSet
448 595 m 1,0,-1
 434 593 l 1,1,-1
 434 355 l 1,2,-1
 472 355 l 1,3,-1
 472 475 l 1,4,-1
 479 480 l 2,5,6
 482 483 482 483 486 485.5 c 128,-1,7
 490 488 490 488 492 490 c 0,8,9
 499 493 499 493 510 493 c 128,-1,10
 521 493 521 493 527 489 c 0,11,12
 535 484 535 484 537 472 c 128,-1,13
 539 460 539 460 539 413 c 2,14,-1
 539 355 l 1,15,-1
 580 355 l 1,16,-1
 580 412 l 2,17,18
 580 459 580 459 578 475 c 128,-1,19
 576 491 576 491 568 502 c 0,20,21
 556 521 556 521 530 524 c 128,-1,22
 504 527 504 527 483 512 c 0,23,24
 480 509 480 509 477 507 c 128,-1,25
 474 505 474 505 473 505 c 2,26,27
 473 505 473 505 472.5 518.5 c 128,-1,28
 472 532 472 532 472 551 c 0,29,30
 471 590 471 590 469 594 c 128,-1,31
 467 598 467 598 448 595 c 1,32,-1
 448 595 l 1,0,-1
948 570 m 1,33,34
 944 569 944 569 941 568 c 128,-1,35
 938 567 938 567 937 566 c 0,36,37
 937 565 937 565 935.5 558.5 c 128,-1,38
 934 552 934 552 933 544 c 0,39,40
 930 525 930 525 928.5 521.5 c 128,-1,41
 927 518 927 518 922 518 c 0,42,43
 913 518 913 518 909 515 c 128,-1,44
 905 512 905 512 902 502 c 0,45,46
 900 498 900 498 899 494 c 128,-1,47
 898 490 898 490 898 489 c 2,48,49
 898 489 898 489 902.5 488.5 c 128,-1,50
 907 488 907 488 913 488 c 2,51,-1
 929 488 l 1,52,-1
 929 442 l 2,53,54
 929 423 929 423 929.5 406 c 128,-1,55
 930 389 930 389 931 384 c 0,56,57
 935 363 935 363 957 355.5 c 128,-1,58
 979 348 979 348 1003 359 c 2,59,-1
 1012 363 l 1,60,-1
 1009 374 l 2,61,62
 1008 379 1008 379 1006.5 382.5 c 128,-1,63
 1005 386 1005 386 1005 387 c 1,64,65
 1004 387 1004 387 1000.5 386.5 c 128,-1,66
 997 386 997 386 993 385 c 0,67,68
 985 383 985 383 982.5 383.5 c 128,-1,69
 980 384 980 384 976 386 c 2,70,-1
 971 391 l 1,71,-1
 970 439 l 1,72,-1
 969 488 l 1,73,-1
 1008 488 l 1,74,-1
 1008 520 l 1,75,-1
 970 520 l 1,76,-1
 969 546 l 2,77,78
 969 567 969 567 966.5 570 c 128,-1,79
 964 573 964 573 948 570 c 1,80,-1
 948 570 l 1,33,34
12 508 m 1,81,-1
 12 492 l 1,82,-1
 113 492 l 1,83,-1
 113 525 l 1,84,-1
 12 525 l 1,85,-1
 12 508 l 1,86,-1
 12 508 l 1,81,-1
149 508 m 1,87,-1
 149 492 l 1,88,-1
 182 492 l 1,89,-1
 182 525 l 1,90,-1
 149 525 l 1,91,-1
 149 508 l 1,92,-1
 149 508 l 1,87,-1
310 522 m 1,93,94
 306 521 306 521 300 518.5 c 128,-1,95
 294 516 294 516 289 513 c 0,96,97
 282 509 282 509 278.5 505 c 128,-1,98
 275 501 275 501 271 494 c 0,99,100
 262 476 262 476 265 455.5 c 128,-1,101
 268 435 268 435 282 424 c 2,102,-1
 289 418 l 1,103,-1
 281 411 l 2,104,105
 273 403 273 403 271 394.5 c 128,-1,106
 269 386 269 386 273 378 c 0,107,108
 274 374 274 374 276 371 c 128,-1,109
 278 368 278 368 280 367 c 0,110,111
 283 365 283 365 282 363 c 128,-1,112
 281 361 281 361 273 353 c 0,113,114
 264 344 264 344 261 336.5 c 128,-1,115
 258 329 258 329 260 317 c 0,116,117
 262 307 262 307 269.5 298.5 c 128,-1,118
 277 290 277 290 289 285 c 0,119,120
 297 282 297 282 304 281.5 c 128,-1,121
 311 281 311 281 327 281 c 0,122,123
 370 280 370 280 393 296 c 128,-1,124
 416 312 416 312 416 341 c 0,125,126
 416 353 416 353 412 360.5 c 128,-1,127
 408 368 408 368 397 373 c 0,128,129
 388 377 388 377 378.5 379 c 128,-1,130
 369 381 369 381 340 383 c 0,131,132
 328 383 328 383 318.5 384.5 c 128,-1,133
 309 386 309 386 307 387 c 0,134,135
 306 388 306 388 305 390.5 c 128,-1,136
 304 393 304 393 304 395 c 0,137,138
 304 403 304 403 310 405.5 c 128,-1,139
 316 408 316 408 335 409 c 0,140,141
 359 410 359 410 373 417 c 128,-1,142
 387 424 387 424 395 440 c 0,143,144
 398 445 398 445 399 450 c 128,-1,145
 400 455 400 455 400 465 c 0,146,147
 400 473 400 473 399.5 479.5 c 128,-1,148
 399 486 399 486 399 488 c 0,149,150
 398 492 398 492 399.5 493 c 128,-1,151
 401 494 401 494 407 496 c 2,152,-1
 417 497 l 1,153,-1
 416 510 l 2,154,155
 415 523 415 523 411.5 524 c 128,-1,156
 408 525 408 525 394 518 c 0,157,158
 384 514 384 514 381 513 c 128,-1,159
 378 512 378 512 375 515 c 0,160,161
 365 521 365 521 345 523.5 c 128,-1,162
 325 526 325 526 310 522 c 1,163,-1
 310 522 l 1,93,94
348 494 m 1,164,165
 357 490 357 490 360.5 484.5 c 128,-1,166
 364 479 364 479 364 468 c 0,167,168
 365 458 365 458 364 455 c 128,-1,169
 363 452 363 452 358 446 c 0,170,171
 352 440 352 440 349 438.5 c 128,-1,172
 346 437 346 437 335 437 c 0,173,174
 322 436 322 436 314.5 440 c 128,-1,175
 307 444 307 444 303 452 c 0,176,177
 294 474 294 474 310 488.5 c 128,-1,178
 326 503 326 503 348 494 c 1,179,-1
 348 494 l 1,164,165
372 349 m 1,180,181
 384 344 384 344 381 332.5 c 128,-1,182
 378 321 378 321 364 314 c 0,183,184
 357 310 357 310 351.5 309 c 128,-1,185
 346 308 346 308 333 308 c 0,186,187
 316 308 316 308 308 311.5 c 128,-1,188
 300 315 300 315 297 323 c 0,189,190
 294 330 294 330 296 338 c 128,-1,191
 298 346 298 346 304 350 c 0,192,193
 308 354 308 354 313 354.5 c 128,-1,194
 318 355 318 355 337 354 c 0,195,196
 349 353 349 353 359 352 c 128,-1,197
 369 351 369 351 372 349 c 1,198,-1
 372 349 l 1,180,181
653 521 m 1,199,200
 626 514 626 514 611.5 492.5 c 128,-1,201
 597 471 597 471 597 438 c 0,202,203
 597 421 597 421 600.5 408.5 c 128,-1,204
 604 396 604 396 612 384 c 0,205,206
 633 354 633 354 677.5 353 c 128,-1,207
 722 352 722 352 744 382 c 0,208,209
 761 403 761 403 761.5 436.5 c 128,-1,210
 762 470 762 470 746 493 c 0,211,212
 733 512 733 512 706.5 520 c 128,-1,213
 680 528 680 528 653 521 c 1,214,-1
 653 521 l 1,199,200
692 492 m 1,215,216
 705 488 705 488 712.5 474.5 c 128,-1,217
 720 461 720 461 720 438 c 0,218,219
 720 432 720 432 719 424 c 128,-1,220
 718 416 718 416 717 411 c 0,221,222
 708 384 708 384 679.5 383 c 128,-1,223
 651 382 651 382 641 410 c 0,224,225
 638 420 638 420 638 438.5 c 128,-1,226
 638 457 638 457 641 467 c 0,227,228
 647 483 647 483 661 490 c 128,-1,229
 675 497 675 497 692 492 c 1,230,-1
 692 492 l 1,215,216
814 521 m 1,231,232
 795 516 795 516 785 504 c 128,-1,233
 775 492 775 492 775 474 c 0,234,235
 775 455 775 455 785 444.5 c 128,-1,236
 795 434 795 434 821 426 c 0,237,238
 839 420 839 420 846 416 c 128,-1,239
 853 412 853 412 856 406 c 0,240,241
 858 399 858 399 855 393.5 c 128,-1,242
 852 388 852 388 845 385 c 0,243,244
 838 383 838 383 823.5 384 c 128,-1,245
 809 385 809 385 798 388 c 0,246,247
 786 392 786 392 783 390.5 c 128,-1,248
 780 389 780 389 777 379 c 0,249,250
 774 370 774 370 774 368 c 128,-1,251
 774 366 774 366 777 364 c 0,252,253
 788 356 788 356 814.5 354 c 128,-1,254
 841 352 841 352 857 358 c 0,255,256
 874 363 874 363 884 376 c 128,-1,257
 894 389 894 389 894 406 c 0,258,259
 894 424 894 424 884 434.5 c 128,-1,260
 874 445 874 445 848 454 c 0,261,262
 842 456 842 456 835 458.5 c 128,-1,263
 828 461 828 461 825 462 c 0,264,265
 815 467 815 467 813 474 c 128,-1,266
 811 481 811 481 817 488 c 0,267,268
 823 493 823 493 834 494 c 128,-1,269
 845 495 845 495 861 491 c 0,270,271
 867 490 867 490 873 489 c 128,-1,272
 879 488 879 488 880 489 c 0,273,274
 881 489 881 489 882.5 492.5 c 128,-1,275
 884 496 884 496 885 501 c 0,276,277
 887 509 887 509 887 511 c 128,-1,278
 887 513 887 513 884 515 c 0,279,280
 876 521 876 521 852.5 523 c 128,-1,281
 829 525 829 525 814 521 c 1,282,-1
 814 521 l 1,231,232
12 440 m 1,283,-1
 12 423 l 1,284,-1
 182 423 l 1,285,-1
 182 456 l 1,286,-1
 12 456 l 1,287,-1
 12 440 l 1,288,-1
 12 440 l 1,283,-1
12 372 m 1,289,-1
 12 357 l 1,290,-1
 78 357 l 1,291,-1
 78 387 l 1,292,-1
 12 387 l 1,293,-1
 12 372 l 1,294,-1
 12 372 l 1,289,-1
115 372 m 1,295,-1
 115 357 l 1,296,-1
 182 357 l 1,297,-1
 182 387 l 1,298,-1
 115 387 l 1,299,-1
 115 372 l 1,300,-1
 115 372 l 1,295,-1
EndSplineSet
Validated: 37
EndChar

StartChar: uniE620
Encoding: 58912 58912 36
Width: 1024
Flags: W
LayerCount: 2
Fore
SplineSet
10 198 m 1,0,-1
 10 359 l 1,1,-1
 171 359 l 1,2,-1
 171 519 l 1,3,-1
 331 519 l 1,4,-1
 331 680 l 1,5,-1
 492 680 l 1,6,-1
 492 198 l 1,7,-1
 10 198 l 1,0,-1
532 680 m 1,8,9
 632 680 632 680 719.5 642 c 128,-1,10
 807 604 807 604 872.5 538.5 c 128,-1,11
 938 473 938 473 976 385.5 c 128,-1,12
 1014 298 1014 298 1014 198 c 1,13,-1
 532 198 l 1,14,-1
 532 680 l 1,15,-1
 532 680 l 1,8,9
EndSplineSet
Validated: 5
EndChar

StartChar: uniE621
Encoding: 58913 58913 37
Width: 1024
Flags: W
LayerCount: 2
Fore
SplineSet
714 788 m 1,0,1
 684 780 684 780 642 770 c 128,-1,2
 600 760 600 760 570 752 c 2,3,-1
 496 733 l 1,4,-1
 475 695 l 1,5,-1
 454 657 l 1,6,-1
 364 657 l 1,7,-1
 150 443 l 1,8,-1
 364 229 l 1,9,-1
 452 229 l 1,10,-1
 474 190 l 2,11,12
 483 174 483 174 493 161.5 c 128,-1,13
 503 149 503 149 508 148 c 0,14,15
 518 145 518 145 580.5 128 c 128,-1,16
 643 111 643 111 735 86 c 0,17,18
 758 80 758 80 775 76.5 c 128,-1,19
 792 73 792 73 792 73 c 2,20,21
 793 74 793 74 800 99 c 128,-1,22
 807 124 807 124 817 158 c 0,23,24
 826 191 826 191 837.5 234 c 128,-1,25
 849 277 849 277 856 303 c 2,26,-1
 873 366 l 1,27,-1
 852 401 l 2,28,29
 844 416 844 416 837.5 428 c 128,-1,30
 831 440 831 440 831 443 c 0,31,32
 831 445 831 445 837.5 457.5 c 128,-1,33
 844 470 844 470 853 485 c 2,34,-1
 874 521 l 1,35,-1
 859 573 l 2,36,37
 837 651 837 651 819 709 c 128,-1,38
 801 767 801 767 794 783 c 2,39,-1
 785 804 l 1,40,-1
 714 788 l 1,41,-1
 714 788 l 1,0,1
680 692 m 1,42,43
 679 690 679 690 661 657.5 c 128,-1,44
 643 625 643 625 618 583 c 2,45,-1
 557 478 l 1,46,-1
 429 478 l 2,47,48
 376 478 376 478 339.5 479 c 128,-1,49
 303 480 303 480 304 482 c 0,50,51
 306 483 306 483 329.5 508 c 128,-1,52
 353 533 353 533 384 567 c 0,53,54
 432 618 432 618 451.5 634 c 128,-1,55
 471 650 471 650 488 653 c 0,56,57
 498 655 498 655 527 662 c 128,-1,58
 556 669 556 669 585 677 c 0,59,60
 644 693 644 693 663.5 696 c 128,-1,61
 683 699 683 699 680 692 c 1,62,-1
 680 692 l 1,42,43
759 634 m 1,63,64
 762 624 762 624 771 592.5 c 128,-1,65
 780 561 780 561 789 526 c 2,66,-1
 812 441 l 1,67,-1
 792 369 l 2,68,69
 784 339 784 339 775.5 306.5 c 128,-1,70
 767 274 767 274 762 259 c 0,71,72
 758 243 758 243 753 233.5 c 128,-1,73
 748 224 748 224 746 227 c 0,74,75
 744 229 744 229 725 260.5 c 128,-1,76
 706 292 706 292 682 334 c 0,77,78
 652 386 652 386 639 414 c 128,-1,79
 626 442 626 442 628 449 c 0,80,81
 631 457 631 457 649.5 490.5 c 128,-1,82
 668 524 668 524 689 561 c 128,-1,83
 710 598 710 598 727.5 627 c 128,-1,84
 745 656 745 656 747 657 c 0,85,86
 749 657 749 657 752.5 650 c 128,-1,87
 756 643 756 643 759 634 c 1,88,-1
 759 634 l 1,63,64
588 350 m 1,89,90
 644 255 644 255 663.5 220 c 128,-1,91
 683 185 683 185 680 183 c 0,92,93
 679 181 679 181 646.5 188.5 c 128,-1,94
 614 196 614 196 570 207 c 2,95,-1
 462 236 l 1,96,-1
 384 315 l 2,97,98
 353 348 353 348 329.5 373 c 128,-1,99
 306 398 306 398 305 401 c 256,100,101
 304 404 304 404 337.5 405 c 128,-1,102
 371 406 371 406 429 406 c 2,103,-1
 556 404 l 1,104,-1
 588 350 l 1,105,-1
 588 350 l 1,89,90
EndSplineSet
Validated: 37
EndChar

StartChar: uniE622
Encoding: 58914 58914 38
Width: 1024
Flags: W
LayerCount: 2
Fore
SplineSet
780 477 m 1,0,-1
 774 487 l 1,1,2
 774 544 774 544 752 571.5 c 128,-1,3
 730 599 730 599 700 616 c 1,4,5
 709 619 709 619 717.5 622.5 c 128,-1,6
 726 626 726 626 728 637 c 1,7,8
 744 641 744 641 749 648 c 128,-1,9
 754 655 754 655 755 663 c 1,10,11
 760 666 760 666 769.5 673.5 c 128,-1,12
 779 681 779 681 777 695 c 1,13,14
 785 700 785 700 788.5 707 c 128,-1,15
 792 714 792 714 790 724 c 1,16,17
 798 733 798 733 800.5 740.5 c 128,-1,18
 803 748 803 748 799 755 c 1,19,20
 809 768 809 768 807 775.5 c 128,-1,21
 805 783 805 783 801 789 c 1,22,23
 808 803 808 803 801.5 814.5 c 128,-1,24
 795 826 795 826 775 823 c 1,25,26
 766 836 766 836 752.5 836 c 128,-1,27
 739 836 739 836 736 836 c 0,28,29
 733 840 733 840 727.5 842.5 c 128,-1,30
 722 845 722 845 710 843 c 1,31,32
 702 851 702 851 693 850.5 c 128,-1,33
 684 850 684 850 674 847 c 1,34,35
 663 856 663 856 655 852 c 128,-1,36
 647 848 647 848 638 846 c 1,37,38
 625 850 625 850 619.5 846.5 c 128,-1,39
 614 843 614 843 607 840 c 1,40,41
 593 843 593 843 586 838 c 128,-1,42
 579 833 579 833 572 826 c 1,43,-1
 561 826 l 1,44,45
 539 813 539 813 527.5 790.5 c 128,-1,46
 516 768 516 768 512 755 c 1,47,48
 508 768 508 768 496.5 790.5 c 128,-1,49
 485 813 485 813 462 826 c 1,50,-1
 452 826 l 1,51,52
 444 833 444 833 437.5 838 c 128,-1,53
 431 843 431 843 417 840 c 1,54,55
 410 843 410 843 404.5 846.5 c 128,-1,56
 399 850 399 850 386 846 c 0,57,58
 380 847 380 847 374.5 850 c 128,-1,59
 369 853 369 853 363 853 c 1,60,-1
 363 853 l 1,61,62
 360 852 360 852 356.5 851 c 128,-1,63
 353 850 353 850 350 847 c 0,64,65
 340 850 340 850 331 850.5 c 128,-1,66
 322 851 322 851 314 843 c 1,67,68
 302 845 302 845 296.5 842.5 c 128,-1,69
 291 840 291 840 288 836 c 0,70,71
 285 836 285 836 271.5 836 c 128,-1,72
 258 836 258 836 249 823 c 1,73,74
 229 826 229 826 222.5 814.5 c 128,-1,75
 216 803 216 803 223 789 c 1,76,77
 219 783 219 783 217 775.5 c 128,-1,78
 215 768 215 768 225 755 c 1,79,80
 221 748 221 748 223.5 740.5 c 128,-1,81
 226 733 226 733 234 724 c 1,82,83
 232 714 232 714 235.5 707 c 128,-1,84
 239 700 239 700 247 695 c 1,85,86
 245 681 245 681 254.5 673.5 c 128,-1,87
 264 666 264 666 269 663 c 1,88,89
 270 655 270 655 275 648 c 128,-1,90
 280 641 280 641 296 637 c 1,91,92
 298 626 298 626 306.5 622.5 c 128,-1,93
 315 619 315 619 324 616 c 1,94,95
 294 599 294 599 272 571.5 c 128,-1,96
 250 544 250 544 250 487 c 1,97,-1
 244 477 l 1,98,99
 210 456 210 456 191.5 398.5 c 128,-1,100
 173 341 173 341 221 287 c 1,101,102
 224 270 224 270 229 256.5 c 128,-1,103
 234 243 234 243 239 229 c 0,104,105
 246 175 246 175 280 148 c 128,-1,106
 314 121 314 121 326 118 c 1,107,108
 344 105 344 105 363.5 92.5 c 128,-1,109
 383 80 383 80 409 71 c 1,110,111
 433 46 433 46 459 35.5 c 128,-1,112
 485 25 485 25 511 25 c 0,113,114
 512 25 512 25 512 25 c 129,-1,115
 512 25 512 25 513 25 c 0,116,117
 539 25 539 25 565 35.5 c 128,-1,118
 591 46 591 46 615 71 c 1,119,120
 641 80 641 80 660.5 92.5 c 128,-1,121
 680 105 680 105 698 118 c 1,122,123
 710 121 710 121 744 148 c 128,-1,124
 778 175 778 175 785 229 c 0,125,126
 790 243 790 243 795 256.5 c 128,-1,127
 800 270 800 270 803 287 c 1,128,129
 851 341 851 341 832.5 398.5 c 128,-1,130
 814 456 814 456 780 477 c 1,131,-1
 780 477 l 1,0,-1
739 490 m 1,132,133
 738 478 738 478 713.5 493.5 c 128,-1,134
 689 509 689 509 662.5 532 c 128,-1,135
 636 555 636 555 617 576.5 c 128,-1,136
 598 598 598 598 608 599 c 0,137,138
 663 609 663 609 701.5 579 c 128,-1,139
 740 549 740 549 739 490 c 1,140,-1
 739 490 l 1,132,133
568 805 m 1,141,142
 569 800 569 800 570.5 797 c 128,-1,143
 572 794 572 794 573 793 c 1,144,145
 580 800 580 800 586 807 c 128,-1,146
 592 814 592 814 600 821 c 1,147,148
 600 817 600 817 599.5 813 c 128,-1,149
 599 809 599 809 604 806 c 1,150,151
 608 812 608 812 614 817.5 c 128,-1,152
 620 823 620 823 628 827 c 1,153,154
 625 820 625 820 626.5 817 c 128,-1,155
 628 814 628 814 630 812 c 0,156,157
 636 817 636 817 643 822 c 128,-1,158
 650 827 650 827 661 832 c 1,159,160
 658 828 658 828 655.5 824 c 128,-1,161
 653 820 653 820 658 816 c 1,162,163
 664 820 664 820 671.5 823.5 c 128,-1,164
 679 827 679 827 694 830 c 1,165,166
 691 826 691 826 686.5 822.5 c 128,-1,167
 682 819 682 819 686 815 c 1,168,169
 694 818 694 818 703 820 c 128,-1,170
 712 822 712 822 721 824 c 1,171,172
 717 820 717 820 714 816 c 128,-1,173
 711 812 711 812 715 809 c 1,174,175
 723 812 723 812 734.5 814.5 c 128,-1,176
 746 817 746 817 757 814 c 1,177,-1
 747 804 l 2,178,179
 747 803 747 803 760.5 803 c 128,-1,180
 774 803 774 803 785 803 c 1,181,182
 781 797 781 797 777 790 c 128,-1,183
 773 783 773 783 771 773 c 0,184,185
 772 772 772 772 777 772.5 c 128,-1,186
 782 773 782 773 787 773 c 1,187,188
 782 761 782 761 774 756 c 128,-1,189
 766 751 766 751 764 746 c 0,190,191
 767 744 767 744 771.5 744 c 128,-1,192
 776 744 776 744 781 746 c 1,193,194
 777 738 777 738 770 731.5 c 128,-1,195
 763 725 763 725 756 718 c 1,196,197
 758 717 758 717 761 716.5 c 128,-1,198
 764 716 764 716 771 717 c 1,199,200
 765 710 765 710 757.5 704 c 128,-1,201
 750 698 750 698 742 692 c 1,202,203
 743 691 743 691 747.5 690.5 c 128,-1,204
 752 690 752 690 757 690 c 1,205,206
 749 682 749 682 739.5 677 c 128,-1,207
 730 672 730 672 720 667 c 1,208,209
 725 664 725 664 728.5 663.5 c 128,-1,210
 732 663 732 663 736 664 c 1,211,212
 729 658 729 658 718.5 654.5 c 128,-1,213
 708 651 708 651 697 647 c 1,214,215
 699 644 699 644 701.5 643 c 128,-1,216
 704 642 704 642 709 641 c 1,217,218
 697 634 697 634 683.5 634.5 c 128,-1,219
 670 635 670 635 665 632 c 1,220,221
 667 629 667 629 669.5 626.5 c 128,-1,222
 672 624 672 624 676 622 c 1,223,224
 658 621 658 621 620 628.5 c 128,-1,225
 582 636 582 636 572 675 c 1,226,227
 591 696 591 696 626.5 720.5 c 128,-1,228
 662 745 662 745 721 776 c 1,229,230
 675 760 675 760 634 739 c 128,-1,231
 593 718 593 718 559 689 c 1,232,233
 518 708 518 708 533.5 747 c 128,-1,234
 549 786 549 786 568 805 c 1,235,-1
 568 805 l 1,141,142
512 620 m 1,236,-1
 512 620 l 1,237,238
 541 620 541 620 569.5 602 c 128,-1,239
 598 584 598 584 598 564 c 0,240,241
 597 546 597 546 574 533 c 128,-1,242
 551 520 551 520 512 520 c 0,243,244
 474 521 474 521 450.5 536 c 128,-1,245
 427 551 427 551 427 569 c 0,246,247
 427 583 427 583 453 602 c 128,-1,248
 479 621 479 621 512 620 c 1,249,-1
 512 620 l 1,236,-1
317 641 m 1,250,251
 322 642 322 642 324 643 c 128,-1,252
 326 644 326 644 329 647 c 1,253,254
 318 651 318 651 307 654.5 c 128,-1,255
 296 658 296 658 290 664 c 1,256,257
 293 663 293 663 297 663.5 c 128,-1,258
 301 664 301 664 306 667 c 1,259,260
 296 672 296 672 286 677 c 128,-1,261
 276 682 276 682 268 690 c 1,262,263
 273 690 273 690 278 690.5 c 128,-1,264
 283 691 283 691 284 692 c 1,265,266
 275 698 275 698 268 704 c 128,-1,267
 261 710 261 710 254 717 c 1,268,269
 261 716 261 716 264.5 716.5 c 128,-1,270
 268 717 268 717 270 718 c 1,271,272
 263 725 263 725 255.5 731.5 c 128,-1,273
 248 738 248 738 244 746 c 1,274,275
 249 744 249 744 254 744 c 128,-1,276
 259 744 259 744 262 746 c 0,277,278
 260 751 260 751 252 756 c 128,-1,279
 244 761 244 761 239 773 c 1,280,281
 244 773 244 773 249 772.5 c 128,-1,282
 254 772 254 772 255 773 c 0,283,284
 253 783 253 783 249 789.5 c 128,-1,285
 245 796 245 796 240 802 c 1,286,287
 252 803 252 803 265.5 803 c 128,-1,288
 279 803 279 803 278 804 c 2,289,-1
 269 814 l 1,290,291
 280 817 280 817 291 814.5 c 128,-1,292
 302 812 302 812 311 809 c 1,293,294
 315 812 315 812 312 816 c 128,-1,295
 309 820 309 820 305 824 c 1,296,297
 314 822 314 822 323 820 c 128,-1,298
 332 818 332 818 340 815 c 1,299,300
 344 819 344 819 339.5 822.5 c 128,-1,301
 335 826 335 826 331 830 c 1,302,303
 346 827 346 827 354 823.5 c 128,-1,304
 362 820 362 820 368 816 c 1,305,306
 373 820 373 820 370.5 824 c 128,-1,307
 368 828 368 828 364 832 c 1,308,309
 376 827 376 827 382.5 822 c 128,-1,310
 389 817 389 817 395 812 c 0,311,312
 397 814 397 814 399 817 c 128,-1,313
 401 820 401 820 397 827 c 1,314,315
 405 823 405 823 411 817.5 c 128,-1,316
 417 812 417 812 422 806 c 1,317,318
 427 809 427 809 426.5 813 c 128,-1,319
 426 817 426 817 426 821 c 1,320,321
 434 814 434 814 440 807 c 128,-1,322
 446 800 446 800 453 793 c 1,323,324
 454 794 454 794 455 797 c 128,-1,325
 456 800 456 800 457 805 c 1,326,327
 477 786 477 786 492.5 747 c 128,-1,328
 508 708 508 708 467 689 c 1,329,330
 432 718 432 718 391 739 c 128,-1,331
 350 760 350 760 305 776 c 1,332,333
 363 745 363 745 399 720.5 c 128,-1,334
 435 696 435 696 454 675 c 1,335,336
 444 636 444 636 406 628.5 c 128,-1,337
 368 621 368 621 350 622 c 1,338,339
 353 624 353 624 356 626.5 c 128,-1,340
 359 629 359 629 360 632 c 0,341,342
 356 635 356 635 342.5 634.5 c 128,-1,343
 329 634 329 634 317 641 c 1,344,-1
 317 641 l 1,250,251
407 602 m 1,345,346
 417 600 417 600 398.5 578.5 c 128,-1,347
 380 557 380 557 353 534 c 128,-1,348
 326 511 326 511 302 496 c 128,-1,349
 278 481 278 481 277 492 c 0,350,351
 275 551 275 551 314 581 c 128,-1,352
 353 611 353 611 407 602 c 1,353,-1
 407 602 l 1,345,346
245 300 m 1,354,355
 216 323 216 323 214 376 c 128,-1,356
 212 429 212 429 265 459 c 0,357,358
 280 463 280 463 284 436.5 c 128,-1,359
 288 410 288 410 283.5 378 c 128,-1,360
 279 346 279 346 268 320 c 128,-1,361
 257 294 257 294 245 300 c 1,362,-1
 245 300 l 1,354,355
391 141 m 1,363,364
 376 132 376 132 342.5 139.5 c 128,-1,365
 309 147 309 147 282 186 c 0,366,367
 263 220 263 220 264 249.5 c 128,-1,368
 265 279 265 279 278 289 c 0,369,370
 297 301 297 301 324.5 287.5 c 128,-1,371
 352 274 352 274 375 247 c 0,372,373
 395 223 395 223 401.5 188.5 c 128,-1,374
 408 154 408 154 391 141 c 1,375,-1
 391 141 l 1,363,364
350 335 m 1,376,377
 320 354 320 354 315.5 392 c 128,-1,378
 311 430 311 430 334 464 c 256,379,380
 357 498 357 498 393.5 509 c 128,-1,381
 430 520 430 520 459 501 c 0,382,383
 489 482 489 482 493.5 444 c 128,-1,384
 498 406 498 406 475 371 c 0,385,386
 452 337 452 337 415.5 326 c 128,-1,387
 379 315 379 315 350 335 c 1,388,-1
 350 335 l 1,376,377
512 51 m 1,389,390
 477 49 477 49 448 71 c 128,-1,391
 419 93 419 93 420 103 c 0,392,393
 419 119 419 119 452.5 129 c 128,-1,394
 486 139 486 139 514 139 c 0,395,396
 543 140 543 140 573 131 c 128,-1,397
 603 122 603 122 603 108 c 0,398,399
 603 95 603 95 574.5 72.5 c 128,-1,400
 546 50 546 50 512 51 c 1,401,-1
 512 51 l 1,389,390
608 253 m 1,402,403
 608 217 608 217 580.5 191.5 c 128,-1,404
 553 166 553 166 514 166 c 256,405,406
 475 166 475 166 447.5 191 c 128,-1,407
 420 216 420 216 420 252 c 2,408,409
 420 252 420 252 420 252.5 c 128,-1,410
 420 253 420 253 420 253 c 2,411,412
 420 289 420 289 447 314.5 c 128,-1,413
 474 340 474 340 513 340 c 256,414,415
 552 340 552 340 580 315 c 128,-1,416
 608 290 608 290 608 254 c 2,417,418
 608 254 608 254 608 253.5 c 128,-1,419
 608 253 608 253 608 253 c 1,420,-1
 608 253 l 1,402,403
549 376 m 1,421,422
 526 410 526 410 530.5 448 c 128,-1,423
 535 486 535 486 565 505 c 0,424,425
 594 525 594 525 630.5 514 c 128,-1,426
 667 503 667 503 690 469 c 0,427,428
 713 434 713 434 708.5 396 c 128,-1,429
 704 358 704 358 674 339 c 0,430,431
 645 320 645 320 608.5 331 c 128,-1,432
 572 342 572 342 549 376 c 1,433,-1
 549 376 l 1,421,422
740 184 m 1,434,435
 709 142 709 142 674.5 136 c 128,-1,436
 640 130 640 130 624 141 c 0,437,438
 609 156 609 156 618 194 c 128,-1,439
 627 232 627 232 649 258 c 1,440,-1
 649 258 l 1,441,442
 674 286 674 286 699 300.5 c 128,-1,443
 724 315 724 315 742 301 c 0,444,445
 755 288 755 288 758 250 c 128,-1,446
 761 212 761 212 740 184 c 1,447,-1
 740 184 l 1,434,435
771 302 m 1,448,449
 758 297 758 297 747.5 322.5 c 128,-1,450
 737 348 737 348 732.5 380.5 c 128,-1,451
 728 413 728 413 731.5 439.5 c 128,-1,452
 735 466 735 466 751 461 c 0,453,454
 803 431 803 431 801 378 c 128,-1,455
 799 325 799 325 771 302 c 1,456,-1
 771 302 l 1,448,449
EndSplineSet
Validated: 37
EndChar

StartChar: uniE623
Encoding: 58915 58915 39
Width: 1024
Flags: W
LayerCount: 2
Fore
SplineSet
774 457 m 1,0,1
 738 457 738 457 706.5 457 c 128,-1,2
 675 457 675 457 675 457 c 1,3,-1
 702 581 l 1,4,5
 702 581 702 581 740 581 c 128,-1,6
 778 581 778 581 797 581 c 0,7,8
 843 581 843 581 857.5 563 c 128,-1,9
 872 545 872 545 872 527 c 0,10,11
 872 502 872 502 851.5 479.5 c 128,-1,12
 831 457 831 457 774 457 c 1,13,-1
 774 457 l 1,0,1
836 349 m 1,14,15
 836 324 836 324 815.5 301.5 c 128,-1,16
 795 279 795 279 737 279 c 0,17,18
 701 279 701 279 670 279 c 128,-1,19
 639 279 639 279 639 279 c 1,20,-1
 665 404 l 1,21,22
 665 404 665 404 703 404 c 128,-1,23
 741 404 741 404 760 404 c 0,24,25
 806 404 806 404 821 385.5 c 128,-1,26
 836 367 836 367 836 349 c 1,27,-1
 836 349 l 1,14,15
544 568 m 1,28,29
 509 568 509 568 477.5 568 c 128,-1,30
 446 568 446 568 446 568 c 1,31,-1
 473 693 l 1,32,33
 473 693 473 693 510.5 693 c 128,-1,34
 548 693 548 693 567 693 c 0,35,36
 613 693 613 693 628 675 c 128,-1,37
 643 657 643 657 643 639 c 0,38,39
 643 613 643 613 622.5 590.5 c 128,-1,40
 602 568 602 568 544 568 c 1,41,-1
 544 568 l 1,28,29
609 451 m 1,42,43
 609 425 609 425 588.5 402.5 c 128,-1,44
 568 380 568 380 510 380 c 0,45,46
 475 380 475 380 443.5 380 c 128,-1,47
 412 380 412 380 412 380 c 1,48,-1
 439 505 l 1,49,50
 439 505 439 505 476.5 505 c 128,-1,51
 514 505 514 505 533 505 c 0,52,53
 579 505 579 505 594 487 c 128,-1,54
 609 469 609 469 609 451 c 1,55,-1
 609 451 l 1,42,43
573 255 m 1,56,57
 573 230 573 230 552.5 207.5 c 128,-1,58
 532 185 532 185 474 185 c 0,59,60
 438 185 438 185 406.5 185 c 128,-1,61
 375 185 375 185 375 185 c 1,62,-1
 402 310 l 1,63,64
 402 310 402 310 440 310 c 128,-1,65
 478 310 478 310 497 310 c 0,66,67
 543 310 543 310 558 291.5 c 128,-1,68
 573 273 573 273 573 255 c 1,69,-1
 573 255 l 1,56,57
281 568 m 1,70,71
 245 568 245 568 214 568 c 128,-1,72
 183 568 183 568 183 568 c 1,73,-1
 209 693 l 1,74,75
 209 693 209 693 247 693 c 128,-1,76
 285 693 285 693 304 693 c 0,77,78
 350 693 350 693 365 675 c 128,-1,79
 380 657 380 657 380 639 c 0,80,81
 380 613 380 613 359.5 590.5 c 128,-1,82
 339 568 339 568 281 568 c 1,83,-1
 281 568 l 1,70,71
346 451 m 1,84,85
 346 425 346 425 325.5 402.5 c 128,-1,86
 305 380 305 380 247 380 c 0,87,88
 211 380 211 380 179.5 380 c 128,-1,89
 148 380 148 380 148 380 c 1,90,-1
 175 505 l 1,91,92
 175 505 175 505 213 505 c 128,-1,93
 251 505 251 505 270 505 c 0,94,95
 316 505 316 505 331 487 c 128,-1,96
 346 469 346 469 346 451 c 1,97,-1
 346 451 l 1,84,85
EndSplineSet
Validated: 5
EndChar

StartChar: uniE624
Encoding: 58916 58916 40
Width: 1024
Flags: W
LayerCount: 2
Fore
SplineSet
494 850 m 1,0,1
 491 850 491 850 478.5 848.5 c 128,-1,2
 466 847 466 847 452 846 c 0,3,4
 415 841 415 841 383 830.5 c 128,-1,5
 351 820 351 820 328 804 c 0,6,7
 320 799 320 799 317.5 798.5 c 128,-1,8
 315 798 315 798 309 801 c 0,9,10
 301 805 301 805 283.5 805.5 c 128,-1,11
 266 806 266 806 255 802 c 0,12,13
 240 797 240 797 230.5 786.5 c 128,-1,14
 221 776 221 776 218 761 c 0,15,16
 216 749 216 749 218.5 736.5 c 128,-1,17
 221 724 221 724 227 715 c 0,18,19
 230 710 230 710 241 702 c 128,-1,20
 252 694 252 694 260 691 c 0,21,22
 261 691 261 691 260 681 c 128,-1,23
 259 671 259 671 257 658 c 0,24,25
 253 637 253 637 252.5 622 c 128,-1,26
 252 607 252 607 253 576 c 0,27,28
 253 556 253 556 254.5 535 c 128,-1,29
 256 514 256 514 258 505 c 0,30,31
 259 495 259 495 261 483 c 128,-1,32
 263 471 263 471 263 463 c 2,33,-1
 265 445 l 1,34,-1
 254 443 l 2,35,36
 242 441 242 441 227 433 c 128,-1,37
 212 425 212 425 210 419 c 256,38,39
 208 413 208 413 210 406 c 128,-1,40
 212 399 212 399 219 392 c 0,41,42
 226 384 226 384 232.5 384.5 c 128,-1,43
 239 385 239 385 251 393 c 2,44,-1
 261 399 l 1,45,-1
 261 288 l 2,46,47
 261 204 261 204 261.5 188 c 128,-1,48
 262 172 262 172 266 162 c 0,49,50
 272 148 272 148 282 132.5 c 128,-1,51
 292 117 292 117 303 105 c 2,52,-1
 315 93 l 1,53,-1
 303 85 l 2,54,55
 293 78 293 78 286 68 c 128,-1,56
 279 58 279 58 279 49 c 0,57,58
 279 46 279 46 281 42.5 c 128,-1,59
 283 39 283 39 288 35 c 0,60,61
 293 29 293 29 297 27.5 c 128,-1,62
 301 26 301 26 308 26 c 0,63,64
 316 26 316 26 320 28 c 128,-1,65
 324 30 324 30 333 37 c 0,66,67
 338 42 338 42 345 46.5 c 128,-1,68
 352 51 352 51 356 54 c 2,69,-1
 366 59 l 1,70,-1
 389 51 l 2,71,72
 417 42 417 42 439.5 38.5 c 128,-1,73
 462 35 462 35 499 35 c 0,74,75
 545 36 545 36 583.5 42.5 c 128,-1,76
 622 49 622 49 650 62 c 0,77,78
 655 64 655 64 660 66 c 128,-1,79
 665 68 665 68 667 68 c 0,80,81
 668 68 668 68 675 62 c 128,-1,82
 682 56 682 56 690 48 c 0,83,84
 704 33 704 33 707.5 30.5 c 128,-1,85
 711 28 711 28 719 30 c 0,86,87
 729 31 729 31 736 38 c 128,-1,88
 743 45 743 45 743 54 c 0,89,90
 743 64 743 64 738 72.5 c 128,-1,91
 733 81 733 81 723 91 c 2,92,-1
 711 101 l 1,93,-1
 722 117 l 2,94,95
 738 139 738 139 748 165 c 128,-1,96
 758 191 758 191 765 227 c 0,97,98
 768 249 768 249 769 289 c 128,-1,99
 770 329 770 329 767 376 c 0,100,101
 767 388 767 388 766.5 396.5 c 128,-1,102
 766 405 766 405 766 405 c 257,103,104
 766 405 766 405 769.5 403.5 c 128,-1,105
 773 402 773 402 777 399 c 0,106,107
 787 393 787 393 794 393 c 128,-1,108
 801 393 801 393 807 400 c 0,109,110
 812 405 812 405 814 410.5 c 128,-1,111
 816 416 816 416 815 425 c 0,112,113
 814 433 814 433 806.5 438 c 128,-1,114
 799 443 799 443 782 448 c 0,115,116
 775 449 775 449 770 451 c 128,-1,117
 765 453 765 453 764 453 c 1,118,119
 764 454 764 454 763 482.5 c 128,-1,120
 762 511 762 511 762 550 c 0,121,122
 760 625 760 625 758.5 644 c 128,-1,123
 757 663 757 663 748 701 c 0,124,125
 748 703 748 703 748 704.5 c 128,-1,126
 748 706 748 706 750 706 c 0,127,128
 754 706 754 706 765 715 c 128,-1,129
 776 724 776 724 780 731 c 0,130,131
 789 746 789 746 788 763.5 c 128,-1,132
 787 781 787 781 776 796 c 256,133,134
 765 811 765 811 744 816 c 128,-1,135
 723 821 723 821 700 813 c 2,136,-1
 685 808 l 1,137,-1
 673 816 l 2,138,139
 660 825 660 825 640 833 c 128,-1,140
 620 841 620 841 601 845 c 0,141,142
 585 848 585 848 546 850 c 128,-1,143
 507 852 507 852 494 850 c 1,144,-1
 494 850 l 1,0,1
587 838 m 1,145,146
 647 828 647 828 682 798 c 128,-1,147
 717 768 717 768 736 710 c 0,148,149
 747 676 747 676 750 643.5 c 128,-1,150
 753 611 753 611 755 513 c 0,151,152
 756 464 756 464 757 414.5 c 128,-1,153
 758 365 758 365 760 344 c 0,154,155
 761 324 761 324 761 302 c 128,-1,156
 761 280 761 280 761 270 c 0,157,158
 758 234 758 234 750.5 202 c 128,-1,159
 743 170 743 170 731 148 c 0,160,161
 724 133 724 133 711.5 117.5 c 128,-1,162
 699 102 699 102 694 100 c 0,163,164
 691 100 691 100 686.5 96.5 c 128,-1,165
 682 93 682 93 678 90 c 0,166,167
 657 70 657 70 613.5 58 c 128,-1,168
 570 46 570 46 511 44 c 0,169,170
 475 43 475 43 450 46 c 128,-1,171
 425 49 425 49 396 58 c 0,172,173
 381 63 381 63 375 66.5 c 128,-1,174
 369 70 369 70 361 77 c 0,175,176
 352 87 352 87 344 92 c 128,-1,177
 336 97 336 97 329 97 c 0,178,179
 320 97 320 97 301 121.5 c 128,-1,180
 282 146 282 146 274 168 c 0,181,182
 269 183 269 183 267.5 226 c 128,-1,183
 266 269 266 269 269 358 c 2,184,-1
 272 461 l 1,185,-1
 267 506 l 2,186,187
 255 596 255 596 266 664.5 c 128,-1,188
 277 733 277 733 310 774 c 0,189,190
 325 792 325 792 348 805.5 c 128,-1,191
 371 819 371 819 403 828 c 0,192,193
 436 837 436 837 496 840.5 c 128,-1,194
 556 844 556 844 587 838 c 1,195,-1
 587 838 l 1,145,146
755 803 m 1,196,197
 778 791 778 791 779 763 c 128,-1,198
 780 735 780 735 758 720 c 0,199,200
 753 718 753 718 749.5 715.5 c 128,-1,201
 746 713 746 713 745 713 c 2,202,203
 745 713 745 713 743 717.5 c 128,-1,204
 741 722 741 722 738 728 c 2,205,-1
 733 743 l 1,206,-1
 739 751 l 2,207,208
 743 755 743 755 744 758 c 128,-1,209
 745 761 745 761 744 764 c 0,210,211
 742 773 742 773 736.5 775.5 c 128,-1,212
 731 778 731 778 721 776 c 0,213,214
 717 775 717 775 714 777 c 128,-1,215
 711 779 711 779 704 788 c 0,216,217
 700 793 700 793 697 797.5 c 128,-1,218
 694 802 694 802 695 802 c 1,219,220
 695 803 695 803 699 804 c 128,-1,221
 703 805 703 805 709 807 c 0,222,223
 721 810 721 810 733 809 c 128,-1,224
 745 808 745 808 755 803 c 1,225,-1
 755 803 l 1,196,197
296 796 m 1,226,227
 301 795 301 795 305 793.5 c 128,-1,228
 309 792 309 792 309 791 c 0,229,230
 310 790 310 790 307 785.5 c 128,-1,231
 304 781 304 781 300 776 c 0,232,233
 293 766 293 766 290 764.5 c 128,-1,234
 287 763 287 763 281 763 c 0,235,236
 275 764 275 764 273 763.5 c 128,-1,237
 271 763 271 763 267 758 c 0,238,239
 262 752 262 752 262 747 c 128,-1,240
 262 742 262 742 268 736 c 2,241,-1
 273 729 l 1,242,-1
 269 715 l 2,243,244
 267 710 267 710 264.5 705.5 c 128,-1,245
 262 701 262 701 261 701 c 0,246,247
 258 701 258 701 249 707 c 128,-1,248
 240 713 240 713 236 718 c 0,249,250
 220 739 220 739 228.5 763.5 c 128,-1,251
 237 788 237 788 261 795 c 0,252,253
 272 798 272 798 278 798 c 128,-1,254
 284 798 284 798 296 796 c 1,255,-1
 296 796 l 1,226,227
790 441 m 1,256,257
 802 436 802 436 808 429.5 c 128,-1,258
 814 423 814 423 812 416 c 2,259,-1
 811 410 l 1,260,-1
 802 415 l 2,261,262
 799 417 799 417 796 418 c 128,-1,263
 793 419 793 419 793 418 c 0,264,265
 792 417 792 417 793 415.5 c 128,-1,266
 794 414 794 414 796 414 c 0,267,268
 802 412 802 412 804 408.5 c 128,-1,269
 806 405 806 405 803 401 c 256,270,271
 800 397 800 397 792.5 398 c 128,-1,272
 785 399 785 399 776 405 c 2,273,-1
 764 413 l 1,274,-1
 764 430 l 2,275,276
 764 441 764 441 765 443.5 c 128,-1,277
 766 446 766 446 770 446 c 0,278,279
 772 446 772 446 778 444.5 c 128,-1,280
 784 443 784 443 790 441 c 1,281,-1
 790 441 l 1,256,257
264 431 m 1,282,283
 264 417 264 417 261.5 410 c 128,-1,284
 259 403 259 403 251 398 c 0,285,286
 240 390 240 390 234 389 c 128,-1,287
 228 388 228 388 223 393 c 0,288,289
 219 397 219 397 219 398 c 128,-1,290
 219 399 219 399 222 401 c 0,291,292
 229 406 229 406 231 408 c 128,-1,293
 233 410 233 410 231 411 c 0,294,295
 230 411 230 411 227.5 410 c 128,-1,296
 225 409 225 409 222 407 c 0,297,298
 218 404 218 404 216.5 404 c 128,-1,299
 215 404 215 404 214 406 c 0,300,301
 211 415 211 415 217.5 422 c 128,-1,302
 224 429 224 429 240 435 c 0,303,304
 255 440 255 440 259.5 439 c 128,-1,305
 264 438 264 438 264 431 c 1,306,-1
 264 431 l 1,282,283
718 90 m 1,307,308
 727 83 727 83 734 69.5 c 128,-1,309
 741 56 741 56 738 49 c 0,310,311
 736 42 736 42 733.5 42.5 c 128,-1,312
 731 43 731 43 726 54 c 0,313,314
 723 59 723 59 720.5 63 c 128,-1,315
 718 67 718 67 717 67 c 256,316,317
 716 67 716 67 717 63 c 128,-1,318
 718 59 718 59 721 53 c 256,319,320
 724 47 724 47 726 42 c 128,-1,321
 728 37 728 37 727 36 c 256,322,323
 726 35 726 35 723.5 34.5 c 128,-1,324
 721 34 721 34 717 34 c 0,325,326
 712 34 712 34 708 37 c 128,-1,327
 704 40 704 40 694 51 c 0,328,329
 688 58 688 58 682 63 c 128,-1,330
 676 68 676 68 674 69 c 0,331,332
 669 71 669 71 670.5 75 c 128,-1,333
 672 79 672 79 681 87 c 0,334,335
 691 96 691 96 699 96.5 c 128,-1,336
 707 97 707 97 718 90 c 1,337,-1
 718 90 l 1,307,308
342 88 m 1,338,339
 345 87 345 87 349.5 83 c 128,-1,340
 354 79 354 79 358 74 c 2,341,-1
 367 64 l 1,342,-1
 357 60 l 2,343,344
 353 58 353 58 346 53 c 128,-1,345
 339 48 339 48 333 43 c 0,346,347
 321 33 321 33 314.5 30.5 c 128,-1,348
 308 28 308 28 301 31 c 0,349,350
 296 33 296 33 295 34.5 c 128,-1,351
 294 36 294 36 296 40 c 0,352,353
 297 43 297 43 299.5 47.5 c 128,-1,354
 302 52 302 52 305 55 c 0,355,356
 307 58 307 58 308.5 61 c 128,-1,357
 310 64 310 64 310 65 c 0,358,359
 308 66 308 66 302 58.5 c 128,-1,360
 296 51 296 51 293 45 c 0,361,362
 291 39 291 39 288.5 39 c 128,-1,363
 286 39 286 39 285 45 c 0,364,365
 282 55 282 55 289 65.5 c 128,-1,366
 296 76 296 76 311 85 c 0,367,368
 322 91 322 91 328 91.5 c 128,-1,369
 334 92 334 92 342 88 c 1,370,-1
 342 88 l 1,338,339
582 808 m 1,371,372
 563 803 563 803 548 791 c 128,-1,373
 533 779 533 779 526 762 c 0,374,375
 520 750 520 750 520.5 732.5 c 128,-1,376
 521 715 521 715 527 703 c 0,377,378
 533 690 533 690 545 678.5 c 128,-1,379
 557 667 557 667 569 662 c 0,380,381
 584 657 584 657 604 657.5 c 128,-1,382
 624 658 624 658 636 665 c 0,383,384
 656 675 656 675 665.5 690 c 128,-1,385
 675 705 675 705 677 728 c 0,386,387
 677 742 677 742 676.5 748 c 128,-1,388
 676 754 676 754 672 762 c 0,389,390
 665 776 665 776 656.5 785 c 128,-1,391
 648 794 648 794 635 801 c 0,392,393
 622 807 622 807 607.5 809 c 128,-1,394
 593 811 593 811 582 808 c 1,395,-1
 582 808 l 1,371,372
629 799 m 1,396,397
 660 785 660 785 670 753 c 128,-1,398
 680 721 680 721 662 693 c 0,399,400
 645 666 645 666 609.5 662 c 128,-1,401
 574 658 574 658 550 680 c 0,402,403
 528 699 528 699 525 724.5 c 128,-1,404
 522 750 522 750 537 773 c 0,405,406
 552 795 552 795 578.5 802.5 c 128,-1,407
 605 810 605 810 629 799 c 1,408,-1
 629 799 l 1,396,397
541 745 m 1,409,410
 526 732 526 732 536.5 715.5 c 128,-1,411
 547 699 547 699 566 704 c 0,412,413
 574 706 574 706 579.5 713 c 128,-1,414
 585 720 585 720 585 728 c 0,415,416
 585 744 585 744 569 750.5 c 128,-1,417
 553 757 553 757 541 745 c 1,418,-1
 541 745 l 1,409,410
383 799 m 1,419,420
 369 794 369 794 355.5 783 c 128,-1,421
 342 772 342 772 335 759 c 0,422,423
 331 751 331 751 330 745 c 128,-1,424
 329 739 329 739 329 726 c 256,425,426
 329 713 329 713 330 706.5 c 128,-1,427
 331 700 331 700 334 693 c 0,428,429
 352 658 352 658 391 650.5 c 128,-1,430
 430 643 430 643 459 669 c 0,431,432
 473 682 473 682 478.5 694 c 128,-1,433
 484 706 484 706 484 724 c 0,434,435
 484 737 484 737 483 743 c 128,-1,436
 482 749 482 749 477 758 c 0,437,438
 467 778 467 778 448 789.5 c 128,-1,439
 429 801 429 801 406 801 c 0,440,441
 399 801 399 801 392.5 800 c 128,-1,442
 386 799 386 799 383 799 c 1,443,-1
 383 799 l 1,419,420
442 788 m 1,444,445
 482 765 482 765 480 722.5 c 128,-1,446
 478 680 478 680 437 659 c 0,447,448
 424 653 424 653 405.5 653.5 c 128,-1,449
 387 654 387 654 373 661 c 0,450,451
 332 681 332 681 332.5 725.5 c 128,-1,452
 333 770 333 770 375 790 c 0,453,454
 383 794 383 794 388.5 795 c 128,-1,455
 394 796 394 796 409 796 c 0,456,457
 423 795 423 795 429 793.5 c 128,-1,458
 435 792 435 792 442 788 c 1,459,-1
 442 788 l 1,444,445
358 746 m 1,460,461
 352 744 352 744 346 738 c 128,-1,462
 340 732 340 732 339 726 c 256,463,464
 338 720 338 720 341 712 c 128,-1,465
 344 704 344 704 350 700 c 0,466,467
 352 699 352 699 356.5 697.5 c 128,-1,468
 361 696 361 696 365 696 c 0,469,470
 386 696 386 696 390 716 c 128,-1,471
 394 736 394 736 375 744 c 0,472,473
 368 747 368 747 366 747 c 128,-1,474
 364 747 364 747 358 746 c 1,475,-1
 358 746 l 1,460,461
494 680 m 1,476,477
 485 678 485 678 479 673.5 c 128,-1,478
 473 669 473 669 471 662 c 0,479,480
 471 659 471 659 469 656 c 128,-1,481
 467 653 467 653 463 652 c 0,482,483
 452 646 452 646 446.5 634.5 c 128,-1,484
 441 623 441 623 445 613 c 0,485,486
 447 609 447 609 454 605.5 c 128,-1,487
 461 602 461 602 468 602 c 2,488,-1
 475 602 l 1,489,-1
 473 589 l 2,490,491
 471 577 471 577 472 568.5 c 128,-1,492
 473 560 473 560 478 555 c 0,493,494
 483 551 483 551 489 551 c 128,-1,495
 495 551 495 551 501 557 c 2,496,-1
 508 562 l 1,497,-1
 512 557 l 2,498,499
 516 552 516 552 525 552 c 128,-1,500
 534 552 534 552 539 557 c 0,501,502
 542 560 542 560 543 564 c 128,-1,503
 544 568 544 568 543 582 c 2,504,-1
 542 602 l 1,505,-1
 550 602 l 2,506,507
 570 602 570 602 570 621.5 c 128,-1,508
 570 641 570 641 549 652 c 0,509,510
 544 654 544 654 541.5 656.5 c 128,-1,511
 539 659 539 659 539 661 c 0,512,513
 538 667 538 667 534.5 671 c 128,-1,514
 531 675 531 675 523 678 c 0,515,516
 516 681 516 681 510.5 681.5 c 128,-1,517
 505 682 505 682 494 680 c 1,518,-1
 494 680 l 1,476,477
546 648 m 1,519,520
 556 643 556 643 560.5 636 c 128,-1,521
 565 629 565 629 565 621 c 0,522,523
 565 614 565 614 564 612 c 128,-1,524
 563 610 563 610 557 608 c 0,525,526
 551 605 551 605 542 606 c 128,-1,527
 533 607 533 607 519 613 c 0,528,529
 510 616 510 616 506 615.5 c 128,-1,530
 502 615 502 615 490 612 c 0,531,532
 469 605 469 605 459 608 c 128,-1,533
 449 611 449 611 448 623 c 0,534,535
 448 630 448 630 451.5 635.5 c 128,-1,536
 455 641 455 641 462 646 c 0,537,538
 469 650 469 650 471.5 650 c 128,-1,539
 474 650 474 650 480 647 c 0,540,541
 484 645 484 645 490 643.5 c 128,-1,542
 496 642 496 642 501 641 c 0,543,544
 508 641 508 641 512.5 642 c 128,-1,545
 517 643 517 643 524 646 c 0,546,547
 529 649 529 649 532 651 c 128,-1,548
 535 653 535 653 536 653 c 2,549,550
 536 653 536 653 539 651.5 c 128,-1,551
 542 650 542 650 546 648 c 1,552,-1
 546 648 l 1,519,520
506 589 m 1,553,554
 504 570 504 570 502 564 c 128,-1,555
 500 558 500 558 494 557 c 0,556,557
 483 554 483 554 479 561.5 c 128,-1,558
 475 569 475 569 477 586 c 2,559,-1
 479 603 l 1,560,-1
 491 607 l 2,561,562
 496 609 496 609 500 610 c 128,-1,563
 504 611 504 611 505 611 c 256,564,565
 506 611 506 611 506 604.5 c 128,-1,566
 506 598 506 598 506 589 c 1,567,-1
 506 589 l 1,553,554
524 606 m 1,568,569
 533 603 533 603 536 598 c 128,-1,570
 539 593 539 593 539 579 c 0,571,572
 539 569 539 569 538 565.5 c 128,-1,573
 537 562 537 562 533 559 c 0,574,575
 527 555 527 555 520.5 557 c 128,-1,576
 514 559 514 559 513 565 c 0,577,578
 512 568 512 568 511.5 571 c 128,-1,579
 511 574 511 574 511 575 c 0,580,581
 509 579 509 579 511 594 c 128,-1,582
 513 609 513 609 514 609 c 256,583,584
 515 609 515 609 518 608 c 128,-1,585
 521 607 521 607 524 606 c 1,586,-1
 524 606 l 1,568,569
EndSplineSet
Validated: 37
EndChar

StartChar: uniE625
Encoding: 58917 58917 41
Width: 1024
Flags: W
LayerCount: 2
Fore
SplineSet
688 732 m 1,0,1
 639 732 639 732 605 697.5 c 128,-1,2
 571 663 571 663 571 615 c 0,3,4
 571 582 571 582 587 555.5 c 128,-1,5
 603 529 603 529 629 514 c 1,6,-1
 629 498 l 1,7,8
 629 498 629 498 614.5 439 c 128,-1,9
 600 380 600 380 512 380 c 0,10,11
 476 380 476 380 447 373 c 128,-1,12
 418 366 418 366 395 354 c 1,13,-1
 395 631 l 1,14,15
 421 646 421 646 437 673 c 128,-1,16
 453 700 453 700 453 732 c 0,17,18
 453 781 453 781 419 815.5 c 128,-1,19
 385 850 385 850 336 850 c 256,20,21
 287 850 287 850 253 815.5 c 128,-1,22
 219 781 219 781 219 732 c 0,23,24
 219 700 219 700 235 673 c 128,-1,25
 251 646 251 646 277 631 c 1,26,-1
 277 247 l 1,27,28
 251 231 251 231 235 204.5 c 128,-1,29
 219 178 219 178 219 146 c 0,30,31
 219 97 219 97 253 62.5 c 128,-1,32
 287 28 287 28 336 28 c 256,33,34
 385 28 385 28 419 62.5 c 128,-1,35
 453 97 453 97 453 146 c 0,36,37
 453 169 453 169 444.5 189 c 128,-1,38
 436 209 436 209 422 225 c 1,39,40
 435 241 435 241 456.5 252 c 128,-1,41
 478 263 478 263 512 263 c 0,42,43
 599 263 599 263 646.5 299.5 c 128,-1,44
 694 336 694 336 716.5 380 c 128,-1,45
 739 424 739 424 743 461 c 128,-1,46
 747 498 747 498 747 498 c 1,47,-1
 747 514 l 1,48,49
 773 529 773 529 789 555.5 c 128,-1,50
 805 582 805 582 805 615 c 0,51,52
 805 663 805 663 771 697.5 c 128,-1,53
 737 732 737 732 688 732 c 1,54,-1
 688 732 l 1,0,1
336 791 m 1,55,56
 360 791 360 791 377.5 774 c 128,-1,57
 395 757 395 757 395 732 c 0,58,59
 395 708 395 708 377.5 691 c 128,-1,60
 360 674 360 674 336 674 c 256,61,62
 312 674 312 674 294.5 691 c 128,-1,63
 277 708 277 708 277 732 c 0,64,65
 277 757 277 757 294.5 774 c 128,-1,66
 312 791 312 791 336 791 c 1,67,-1
 336 791 l 1,55,56
336 87 m 1,68,69
 312 87 312 87 294.5 104 c 128,-1,70
 277 121 277 121 277 146 c 0,71,72
 277 170 277 170 294.5 187 c 128,-1,73
 312 204 312 204 336 204 c 256,74,75
 360 204 360 204 377.5 187 c 128,-1,76
 395 170 395 170 395 146 c 0,77,78
 395 121 395 121 377.5 104 c 128,-1,79
 360 87 360 87 336 87 c 1,80,-1
 336 87 l 1,68,69
688 556 m 1,81,82
 664 556 664 556 646.5 573.5 c 128,-1,83
 629 591 629 591 629 615 c 256,84,85
 629 639 629 639 646.5 656.5 c 128,-1,86
 664 674 664 674 688 674 c 256,87,88
 712 674 712 674 729.5 656.5 c 128,-1,89
 747 639 747 639 747 615 c 256,90,91
 747 591 747 591 729.5 573.5 c 128,-1,92
 712 556 712 556 688 556 c 1,93,-1
 688 556 l 1,81,82
EndSplineSet
Validated: 5
EndChar

StartChar: uniE626
Encoding: 58918 58918 42
Width: 1024
Flags: W
LayerCount: 2
Fore
SplineSet
293 794 m 1,0,1
 248 794 248 794 216 762 c 128,-1,2
 184 730 184 730 184 685 c 0,3,4
 184 655 184 655 199 630 c 128,-1,5
 214 605 214 605 239 591 c 1,6,-1
 239 232 l 1,7,8
 214 218 214 218 199 193.5 c 128,-1,9
 184 169 184 169 184 138 c 0,10,11
 184 93 184 93 216 61 c 128,-1,12
 248 29 248 29 293 29 c 0,13,14
 339 29 339 29 371 61 c 128,-1,15
 403 93 403 93 403 138 c 0,16,17
 403 169 403 169 388 193.5 c 128,-1,18
 373 218 373 218 348 232 c 1,19,-1
 348 591 l 1,20,21
 373 605 373 605 388 630 c 128,-1,22
 403 655 403 655 403 685 c 0,23,24
 403 730 403 730 371 762 c 128,-1,25
 339 794 339 794 293 794 c 1,26,-1
 293 794 l 1,0,1
293 84 m 1,27,28
 271 84 271 84 255 100 c 128,-1,29
 239 116 239 116 239 138 c 0,30,31
 239 161 239 161 255 177 c 128,-1,32
 271 193 271 193 293 193 c 0,33,34
 316 193 316 193 332 177 c 128,-1,35
 348 161 348 161 348 138 c 0,36,37
 348 116 348 116 332 100 c 128,-1,38
 316 84 316 84 293 84 c 1,39,-1
 293 84 l 1,27,28
293 630 m 1,40,41
 271 630 271 630 255 646 c 128,-1,42
 239 662 239 662 239 685 c 0,43,44
 239 707 239 707 255 723 c 128,-1,45
 271 739 271 739 293 739 c 0,46,47
 316 739 316 739 332 723 c 128,-1,48
 348 707 348 707 348 685 c 0,49,50
 348 662 348 662 332 646 c 128,-1,51
 316 630 316 630 293 630 c 1,52,-1
 293 630 l 1,40,41
785 232 m 1,53,-1
 785 575 l 2,54,55
 785 637 785 637 759.5 670.5 c 128,-1,56
 734 704 734 704 703.5 719 c 128,-1,57
 673 734 673 734 647 736.5 c 128,-1,58
 621 739 621 739 621 739 c 1,59,-1
 567 739 l 1,60,-1
 567 849 l 1,61,-1
 403 685 l 1,62,-1
 567 521 l 1,63,-1
 567 630 l 1,64,65
 567 630 567 630 582 630 c 128,-1,66
 597 630 597 630 621 630 c 0,67,68
 657 630 657 630 666.5 602.5 c 128,-1,69
 676 575 676 575 676 575 c 1,70,-1
 676 232 l 1,71,72
 652 218 652 218 636.5 193.5 c 128,-1,73
 621 169 621 169 621 138 c 0,74,75
 621 93 621 93 653 61 c 128,-1,76
 685 29 685 29 731 29 c 0,77,78
 776 29 776 29 808 61 c 128,-1,79
 840 93 840 93 840 138 c 0,80,81
 840 169 840 169 825 193.5 c 128,-1,82
 810 218 810 218 785 232 c 1,83,-1
 785 232 l 1,53,-1
731 84 m 1,84,85
 708 84 708 84 692 100 c 128,-1,86
 676 116 676 116 676 138 c 0,87,88
 676 161 676 161 692 177 c 128,-1,89
 708 193 708 193 731 193 c 0,90,91
 753 193 753 193 769 177 c 128,-1,92
 785 161 785 161 785 138 c 0,93,94
 785 116 785 116 769 100 c 128,-1,95
 753 84 753 84 731 84 c 1,96,-1
 731 84 l 1,84,85
EndSplineSet
Validated: 5
EndChar

StartChar: uniE627
Encoding: 58919 58919 43
Width: 1024
Flags: W
LayerCount: 2
Fore
SplineSet
746 497 m 1,0,1
 713 497 713 497 686.5 480.5 c 128,-1,2
 660 464 660 464 645 438 c 0,3,4
 641 438 641 438 637 438.5 c 128,-1,5
 633 439 633 439 629 439 c 0,6,7
 584 439 584 439 541.5 455 c 128,-1,8
 499 471 499 471 462.5 498.5 c 128,-1,9
 426 526 426 526 398 563.5 c 128,-1,10
 370 601 370 601 354 643 c 1,11,12
 373 659 373 659 384 682 c 128,-1,13
 395 705 395 705 395 731 c 0,14,15
 395 780 395 780 361 814 c 128,-1,16
 327 848 327 848 278 848 c 0,17,18
 230 848 230 848 195.5 814 c 128,-1,19
 161 780 161 780 161 731 c 0,20,21
 161 699 161 699 177.5 672.5 c 128,-1,22
 194 646 194 646 220 630 c 1,23,-1
 220 247 l 1,24,25
 194 232 194 232 177.5 205.5 c 128,-1,26
 161 179 161 179 161 147 c 0,27,28
 161 98 161 98 195.5 64 c 128,-1,29
 230 30 230 30 278 30 c 0,30,31
 327 30 327 30 361 64 c 128,-1,32
 395 98 395 98 395 147 c 0,33,34
 395 179 395 179 379 205.5 c 128,-1,35
 363 232 363 232 337 247 c 1,36,-1
 337 458 l 1,37,38
 365 427 365 427 399 402 c 128,-1,39
 433 377 433 377 470.5 359 c 128,-1,40
 508 341 508 341 548 331.5 c 128,-1,41
 588 322 588 322 629 322 c 0,42,43
 633 322 633 322 637 322 c 128,-1,44
 641 322 641 322 645 322 c 0,45,46
 660 296 660 296 686.5 279.5 c 128,-1,47
 713 263 713 263 746 263 c 0,48,49
 794 263 794 263 828.5 297.5 c 128,-1,50
 863 332 863 332 863 380 c 0,51,52
 863 429 863 429 828.5 463 c 128,-1,53
 794 497 794 497 746 497 c 1,54,-1
 746 497 l 1,0,1
278 88 m 1,55,56
 254 88 254 88 237 105 c 128,-1,57
 220 122 220 122 220 147 c 0,58,59
 220 171 220 171 237 188 c 128,-1,60
 254 205 254 205 278 205 c 256,61,62
 302 205 302 205 319.5 188 c 128,-1,63
 337 171 337 171 337 147 c 0,64,65
 337 122 337 122 319.5 105 c 128,-1,66
 302 88 302 88 278 88 c 1,67,-1
 278 88 l 1,55,56
278 673 m 1,68,69
 254 673 254 673 237 690 c 128,-1,70
 220 707 220 707 220 731 c 256,71,72
 220 755 220 755 237 772.5 c 128,-1,73
 254 790 254 790 278 790 c 256,74,75
 302 790 302 790 319.5 772.5 c 128,-1,76
 337 755 337 755 337 731 c 256,77,78
 337 707 337 707 319.5 690 c 128,-1,79
 302 673 302 673 278 673 c 1,80,-1
 278 673 l 1,68,69
746 322 m 1,81,82
 722 322 722 322 704.5 339 c 128,-1,83
 687 356 687 356 687 380 c 0,84,85
 687 405 687 405 704.5 422 c 128,-1,86
 722 439 722 439 746 439 c 256,87,88
 770 439 770 439 787 422 c 128,-1,89
 804 405 804 405 804 380 c 0,90,91
 804 356 804 356 787 339 c 128,-1,92
 770 322 770 322 746 322 c 1,93,-1
 746 322 l 1,81,82
EndSplineSet
Validated: 5
EndChar

StartChar: uniE628
Encoding: 58920 58920 44
Width: 1024
Flags: W
LayerCount: 2
Fore
SplineSet
814 279 m 1,0,-1
 814 595 l 2,1,2
 814 709 814 709 738.5 728 c 128,-1,3
 663 747 663 747 663 747 c 1,4,-1
 613 747 l 1,5,-1
 613 847 l 1,6,-1
 462 696 l 1,7,-1
 613 545 l 1,8,-1
 613 646 l 1,9,10
 613 646 613 646 627 646 c 128,-1,11
 641 646 641 646 663 646 c 0,12,13
 697 646 697 646 705.5 620.5 c 128,-1,14
 714 595 714 595 714 595 c 1,15,-1
 714 279 l 1,16,17
 691 266 691 266 677 243 c 128,-1,18
 663 220 663 220 663 192 c 0,19,20
 663 150 663 150 692.5 120.5 c 128,-1,21
 722 91 722 91 764 91 c 256,22,23
 806 91 806 91 835.5 120.5 c 128,-1,24
 865 150 865 150 865 192 c 0,25,26
 865 220 865 220 851 243 c 128,-1,27
 837 266 837 266 814 279 c 1,28,-1
 814 279 l 1,0,-1
764 142 m 1,29,30
 743 142 743 142 728.5 156.5 c 128,-1,31
 714 171 714 171 714 192 c 256,32,33
 714 213 714 213 728.5 227.5 c 128,-1,34
 743 242 743 242 764 242 c 256,35,36
 785 242 785 242 799.5 227.5 c 128,-1,37
 814 213 814 213 814 192 c 256,38,39
 814 171 814 171 799.5 156.5 c 128,-1,40
 785 142 785 142 764 142 c 1,41,-1
 764 142 l 1,29,30
210 599 m 1,42,-1
 210 282 l 2,43,44
 210 169 210 169 285.5 150 c 128,-1,45
 361 131 361 131 361 131 c 1,46,-1
 411 131 l 1,47,-1
 411 30 l 1,48,-1
 562 182 l 1,49,-1
 411 333 l 1,50,-1
 411 232 l 1,51,52
 411 232 411 232 397 232 c 128,-1,53
 383 232 383 232 361 232 c 0,54,55
 327 232 327 232 318.5 257 c 128,-1,56
 310 282 310 282 310 282 c 1,57,-1
 310 599 l 1,58,59
 333 612 333 612 347 635 c 128,-1,60
 361 658 361 658 361 686 c 0,61,62
 361 727 361 727 331.5 757 c 128,-1,63
 302 787 302 787 260 787 c 256,64,65
 218 787 218 787 188.5 757 c 128,-1,66
 159 727 159 727 159 686 c 0,67,68
 159 658 159 658 173 635 c 128,-1,69
 187 612 187 612 210 599 c 1,70,-1
 210 599 l 1,42,-1
260 633 m 1,71,72
 239 633 239 633 224.5 648 c 128,-1,73
 210 663 210 663 210 684 c 0,74,75
 210 704 210 704 224.5 719 c 128,-1,76
 239 734 239 734 260 734 c 256,77,78
 281 734 281 734 295.5 719 c 128,-1,79
 310 704 310 704 310 684 c 0,80,81
 310 663 310 663 295.5 648 c 128,-1,82
 281 633 281 633 260 633 c 1,83,-1
 260 633 l 1,71,72
EndSplineSet
Validated: 5
EndChar

StartChar: uniE629
Encoding: 58921 58921 45
Width: 1024
Flags: W
LayerCount: 2
Fore
SplineSet
709 490 m 1,0,1
 692 556 692 556 637.5 599.5 c 128,-1,2
 583 643 583 643 512 643 c 256,3,4
 441 643 441 643 386.5 599.5 c 128,-1,5
 332 556 332 556 315 490 c 1,6,-1
 154 490 l 1,7,-1
 154 388 l 1,8,-1
 315 388 l 1,9,10
 332 322 332 322 386.5 278 c 128,-1,11
 441 234 441 234 512 234 c 256,12,13
 583 234 583 234 637.5 278 c 128,-1,14
 692 322 692 322 709 388 c 1,15,-1
 870 388 l 1,16,-1
 870 490 l 1,17,-1
 709 490 l 1,18,-1
 709 490 l 1,0,1
512 337 m 1,19,20
 470 337 470 337 440 367 c 128,-1,21
 410 397 410 397 410 439 c 256,22,23
 410 481 410 481 440 511 c 128,-1,24
 470 541 470 541 512 541 c 256,25,26
 554 541 554 541 584 511 c 128,-1,27
 614 481 614 481 614 439 c 256,28,29
 614 397 614 397 584 367 c 128,-1,30
 554 337 554 337 512 337 c 1,31,-1
 512 337 l 1,19,20
EndSplineSet
Validated: 5
EndChar

StartChar: uniE62A
Encoding: 58922 58922 46
Width: 1024
Flags: W
LayerCount: 2
Fore
SplineSet
436 791 m 1,0,1
 422 788 422 788 396.5 778.5 c 128,-1,2
 371 769 371 769 351 759 c 0,3,4
 320 745 320 745 302.5 732 c 128,-1,5
 285 719 285 719 258 691 c 0,6,7
 230 663 230 663 217 645.5 c 128,-1,8
 204 628 204 628 189 598 c 0,9,10
 150 517 150 517 150 438 c 128,-1,11
 150 359 150 359 189 277 c 0,12,13
 204 247 204 247 216.5 229.5 c 128,-1,14
 229 212 229 212 258 184 c 0,15,16
 286 156 286 156 303 143.5 c 128,-1,17
 320 131 320 131 351 116 c 0,18,19
 398 93 398 93 429.5 86 c 128,-1,20
 461 79 461 79 511 79 c 256,21,22
 561 79 561 79 592.5 86 c 128,-1,23
 624 93 624 93 671 116 c 0,24,25
 702 131 702 131 719 143.5 c 128,-1,26
 736 156 736 156 765 184 c 0,27,28
 793 213 793 213 805.5 230 c 128,-1,29
 818 247 818 247 833 277 c 0,30,31
 851 317 851 317 858.5 342 c 128,-1,32
 866 367 866 367 870 406 c 2,33,-1
 874 438 l 1,34,-1
 772 438 l 1,35,-1
 765 398 l 2,36,37
 753 320 753 320 704.5 267.5 c 128,-1,38
 656 215 656 215 591.5 193.5 c 128,-1,39
 527 172 527 172 457 186 c 128,-1,40
 387 200 387 200 330 255 c 0,41,42
 285 299 285 299 266.5 356 c 128,-1,43
 248 413 248 413 255.5 470 c 128,-1,44
 263 527 263 527 295.5 578 c 128,-1,45
 328 629 328 629 384 662 c 0,46,47
 405 675 405 675 440 685.5 c 128,-1,48
 475 696 475 696 494 696 c 2,49,-1
 511 696 l 1,50,-1
 511 799 l 1,51,-1
 492 799 l 2,52,53
 484 799 484 799 467.5 796.5 c 128,-1,54
 451 794 451 794 436 791 c 1,55,-1
 436 791 l 1,0,1
455 651 m 1,56,57
 414 640 414 640 381 615.5 c 128,-1,58
 348 591 348 591 326 557.5 c 128,-1,59
 304 524 304 524 295 484.5 c 128,-1,60
 286 445 286 445 293 403 c 0,61,62
 301 358 301 358 324.5 320.5 c 128,-1,63
 348 283 348 283 382.5 258 c 128,-1,64
 417 233 417 233 459 222.5 c 128,-1,65
 501 212 501 212 545 219 c 0,66,67
 590 227 590 227 627.5 251 c 128,-1,68
 665 275 665 275 690 309 c 128,-1,69
 715 343 715 343 726 385 c 128,-1,70
 737 427 737 427 730 471 c 0,71,72
 721 520 721 520 694.5 559 c 128,-1,73
 668 598 668 598 630.5 623 c 128,-1,74
 593 648 593 648 547.5 656 c 128,-1,75
 502 664 502 664 455 651 c 1,76,-1
 455 651 l 1,56,57
EndSplineSet
Validated: 41
EndChar

StartChar: uniE62B
Encoding: 58923 58923 47
Width: 1024
Flags: W
LayerCount: 2
Fore
SplineSet
733 548 m 1,0,1
 736 549 736 549 740.5 550 c 128,-1,2
 745 551 745 551 750 552 c 2,3,-1
 802 552 l 1,4,-1
 810 564 l 1,5,6
 810 564 810 564 810 564 c 129,-1,7
 810 564 810 564 811 564 c 2,8,-1
 831 593 l 1,9,10
 831 593 831 593 830.5 593 c 128,-1,11
 830 593 830 593 830 593 c 1,12,-1
 832 596 l 1,13,-1
 549 596 l 1,14,-1
 560 552 l 1,15,-1
 637 552 l 1,16,-1
 507 435 l 1,17,18
 488 462 488 462 448 512.5 c 128,-1,19
 408 563 408 563 376 611 c 1,20,-1
 473 611 l 1,21,-1
 473 644 l 1,22,-1
 474 652 l 1,23,24
 474 652 474 652 473.5 652 c 128,-1,25
 473 652 473 652 473 652 c 1,26,-1
 473 655 l 1,27,-1
 150 655 l 1,28,-1
 150 611 l 1,29,-1
 246 611 l 1,30,31
 260 600 260 600 289.5 566 c 128,-1,32
 319 532 319 532 350 494.5 c 128,-1,33
 381 457 381 457 405 425 c 128,-1,34
 429 393 429 393 431 387 c 0,35,36
 433 374 433 374 433.5 322.5 c 128,-1,37
 434 271 434 271 428 265 c 0,38,39
 418 254 418 254 382.5 254 c 128,-1,40
 347 254 347 254 335 253 c 1,41,-1
 330 223 l 1,42,43
 351 222 351 222 404 223.5 c 128,-1,44
 457 225 457 225 478 225 c 0,45,46
 520 225 520 225 577.5 225 c 128,-1,47
 635 225 635 225 645 224 c 1,48,-1
 647 256 l 1,49,50
 636 258 636 258 594.5 257.5 c 128,-1,51
 553 257 553 257 545 259 c 1,52,53
 543 270 543 270 542 325 c 128,-1,54
 541 380 541 380 543 388 c 0,55,56
 547 399 547 399 574.5 425 c 128,-1,57
 602 451 602 451 635 477.5 c 128,-1,58
 668 504 668 504 697 525 c 128,-1,59
 726 546 726 546 733 548 c 1,60,-1
 733 548 l 1,0,1
780 305 m 1,61,-1
 823 302 l 1,62,-1
 874 497 l 1,63,64
 867 497 867 497 826.5 501 c 128,-1,65
 786 505 786 505 779 506 c 1,66,-1
 780 305 l 1,67,-1
 780 305 l 1,61,-1
772 274 m 1,68,-1
 773 226 l 1,69,-1
 795 224 l 1,70,-1
 818 223 l 1,71,-1
 825 269 l 1,72,-1
 800 270 l 1,73,-1
 772 274 l 1,68,-1
EndSplineSet
Validated: 37
EndChar

StartChar: uniE62C
Encoding: 58924 58924 48
Width: 1024
Flags: W
LayerCount: 2
Fore
SplineSet
150 560 m 1,0,-1
 150 499 l 1,1,-1
 270 499 l 1,2,-1
 270 258 l 1,3,-1
 391 258 l 1,4,-1
 391 499 l 1,5,-1
 512 499 l 1,6,-1
 512 258 l 1,7,-1
 874 258 l 1,8,-1
 874 378 l 1,9,-1
 633 378 l 1,10,-1
 633 499 l 1,11,-1
 874 499 l 1,12,-1
 874 620 l 1,13,-1
 633 620 l 1,14,-1
 633 499 l 1,15,-1
 512 499 l 1,16,-1
 512 620 l 1,17,-1
 150 620 l 1,18,-1
 150 560 l 1,19,-1
 150 560 l 1,0,-1
EndSplineSet
Validated: 5
EndChar

StartChar: uniE62D
Encoding: 58925 58925 49
Width: 1024
Flags: W
LayerCount: 2
Fore
SplineSet
724 795 m 1,0,1
 733 791 733 791 742 783.5 c 128,-1,2
 751 776 751 776 755 768 c 0,3,4
 757 765 757 765 761.5 745.5 c 128,-1,5
 766 726 766 726 777.5 678.5 c 128,-1,6
 789 631 789 631 807.5 550.5 c 128,-1,7
 826 470 826 470 855 345 c 0,8,9
 863 312 863 312 868.5 283.5 c 128,-1,10
 874 255 874 255 874 249 c 0,11,12
 874 236 874 236 869 225.5 c 128,-1,13
 864 215 864 215 853 205 c 0,14,15
 845 197 845 197 833 193 c 128,-1,16
 821 189 821 189 778 179 c 2,17,-1
 743 171 l 1,18,-1
 752 188 l 2,19,20
 762 206 762 206 766.5 227 c 128,-1,21
 771 248 771 248 771 272 c 0,22,23
 771 320 771 320 753.5 359.5 c 128,-1,24
 736 399 736 399 700 430 c 0,25,26
 679 449 679 449 647.5 466.5 c 128,-1,27
 616 484 616 484 570 503 c 0,28,29
 505 530 505 530 481.5 550 c 128,-1,30
 458 570 458 570 458 600 c 0,31,32
 458 632 458 632 483 648 c 128,-1,33
 508 664 508 664 552 661 c 0,34,35
 575 660 575 660 598.5 654 c 128,-1,36
 622 648 622 648 647 638 c 0,37,38
 657 634 657 634 665.5 630.5 c 128,-1,39
 674 627 674 627 676 626 c 256,40,41
 678 625 678 625 683 636.5 c 128,-1,42
 688 648 688 648 700 679 c 0,43,44
 708 701 708 701 714 717.5 c 128,-1,45
 720 734 720 734 721 736 c 0,46,47
 722 739 722 739 694.5 751 c 128,-1,48
 667 763 667 763 643 770 c 0,49,50
 615 778 615 778 610.5 779.5 c 128,-1,51
 606 781 606 781 610 782 c 0,52,53
 664 796 664 796 687 798.5 c 128,-1,54
 710 801 710 801 724 795 c 1,55,-1
 724 795 l 1,0,1
320 699 m 1,56,57
 314 690 314 690 308 677.5 c 128,-1,58
 302 665 302 665 298 655 c 0,59,60
 293 640 293 640 291.5 630 c 128,-1,61
 290 620 290 620 290 596 c 0,62,63
 290 573 290 573 291.5 563 c 128,-1,64
 293 553 293 553 298 540 c 0,65,66
 317 488 317 488 362.5 449 c 128,-1,67
 408 410 408 410 487 379 c 0,68,69
 522 365 522 365 545.5 351.5 c 128,-1,70
 569 338 569 338 581 325 c 256,71,72
 593 312 593 312 597.5 299.5 c 128,-1,73
 602 287 602 287 601 268 c 0,74,75
 600 250 600 250 592 238.5 c 128,-1,76
 584 227 584 227 568 219 c 0,77,78
 556 213 556 213 547.5 212 c 128,-1,79
 539 211 539 211 508 211 c 0,80,81
 478 211 478 211 466.5 212.5 c 128,-1,82
 455 214 455 214 434 220 c 0,83,84
 421 224 421 224 405 229 c 128,-1,85
 389 234 389 234 380 238 c 0,86,87
 372 242 372 242 364 245 c 128,-1,88
 356 248 356 248 354 248 c 0,89,90
 351 248 351 248 344.5 236.5 c 128,-1,91
 338 225 338 225 323 194 c 0,92,93
 312 172 312 172 304.5 155 c 128,-1,94
 297 138 297 138 297 138 c 2,95,96
 297 135 297 135 323.5 123.5 c 128,-1,97
 350 112 350 112 372 106 c 0,98,99
 383 102 383 102 392.5 99 c 128,-1,100
 402 96 402 96 403 96 c 0,101,102
 405 95 405 95 396.5 92 c 128,-1,103
 388 89 388 89 373 86 c 0,104,105
 329 75 329 75 305.5 80 c 128,-1,106
 282 85 282 85 270 109 c 0,107,108
 267 115 267 115 249.5 186.5 c 128,-1,109
 232 258 232 258 206 373 c 0,110,111
 158 578 158 578 153 610 c 128,-1,112
 148 642 148 642 159 660 c 0,113,114
 168 673 168 673 185 680.5 c 128,-1,115
 202 688 202 688 244 698 c 0,116,117
 274 705 274 705 303 712 c 128,-1,118
 332 719 332 719 334 719 c 1,119,120
 334 720 334 720 330 714 c 128,-1,121
 326 708 326 708 320 699 c 1,122,-1
 320 699 l 1,56,57
EndSplineSet
Validated: 37
EndChar

StartChar: uniE62E
Encoding: 58926 58926 50
Width: 1024
Flags: W
LayerCount: 2
Fore
SplineSet
724 591 m 1,0,1
 719 587 719 587 718.5 581.5 c 128,-1,2
 718 576 718 576 720 554 c 0,3,4
 721 541 721 541 720 536.5 c 128,-1,5
 719 532 719 532 715 532 c 0,6,7
 708 532 708 532 696 523.5 c 128,-1,8
 684 515 684 515 682 508 c 0,9,10
 681 504 681 504 683.5 496.5 c 128,-1,11
 686 489 686 489 690 487 c 0,12,13
 691 486 691 486 695.5 484.5 c 128,-1,14
 700 483 700 483 704 483 c 0,15,16
 710 482 710 482 712.5 481 c 128,-1,17
 715 480 715 480 716 478 c 0,18,19
 718 475 718 475 717 458 c 128,-1,20
 716 441 716 441 713 424 c 0,21,22
 711 414 711 414 711 409 c 128,-1,23
 711 404 711 404 713 393 c 0,24,25
 714 387 714 387 715 380.5 c 128,-1,26
 716 374 716 374 716 371 c 256,27,28
 716 368 716 368 716.5 365 c 128,-1,29
 717 362 717 362 718 361 c 0,30,31
 718 359 718 359 719 353.5 c 128,-1,32
 720 348 720 348 720 341 c 0,33,34
 721 324 721 324 723.5 316 c 128,-1,35
 726 308 726 308 733 302 c 0,36,37
 742 295 742 295 747.5 293.5 c 128,-1,38
 753 292 753 292 769 291 c 0,39,40
 778 291 778 291 785 291 c 128,-1,41
 792 291 792 291 794 291 c 0,42,43
 808 291 808 291 822 293 c 128,-1,44
 836 295 836 295 837 298 c 0,45,46
 838 299 838 299 841.5 302.5 c 128,-1,47
 845 306 845 306 850 311 c 0,48,49
 863 321 863 321 867.5 328.5 c 128,-1,50
 872 336 872 336 873 349 c 0,51,52
 874 358 874 358 872 370 c 128,-1,53
 870 382 870 382 867 387 c 0,54,55
 865 389 865 389 863 392.5 c 128,-1,56
 861 396 861 396 860 399 c 0,57,58
 858 404 858 404 856 406 c 128,-1,59
 854 408 854 408 852 408 c 0,60,61
 851 408 851 408 849 409 c 128,-1,62
 847 410 847 410 845 411 c 0,63,64
 843 414 843 414 842 414 c 128,-1,65
 841 414 841 414 836 412 c 0,66,67
 834 410 834 410 831.5 408 c 128,-1,68
 829 406 829 406 828 405 c 256,69,70
 827 404 827 404 825.5 401.5 c 128,-1,71
 824 399 824 399 823 397 c 0,72,73
 821 395 821 395 820.5 392 c 128,-1,74
 820 389 820 389 820 387 c 256,75,76
 820 385 820 385 819 381 c 128,-1,77
 818 377 818 377 816 374 c 0,78,79
 815 370 815 370 813.5 365.5 c 128,-1,80
 812 361 812 361 812 358 c 0,81,82
 810 352 810 352 807 349 c 128,-1,83
 804 346 804 346 798 346 c 0,84,85
 791 346 791 346 789 348 c 128,-1,86
 787 350 787 350 787 358 c 0,87,88
 787 385 787 385 786.5 398 c 128,-1,89
 786 411 786 411 784 417 c 0,90,91
 781 430 781 430 783 451.5 c 128,-1,92
 785 473 785 473 791 476 c 0,93,94
 792 477 792 477 801 477.5 c 128,-1,95
 810 478 810 478 822 478 c 0,96,97
 843 478 843 478 848 478.5 c 128,-1,98
 853 479 853 479 856 482 c 0,99,100
 859 484 859 484 859.5 486 c 128,-1,101
 860 488 860 488 859 493 c 0,102,103
 858 497 858 497 857.5 503 c 128,-1,104
 857 509 857 509 856 514 c 0,105,106
 856 519 856 519 855 523 c 128,-1,107
 854 527 854 527 853 528 c 0,108,109
 853 529 853 529 846.5 529.5 c 128,-1,110
 840 530 840 530 825 529 c 0,111,112
 814 529 814 529 805 528 c 128,-1,113
 796 527 796 527 795 527 c 0,114,115
 791 526 791 526 787.5 531.5 c 128,-1,116
 784 537 784 537 787 542 c 0,117,118
 787 544 787 544 788 547 c 128,-1,119
 789 550 789 550 789 553 c 256,120,121
 789 556 789 556 789.5 558.5 c 128,-1,122
 790 561 790 561 790 562 c 0,123,124
 792 563 792 563 792 569 c 128,-1,125
 792 575 792 575 790 578 c 0,126,127
 788 579 788 579 787.5 581 c 128,-1,128
 787 583 787 583 787 585 c 0,129,130
 787 588 787 588 783.5 589.5 c 128,-1,131
 780 591 780 591 768 592 c 0,132,133
 739 595 739 595 733.5 595 c 128,-1,134
 728 595 728 595 724 591 c 1,135,-1
 724 591 l 1,0,1
594 526 m 1,136,137
 592 526 592 526 588.5 525.5 c 128,-1,138
 585 525 585 525 583 524 c 0,139,140
 576 524 576 524 557 517.5 c 128,-1,141
 538 511 538 511 536 508 c 0,142,143
 535 507 535 507 534 506.5 c 128,-1,144
 533 506 533 506 531 505 c 0,145,146
 528 504 528 504 514 491 c 128,-1,147
 500 478 500 478 497 473 c 0,148,149
 495 470 495 470 493 461.5 c 128,-1,150
 491 453 491 453 488 431 c 0,151,152
 488 426 488 426 486.5 420.5 c 128,-1,153
 485 415 485 415 485 413 c 0,154,155
 481 402 481 402 484 380.5 c 128,-1,156
 487 359 487 359 493 353 c 0,157,158
 495 352 495 352 496.5 349 c 128,-1,159
 498 346 498 346 499 345 c 0,160,161
 501 342 501 342 499.5 341.5 c 128,-1,162
 498 341 498 341 487 341 c 2,163,-1
 472 341 l 1,164,-1
 472 362 l 2,165,166
 472 371 472 371 471.5 379 c 128,-1,167
 471 387 471 387 470 389 c 256,168,169
 469 391 469 391 469.5 396 c 128,-1,170
 470 401 470 401 471 408 c 0,171,172
 473 423 473 423 472.5 437.5 c 128,-1,173
 472 452 472 452 469 458 c 0,174,175
 468 460 468 460 467.5 464 c 128,-1,176
 467 468 467 468 467 470 c 0,177,178
 467 479 467 479 460 492.5 c 128,-1,179
 453 506 453 506 448 506 c 0,180,181
 447 506 447 506 446 506.5 c 128,-1,182
 445 507 445 507 444 507 c 256,183,184
 443 507 443 507 441.5 507.5 c 128,-1,185
 440 508 440 508 439 508 c 256,186,187
 438 508 438 508 434.5 510 c 128,-1,188
 431 512 431 512 428 515 c 0,189,190
 419 522 419 522 412.5 524 c 128,-1,191
 406 526 406 526 395 524 c 0,192,193
 381 522 381 522 372.5 519 c 128,-1,194
 364 516 364 516 360 512 c 0,195,196
 358 511 358 511 356 509.5 c 128,-1,197
 354 508 354 508 352 508 c 0,198,199
 349 508 349 508 347 506 c 128,-1,200
 345 504 345 504 339 497 c 0,201,202
 336 493 336 493 333 490.5 c 128,-1,203
 330 488 330 488 329 488 c 0,204,205
 326 488 326 488 323.5 491 c 128,-1,206
 321 494 321 494 321 498 c 0,207,208
 321 499 321 499 320 501.5 c 128,-1,209
 319 504 319 504 317 505 c 0,210,211
 315 508 315 508 310 508.5 c 128,-1,212
 305 509 305 509 288 509 c 0,213,214
 278 509 278 509 268.5 509.5 c 128,-1,215
 259 510 259 510 256 511 c 0,216,217
 244 513 244 513 238.5 505.5 c 128,-1,218
 233 498 233 498 235 483 c 0,219,220
 235 478 235 478 236 473 c 128,-1,221
 237 468 237 468 238 466 c 0,222,223
 239 463 239 463 241 462.5 c 128,-1,224
 243 462 243 462 253 463 c 2,225,-1
 268 464 l 1,226,-1
 270 459 l 2,227,228
 272 455 272 455 271.5 450 c 128,-1,229
 271 445 271 445 268 433 c 0,230,231
 267 426 267 426 267 406.5 c 128,-1,232
 267 387 267 387 268 378 c 0,233,234
 272 358 272 358 272.5 352 c 128,-1,235
 273 346 273 346 271 345 c 256,236,237
 269 344 269 344 265 343 c 128,-1,238
 261 342 261 342 255 342 c 0,239,240
 247 342 247 342 244.5 341.5 c 128,-1,241
 242 341 242 341 240 338 c 0,242,243
 237 334 237 334 234.5 323 c 128,-1,244
 232 312 232 312 232 305 c 0,245,246
 232 301 232 301 233.5 299.5 c 128,-1,247
 235 298 235 298 240 295 c 0,248,249
 246 292 246 292 254.5 291.5 c 128,-1,250
 263 291 263 291 282 293 c 0,251,252
 288 294 288 294 298 293 c 128,-1,253
 308 292 308 292 310 291 c 0,254,255
 312 289 312 289 331.5 289 c 128,-1,256
 351 289 351 289 357 291 c 0,257,258
 362 294 362 294 365 298 c 128,-1,259
 368 302 368 302 368 308 c 0,260,261
 368 311 368 311 367.5 313.5 c 128,-1,262
 367 316 367 316 367 316 c 2,263,264
 366 316 366 316 365.5 320 c 128,-1,265
 365 324 365 324 365 329 c 0,266,267
 365 339 365 339 362.5 342.5 c 128,-1,268
 360 346 360 346 351 347 c 0,269,270
 346 348 346 348 344.5 349 c 128,-1,271
 343 350 343 350 343 352 c 256,272,273
 343 354 343 354 342.5 355.5 c 128,-1,274
 342 357 342 357 341 357 c 0,275,276
 339 358 339 358 339 358.5 c 128,-1,277
 339 359 339 359 341 360 c 0,278,279
 344 362 344 362 344.5 370 c 128,-1,280
 345 378 345 378 343 398 c 0,281,282
 341 416 341 416 341 420.5 c 128,-1,283
 341 425 341 425 343 429 c 0,284,285
 345 430 345 430 346 433.5 c 128,-1,286
 347 437 347 437 347 440 c 256,287,288
 347 443 347 443 347.5 446 c 128,-1,289
 348 449 348 449 349 450 c 256,290,291
 350 451 350 451 351 452 c 128,-1,292
 352 453 352 453 352 454 c 0,293,294
 352 459 352 459 367 459.5 c 128,-1,295
 382 460 382 460 391 456 c 0,296,297
 393 454 393 454 395.5 453 c 128,-1,298
 398 452 398 452 399 451 c 0,299,300
 400 451 400 451 401 449 c 128,-1,301
 402 447 402 447 403 445 c 0,302,303
 403 444 403 444 404 442 c 128,-1,304
 405 440 405 440 406 439 c 0,305,306
 408 437 408 437 408.5 424 c 128,-1,307
 409 411 409 411 407 405 c 0,308,309
 405 402 405 402 404.5 384.5 c 128,-1,310
 404 367 404 367 406 360 c 0,311,312
 407 352 407 352 403 348.5 c 128,-1,313
 399 345 399 345 389 345 c 0,314,315
 377 345 377 345 375.5 339.5 c 128,-1,316
 374 334 374 334 379 307 c 0,317,318
 381 295 381 295 384 293 c 128,-1,319
 387 291 387 291 401 292 c 0,320,321
 415 294 415 294 420 294 c 128,-1,322
 425 294 425 294 463 292 c 2,323,-1
 504 291 l 1,324,-1
 508 297 l 2,325,326
 511 300 511 300 511.5 303 c 128,-1,327
 512 306 512 306 512 312 c 2,328,-1
 511 322 l 1,329,-1
 530 309 l 2,330,331
 548 297 548 297 559.5 294 c 128,-1,332
 571 291 571 291 597 291 c 0,333,334
 612 292 612 292 618.5 292.5 c 128,-1,335
 625 293 625 293 633 296 c 0,336,337
 637 297 637 297 641 299 c 128,-1,338
 645 301 645 301 647 301 c 0,339,340
 648 302 648 302 651.5 303 c 128,-1,341
 655 304 655 304 659 305 c 0,342,343
 669 308 669 308 676 314 c 128,-1,344
 683 320 683 320 687 329 c 0,345,346
 688 333 688 333 690.5 338 c 128,-1,347
 693 343 693 343 694 346 c 0,348,349
 696 349 696 349 697 352 c 128,-1,350
 698 355 698 355 698 356 c 0,351,352
 698 359 698 359 693 364.5 c 128,-1,353
 688 370 688 370 685 370 c 0,354,355
 684 370 684 370 681 371 c 128,-1,356
 678 372 678 372 675 373 c 0,357,358
 670 376 670 376 666 376 c 128,-1,359
 662 376 662 376 658 372 c 0,360,361
 657 371 657 371 654 370 c 128,-1,362
 651 369 651 369 648 369 c 0,363,364
 646 369 646 369 643 367.5 c 128,-1,365
 640 366 640 366 638 364 c 0,366,367
 637 362 637 362 634 360.5 c 128,-1,368
 631 359 631 359 628 357 c 0,369,370
 625 356 625 356 622 354 c 128,-1,371
 619 352 619 352 618 350 c 0,372,373
 616 347 616 347 612.5 345.5 c 128,-1,374
 609 344 609 344 603 342 c 0,375,376
 599 341 599 341 594.5 341 c 128,-1,377
 590 341 590 341 588 341 c 0,378,379
 584 343 584 343 575.5 348.5 c 128,-1,380
 567 354 567 354 567 355 c 256,381,382
 567 356 567 356 564.5 358.5 c 128,-1,383
 562 361 562 361 559 364 c 0,384,385
 554 370 554 370 553 372 c 128,-1,386
 552 374 552 374 553 380 c 0,387,388
 554 389 554 389 556.5 391 c 128,-1,389
 559 393 559 393 568 393 c 0,390,391
 572 393 572 393 576.5 394 c 128,-1,392
 581 395 581 395 583 396 c 0,393,394
 590 399 590 399 605.5 399 c 128,-1,395
 621 399 621 399 626 396 c 0,396,397
 629 394 629 394 634 393.5 c 128,-1,398
 639 393 639 393 652 393 c 0,399,400
 669 392 669 392 677.5 394 c 128,-1,401
 686 396 686 396 692 400 c 0,402,403
 696 403 696 403 696.5 406.5 c 128,-1,404
 697 410 697 410 697 426 c 0,405,406
 697 445 697 445 695 455 c 128,-1,407
 693 465 693 465 688 472 c 0,408,409
 686 475 686 475 684 478.5 c 128,-1,410
 682 482 682 482 680 485 c 0,411,412
 679 488 679 488 677 490 c 128,-1,413
 675 492 675 492 674 493 c 0,414,415
 673 493 673 493 670 495.5 c 128,-1,416
 667 498 667 498 665 502 c 0,417,418
 661 506 661 506 658 508 c 128,-1,419
 655 510 655 510 651 510 c 0,420,421
 649 511 649 511 643.5 513 c 128,-1,422
 638 515 638 515 634 517 c 0,423,424
 616 525 616 525 609 527 c 128,-1,425
 602 529 602 529 594 526 c 1,426,-1
 594 526 l 1,136,137
605 479 m 1,427,428
 610 476 610 476 621 463.5 c 128,-1,429
 632 451 632 451 632 449 c 0,430,431
 632 446 632 446 628 444 c 128,-1,432
 624 442 624 442 615 440 c 0,433,434
 602 437 602 437 587.5 437 c 128,-1,435
 573 437 573 437 569 440 c 0,436,437
 568 441 568 441 566 441.5 c 128,-1,438
 564 442 564 442 563 442 c 0,439,440
 561 442 561 442 559.5 444.5 c 128,-1,441
 558 447 558 447 558 450 c 2,442,443
 558 450 558 450 559.5 452.5 c 128,-1,444
 561 455 561 455 564 458 c 0,445,446
 566 460 566 460 569 464 c 128,-1,447
 572 468 572 468 574 470 c 0,448,449
 581 479 581 479 589.5 481.5 c 128,-1,450
 598 484 598 484 605 479 c 1,451,-1
 605 479 l 1,427,428
171 351 m 1,452,453
 166 348 166 348 161 342.5 c 128,-1,454
 156 337 156 337 153 331 c 0,455,456
 145 311 145 311 159.5 294.5 c 128,-1,457
 174 278 174 278 195 284 c 0,458,459
 218 290 218 290 220.5 314.5 c 128,-1,460
 223 339 223 339 202 349 c 0,461,462
 195 353 195 353 186 353 c 128,-1,463
 177 353 177 353 171 351 c 1,464,-1
 171 351 l 1,452,453
EndSplineSet
Validated: 41
EndChar

